Mada.glyphspackage
{
color = 3;
glyphname = exclam;
kernLeft = exclam;
kernRight = exclam;
layers = (
{
layerId = "42B3044F-4D5A-45CA-9EB7-C1889731596B";
shapes = (
{
closed = 1;
nodes = (
(236,244,l),
(260,522,l),
(266,670,l),
(94,670,l),
(100,522,l),
(124,244,l)
);
},
{
closed = 1;
nodes = (
(238,-12,o),
(280,34,o),
(280,92,cs),
(280,150,o),
(238,196,o),
(180,196,cs),
(122,196,o),
(80,150,o),
(80,92,cs),
(80,34,o),
(122,-12,o),
(180,-12,cs)
);
}
);
width = 360;
},
{
layerId = "0CAB57D4-4FC4-49C3-B456-FB7666EAA712";
shapes = (
{
closed = 1;
nodes = (
(136,172,l),
(140,608,l),
(140,670,l),
(108,670,l),
(108,608,l),
(112,172,l)
);
},
{
closed = 1;
nodes = (
(142,-12,o),
(160,2,o),
(160,26,cs),
(160,52,o),
(142,66,o),
(124,66,cs),
(106,66,o),
(88,52,o),
(88,26,cs),
(88,2,o),
(106,-12,o),
(124,-12,cs)
);
}
);
width = 248;
},
{
layerId = master01;
shapes = (
{
closed = 1;
nodes = (
(173,198,l),
(184,576,l),
(186,670,l),
(103,670,l),
(105,576,l),
(116,198,l)
);
},
{
closed = 1;
nodes = (
(177,-12,o),
(204,14,o),
(204,50,cs),
(204,88,o),
(177,114,o),
(145,114,cs),
(112,114,o),
(85,88,o),
(85,50,cs),
(85,14,o),
(112,-12,o),
(145,-12,cs)
);
}
);
width = 289.216;
}
);
unicode = 33;
}
{
color = 3;
glyphname = numbersign;
layers = (
{
layerId = "42B3044F-4D5A-45CA-9EB7-C1889731596B";
shapes = (
{
closed = 1;
nodes = (
(182,0,l),
(204,180,l),
(296,180,l),
(274,0,l),
(372,0,l),
(394,180,l),
(490,180,l),
(490,288,l),
(406,288,l),
(418,384,l),
(510,384,l),
(510,492,l),
(432,492,l),
(450,650,l),
(354,650,l),
(334,492,l),
(242,492,l),
(260,650,l),
(164,650,l),
(144,492,l),
(54,492,l),
(54,384,l),
(130,384,l),
(118,288,l),
(34,288,l),
(34,180,l),
(106,180,l),
(84,0,l)
);
},
{
closed = 1;
nodes = (
(228,384,l),
(320,384,l),
(308,288,l),
(216,288,l)
);
}
);
width = 540;
},
{
layerId = "0CAB57D4-4FC4-49C3-B456-FB7666EAA712";
shapes = (
{
closed = 1;
nodes = (
(122,0,l),
(148,218,l),
(304,218,l),
(278,0,l),
(306,0,l),
(332,218,l),
(422,218,l),
(422,246,l),
(336,246,l),
(358,424,l),
(442,424,l),
(442,452,l),
(360,452,l),
(386,650,l),
(358,650,l),
(332,452,l),
(176,452,l),
(202,650,l),
(174,650,l),
(148,452,l),
(56,452,l),
(56,424,l),
(146,424,l),
(124,246,l),
(36,246,l),
(36,218,l),
(120,218,l),
(94,0,l)
);
},
{
closed = 1;
nodes = (
(174,424,l),
(330,424,l),
(308,246,l),
(152,246,l)
);
}
);
width = 472;
},
{
layerId = master01;
shapes = (
{
closed = 1;
nodes = (
(144,0,l),
(169,204,l),
(301,204,l),
(277,0,l),
(330,0,l),
(355,204,l),
(447,204,l),
(447,261,l),
(362,261,l),
(380,409,l),
(467,409,l),
(467,467,l),
(386,467,l),
(410,650,l),
(357,650,l),
(333,467,l),
(200,467,l),
(223,650,l),
(170,650,l),
(147,467,l),
(55,467,l),
(55,409,l),
(140,409,l),
(122,261,l),
(35,261,l),
(35,204,l),
(115,204,l),
(90,0,l)
);
},
{
closed = 1;
nodes = (
(194,409,l),
(326,409,l),
(308,261,l),
(176,261,l)
);
}
);
width = 497.024;
}
);
unicode = 35;
}
{
color = 3;
glyphname = dollar;
layers = (
{
layerId = "42B3044F-4D5A-45CA-9EB7-C1889731596B";
shapes = (
{
closed = 1;
nodes = (
(404,-12,o),
(480,76,o),
(480,194,cs),
(480,376,o),
(222,380,o),
(222,456,cs),
(222,494,o),
(243,508,o),
(282,508,cs),
(320,508,o),
(356,492,o),
(390,462,c),
(476,556,l),
(426,610,o),
(364,646,o),
(276,646,cs),
(141,646,o),
(58,570,o),
(58,448,cs),
(58,273,o),
(316,262,o),
(316,180,cs),
(316,144,o),
(296,126,o),
(246,126,cs),
(204,126,o),
(162,136,o),
(110,178,c),
(34,72,l),
(94,12,o),
(172,-12,o),
(246,-12,cs)
);
},
{
closed = 1;
nodes = (
(324,-110,l),
(324,60,l),
(212,60,l),
(212,-110,l)
);
},
{
closed = 1;
nodes = (
(324,594,l),
(324,744,l),
(212,744,l),
(212,594,l)
);
}
);
width = 540;
},
{
layerId = "0CAB57D4-4FC4-49C3-B456-FB7666EAA712";
shapes = (
{
closed = 1;
nodes = (
(336,-12,o),
(412,52,o),
(412,158,cs),
(412,352,o),
(120,342,o),
(120,502,cs),
(120,570,o),
(170,624,o),
(242,624,cs),
(306,624,o),
(344,602,o),
(374,564,c),
(394,580,l),
(362,622,o),
(316,652,o),
(244,652,cs),
(156,652,o),
(88,588,o),
(88,500,cs),
(88,320,o),
(380,330,o),
(380,156,cs),
(380,74,o),
(332,16,o),
(244,16,cs),
(172,16,o),
(116,48,o),
(80,86,c),
(62,68,l),
(98,22,o),
(166,-12,o),
(244,-12,cs)
);
},
{
closed = 1;
nodes = (
(258,-110,l),
(258,-8,l),
(228,-8,l),
(228,-110,l)
);
},
{
closed = 1;
nodes = (
(258,634,l),
(258,750,l),
(228,750,l),
(228,634,l)
);
}
);
width = 472;
},
{
layerId = master01;
shapes = (
{
closed = 1;
nodes = (
(361,-12,o),
(437,61,o),
(437,171,cs),
(437,361,o),
(158,356,o),
(158,485,cs),
(158,542,o),
(197,581,o),
(257,581,cs),
(311,581,o),
(348,562,o),
(380,526,c),
(424,571,l),
(386,618,o),
(334,650,o),
(256,650,cs),
(150,650,o),
(77,581,o),
(77,481,cs),
(77,303,o),
(356,305,o),
(356,165,cs),
(356,100,o),
(319,56,o),
(245,56,cs),
(184,56,o),
(133,80,o),
(91,120,c),
(52,69,l),
(97,18,o),
(168,-12,o),
(245,-12,cs)
);
},
{
closed = 1;
nodes = (
(282,-110,l),
(282,17,l),
(222,17,l),
(222,-110,l)
);
},
{
closed = 1;
nodes = (
(282,619,l),
(282,748,l),
(222,748,l),
(222,619,l)
);
}
);
width = 497.024;
}
);
unicode = 36;
}
{
color = 3;
glyphname = ampersand;
layers = (
{
layerId = "42B3044F-4D5A-45CA-9EB7-C1889731596B";
shapes = (
{
closed = 1;
nodes = (
(376,-12,o),
(454,34,o),
(516,104,cs),
(590,188,o),
(642,278,o),
(668,374,c),
(512,374,l),
(490,292,o),
(448,228,o),
(398,180,cs),
(356,142,o),
(310,118,o),
(268,118,cs),
(220,118,o),
(184,138,o),
(184,186,cs),
(184,296,o),
(458,332,o),
(458,508,cs),
(458,602,o),
(390,662,o),
(286,662,cs),
(170,662,o),
(98,580,o),
(98,486,cs),
(98,359,o),
(244,182,o),
(415,75,cs),
(485,31,o),
(560,0,o),
(630,-12,c),
(670,126,l),
(638,132,o),
(574,150,o),
(518,183,cs),
(384,262,o),
(240,386,o),
(240,486,cs),
(240,528,o),
(264,550,o),
(290,550,cs),
(315,550,o),
(328,536,o),
(328,508,cs),
(328,386,o),
(22,396,o),
(22,176,cs),
(22,64,o),
(108,-12,o),
(256,-12,cs)
);
}
);
width = 690;
},
{
layerId = "0CAB57D4-4FC4-49C3-B456-FB7666EAA712";
shapes = (
{
closed = 1;
nodes = (
(302,-12,o),
(360,28,o),
(410,84,cs),
(468,153,o),
(510,244,o),
(538,342,c),
(508,342,l),
(482,248,o),
(444,166,o),
(388,102,cs),
(344,52,o),
(288,16,o),
(226,16,cs),
(142,16,o),
(70,76,o),
(70,168,cs),
(70,332,o),
(364,392,o),
(364,556,cs),
(364,622,o),
(328,672,o),
(260,672,cs),
(184,672,o),
(130,612,o),
(130,528,cs),
(130,382,o),
(264,196,o),
(392,82,cs),
(446,34,o),
(496,4,o),
(538,-12,c),
(550,16,l),
(508,32,o),
(460,62,o),
(410,106,cs),
(290,210,o),
(160,392,o),
(160,530,cs),
(160,592,o),
(196,644,o),
(258,644,cs),
(314,644,o),
(334,598,o),
(334,554,cs),
(334,402,o),
(38,346,o),
(38,166,cs),
(38,56,o),
(124,-12,o),
(224,-12,cs)
);
}
);
width = 562;
},
{
layerId = master01;
shapes = (
{
closed = 1;
nodes = (
(329,-12,o),
(395,30,o),
(449,91,cs),
(513,166,o),
(559,257,o),
(586,354,c),
(509,354,l),
(485,264,o),
(445,189,o),
(392,131,cs),
(348,85,o),
(296,54,o),
(241,54,cs),
(171,54,o),
(112,99,o),
(112,175,cs),
(112,319,o),
(399,370,o),
(399,538,cs),
(399,615,o),
(351,668,o),
(270,668,cs),
(179,668,o),
(118,600,o),
(118,513,cs),
(118,374,o),
(257,191,o),
(400,79,cs),
(460,33,o),
(520,3,o),
(572,-12,c),
(594,56,l),
(556,69,o),
(502,94,o),
(450,134,cs),
(325,229,o),
(189,390,o),
(189,514,cs),
(189,568,o),
(221,609,o),
(270,609,cs),
(314,609,o),
(332,575,o),
(332,537,cs),
(332,396,o),
(32,364,o),
(32,170,cs),
(32,59,o),
(118,-12,o),
(236,-12,cs)
);
}
);
width = 609.104;
}
);
unicode = 38;
}
{
color = 3;
glyphname = quotesingle;
kernLeft = quote;
kernRight = quote;
layers = (
{
layerId = "42B3044F-4D5A-45CA-9EB7-C1889731596B";
shapes = (
{
closed = 1;
nodes = (
(206,324,l),
(240,536,l),
(246,684,l),
(74,684,l),
(80,536,l),
(114,324,l)
);
}
);
width = 320;
},
{
layerId = "0CAB57D4-4FC4-49C3-B456-FB7666EAA712";
shapes = (
{
closed = 1;
nodes = (
(116,494,l),
(122,634,l),
(122,694,l),
(84,694,l),
(84,634,l),
(90,494,l)
);
}
);
width = 208;
},
{
layerId = master01;
shapes = (
{
closed = 1;
nodes = (
(149,431,l),
(165,598,l),
(168,690,l),
(80,690,l),
(83,598,l),
(99,431,l)
);
}
);
width = 249.216;
}
);
unicode = 39;
}
{
color = 3;
glyphname = parenleft;
kernRight = braceleft;
layers = (
{
layerId = "42B3044F-4D5A-45CA-9EB7-C1889731596B";
shapes = (
{
closed = 1;
nodes = (
(308,-136,l),
(236,-6,o),
(206,140,o),
(206,278,cs),
(206,416,o),
(236,562,o),
(308,692,c),
(200,736,l),
(116,598,o),
(68,454,o),
(68,278,cs),
(68,102,o),
(116,-42,o),
(200,-180,c)
);
}
);
width = 360;
},
{
layerId = "0CAB57D4-4FC4-49C3-B456-FB7666EAA712";
shapes = (
{
closed = 1;
nodes = (
(240,-162,l),
(160,-36,o),
(118,118,o),
(118,278,cs),
(118,438,o),
(160,592,o),
(240,718,c),
(222,730,l),
(140,598,o),
(90,454,o),
(90,278,cs),
(90,102,o),
(140,-42,o),
(222,-174,c)
);
}
);
width = 270;
},
{
layerId = master01;
shapes = (
{
closed = 1;
nodes = (
(265,-152,l),
(188,-25,o),
(150,126,o),
(150,278,cs),
(150,430,o),
(188,581,o),
(265,708,c),
(214,732,l),
(131,598,o),
(82,454,o),
(82,278,cs),
(82,102,o),
(131,-42,o),
(214,-176,c)
);
}
);
width = 303.12;
}
);
unicode = 40;
}
{
color = 3;
glyphname = parenright;
kernLeft = braceright;
layers = (
{
layerId = "42B3044F-4D5A-45CA-9EB7-C1889731596B";
shapes = (
{
closed = 1;
nodes = (
(244,-42,o),
(292,102,o),
(292,278,cs),
(292,454,o),
(244,598,o),
(160,736,c),
(52,692,l),
(124,562,o),
(154,416,o),
(154,278,cs),
(154,140,o),
(124,-6,o),
(52,-136,c),
(160,-180,l)
);
}
);
width = 360;
},
{
layerId = "0CAB57D4-4FC4-49C3-B456-FB7666EAA712";
shapes = (
{
closed = 1;
nodes = (
(130,-42,o),
(180,102,o),
(180,278,cs),
(180,454,o),
(130,598,o),
(48,730,c),
(30,718,l),
(110,592,o),
(152,438,o),
(152,278,cs),
(152,118,o),
(110,-36,o),
(30,-162,c),
(48,-174,l)
);
}
);
width = 270;
},
{
layerId = master01;
shapes = (
{
closed = 1;
nodes = (
(172,-42,o),
(221,102,o),
(221,278,cs),
(221,454,o),
(172,598,o),
(89,732,c),
(38,708,l),
(115,581,o),
(153,430,o),
(153,278,cs),
(153,126,o),
(115,-25,o),
(38,-152,c),
(89,-176,l)
);
}
);
width = 303.12;
}
);
unicode = 41;
}
{
color = 3;
glyphname = asterisk;
layers = (
{
layerId = "42B3044F-4D5A-45CA-9EB7-C1889731596B";
shapes = (
{
closed = 1;
nodes = (
(236,412,l),
(320,321,l),
(390,372,l),
(329,479,l),
(442,531,l),
(415,614,l),
(294,589,l),
(280,712,l),
(192,712,l),
(178,590,l),
(57,614,l),
(30,531,l),
(142,479,l),
(82,372,l),
(152,321,l)
);
}
);
width = 472;
},
{
layerId = "0CAB57D4-4FC4-49C3-B456-FB7666EAA712";
shapes = (
{
closed = 1;
nodes = (
(194,560,l),
(256,478,l),
(278,494,l),
(224,580,l),
(312,614,l),
(304,638,l),
(212,614,l),
(206,712,l),
(180,712,l),
(174,612,l),
(82,638,l),
(74,614,l),
(162,580,l),
(108,494,l),
(130,478,l)
);
}
);
width = 386;
},
{
layerId = master01;
shapes = (
{
closed = 1;
nodes = (
(209,506,l),
(280,420,l),
(319,449,l),
(263,543,l),
(360,583,l),
(345,629,l),
(242,605,l),
(233,712,l),
(184,712,l),
(175,604,l),
(73,629,l),
(58,583,l),
(155,543,l),
(98,449,l),
(138,420,l)
);
}
);
width = 417.648;
}
);
unicode = 42;
}
{
color = 3;
glyphname = plus;
layers = (
{
layerId = "42B3044F-4D5A-45CA-9EB7-C1889731596B";
shapes = (
{
closed = 1;
nodes = (
(332,90,l),
(332,270,l),
(506,270,l),
(506,390,l),
(332,390,l),
(332,570,l),
(208,570,l),
(208,390,l),
(34,390,l),
(34,270,l),
(208,270,l),
(208,90,l)
);
}
);
width = 540;
},
{
layerId = "0CAB57D4-4FC4-49C3-B456-FB7666EAA712";
shapes = (
{
closed = 1;
nodes = (
(252,112,l),
(252,316,l),
(438,316,l),
(438,344,l),
(252,344,l),
(252,548,l),
(220,548,l),
(220,344,l),
(34,344,l),
(34,316,l),
(220,316,l),
(220,112,l)
);
}
);
width = 472;
},
{
layerId = master01;
shapes = (
{
closed = 1;
nodes = (
(281,104,l),
(281,299,l),
(463,299,l),
(463,361,l),
(281,361,l),
(281,556,l),
(216,556,l),
(216,361,l),
(34,361,l),
(34,299,l),
(216,299,l),
(216,104,l)
);
}
);
width = 497.024;
}
);
unicode = 43;
}
{
color = 3;
glyphname = comma;
kernLeft = comma;
kernRight = comma;
layers = (
{
layerId = "42B3044F-4D5A-45CA-9EB7-C1889731596B";
shapes = (
{
closed = 1;
nodes = (
(210,-168,o),
(278,-78,o),
(278,40,cs),
(278,138,o),
(238,196,o),
(164,196,cs),
(106,196,o),
(60,158,o),
(60,102,cs),
(60,42,o),
(108,8,o),
(160,8,cs),
(182,8,o),
(202,15,o),
(218,27,c),
(167,118,l),
(167,10,ls),
(168,-40,o),
(127,-88,o),
(46,-114,c),
(80,-204,l)
);
}
);
width = 320;
},
{
layerId = "0CAB57D4-4FC4-49C3-B456-FB7666EAA712";
shapes = (
{
closed = 1;
nodes = (
(112,-118,o),
(152,-64,o),
(152,4,cs),
(152,42,o),
(134,66,o),
(108,66,cs),
(90,66,o),
(72,54,o),
(72,30,cs),
(72,6,o),
(88,-6,o),
(108,-6,cs),
(120,-6,o),
(132,-4,o),
(140,10,c),
(106,52,l),
(120,-2,l),
(120,-60,o),
(90,-102,o),
(48,-126,c),
(60,-150,l)
);
}
);
width = 208;
},
{
layerId = master01;
shapes = (
{
closed = 1;
nodes = (
(148,-136,o),
(198,-69,o),
(198,17,cs),
(198,77,o),
(172,114,o),
(129,114,cs),
(96,114,o),
(68,92,o),
(68,56,cs),
(68,19,o),
(95,-1,o),
(127,-1,cs),
(143,-1,o),
(158,3,o),
(169,16,c),
(128,76,l),
(137,2,l),
(138,-53,o),
(104,-97,o),
(47,-122,c),
(67,-170,l)
);
}
);
width = 249.216;
}
);
unicode = 44;
}
{
color = 3;
glyphname = period;
kernLeft = comma;
kernRight = comma;
layers = (
{
layerId = "42B3044F-4D5A-45CA-9EB7-C1889731596B";
shapes = (
{
closed = 1;
nodes = (
(218,-12,o),
(260,34,o),
(260,92,cs),
(260,150,o),
(218,196,o),
(160,196,cs),
(102,196,o),
(60,150,o),
(60,92,cs),
(60,34,o),
(102,-12,o),
(160,-12,cs)
);
}
);
width = 320;
},
{
layerId = "0CAB57D4-4FC4-49C3-B456-FB7666EAA712";
shapes = (
{
closed = 1;
nodes = (
(122,-12,o),
(140,2,o),
(140,26,cs),
(140,52,o),
(122,66,o),
(104,66,cs),
(86,66,o),
(68,52,o),
(68,26,cs),
(68,2,o),
(86,-12,o),
(104,-12,cs)
);
}
);
width = 208;
},
{
layerId = master01;
shapes = (
{
closed = 1;
nodes = (
(157,-12,o),
(184,14,o),
(184,50,cs),
(184,88,o),
(157,114,o),
(125,114,cs),
(92,114,o),
(65,88,o),
(65,50,cs),
(65,14,o),
(92,-12,o),
(125,-12,cs)
);
}
);
width = 249.216;
}
);
unicode = 46;
}
{
color = 3;
glyphname = slash;
layers = (
{
layerId = "42B3044F-4D5A-45CA-9EB7-C1889731596B";
shapes = (
{
closed = 1;
nodes = (
(124,-160,l),
(300,710,l),
(190,710,l),
(14,-160,l)
);
}
);
width = 334;
},
{
layerId = "0CAB57D4-4FC4-49C3-B456-FB7666EAA712";
shapes = (
{
closed = 1;
nodes = (
(38,-160,l),
(358,710,l),
(328,710,l),
(8,-160,l)
);
}
);
width = 360;
},
{
layerId = master01;
shapes = (
{
closed = 1;
nodes = (
(70,-160,l),
(337,710,l),
(277,710,l),
(10,-160,l)
);
}
);
width = 350.432;
}
);
unicode = 47;
}
{
color = 3;
glyphname = zero;
kernLeft = NUM_ZERO_RIGHT;
kernRight = NUM_ZERO_LEFT;
layers = (
{
layerId = "42B3044F-4D5A-45CA-9EB7-C1889731596B";
shapes = (
{
closed = 1;
nodes = (
(410,-12,o),
(506,103,o),
(506,320,cs),
(506,536,o),
(410,646,o),
(270,646,cs),
(130,646,o),
(34,537,o),
(34,320,cs),
(34,103,o),
(130,-12,o),
(270,-12,cs)
);
},
{
closed = 1;
nodes = (
(230,120,o),
(196,152,o),
(196,320,cs),
(196,488,o),
(230,514,o),
(270,514,cs),
(310,514,o),
(344,488,o),
(344,320,cs),
(344,152,o),
(310,120,o),
(270,120,cs)
);
}
);
width = 540;
},
{
layerId = "0CAB57D4-4FC4-49C3-B456-FB7666EAA712";
shapes = (
{
closed = 1;
nodes = (
(356,-12,o),
(422,110,o),
(422,322,cs),
(422,534,o),
(356,652,o),
(236,652,cs),
(116,652,o),
(50,534,o),
(50,322,cs),
(50,110,o),
(116,-12,o),
(236,-12,cs)
);
},
{
closed = 1;
nodes = (
(142,16,o),
(82,124,o),
(82,322,cs),
(82,520,o),
(142,624,o),
(236,624,cs),
(330,624,o),
(390,520,o),
(390,322,cs),
(390,124,o),
(330,16,o),
(236,16,cs)
);
}
);
width = 472;
},
{
layerId = master01;
shapes = (
{
closed = 1;
nodes = (
(376,-12,o),
(453,107,o),
(453,321,cs),
(453,535,o),
(376,650,o),
(249,650,cs),
(121,650,o),
(44,535,o),
(44,321,cs),
(44,107,o),
(121,-12,o),
(249,-12,cs)
);
},
{
closed = 1;
nodes = (
(174,54,o),
(124,134,o),
(124,321,cs),
(124,508,o),
(174,584,o),
(249,584,cs),
(323,584,o),
(373,508,o),
(373,321,cs),
(373,134,o),
(323,54,o),
(249,54,cs)
);
}
);
width = 497;
}
);
unicode = 48;
}
{
color = 3;
glyphname = one;
layers = (
{
layerId = "42B3044F-4D5A-45CA-9EB7-C1889731596B";
shapes = (
{
closed = 1;
nodes = (
(488,0,l),
(488,138,l),
(374,138,l),
(374,634,l),
(248,634,l),
(200,604,o),
(154,586,o),
(82,572,c),
(82,466,l),
(202,466,l),
(202,138,l),
(66,138,l),
(66,0,l)
);
}
);
width = 540;
},
{
layerId = "0CAB57D4-4FC4-49C3-B456-FB7666EAA712";
shapes = (
{
closed = 1;
nodes = (
(410,0,l),
(410,28,l),
(268,28,l),
(268,640,l),
(242,640,l),
(214,624,o),
(174,610,o),
(124,602,c),
(124,580,l),
(238,580,l),
(238,28,l),
(86,28,l),
(86,0,l)
);
}
);
width = 472;
},
{
layerId = master01;
shapes = (
{
closed = 1;
nodes = (
(439,0,l),
(439,68,l),
(307,68,l),
(307,638,l),
(244,638,l),
(209,617,o),
(167,601,o),
(109,591,c),
(109,538,l),
(225,538,l),
(225,68,l),
(79,68,l),
(79,0,l)
);
}
);
width = 497;
}
);
unicode = 49;
}
{
color = 3;
glyphname = two;
layers = (
{
layerId = "42B3044F-4D5A-45CA-9EB7-C1889731596B";
shapes = (
{
closed = 1;
nodes = (
(496,0,l),
(496,144,l),
(374,144,ls),
(346,144,o),
(300,140,o),
(268,136,c),
(364,228,o),
(466,328,o),
(466,440,cs),
(466,564,o),
(376,646,o),
(248,646,cs),
(156,646,o),
(96,612,o),
(32,540,c),
(120,452,l),
(150,482,o),
(182,512,o),
(224,512,cs),
(270,512,o),
(302,485,o),
(302,428,cs),
(302,344,o),
(184,232,o),
(36,106,c),
(36,0,l)
);
}
);
width = 540;
},
{
layerId = "0CAB57D4-4FC4-49C3-B456-FB7666EAA712";
shapes = (
{
closed = 1;
nodes = (
(426,0,l),
(426,28,l),
(194,28,ls),
(158,28,o),
(122,26,o),
(86,24,c),
(276,222,o),
(394,346,o),
(394,476,cs),
(394,582,o),
(330,652,o),
(218,652,cs),
(142,652,o),
(86,610,o),
(40,558,c),
(62,538,l),
(102,588,o),
(156,624,o),
(216,624,cs),
(318,624,o),
(362,558,o),
(362,476,cs),
(362,362,o),
(258,240,o),
(42,18,c),
(42,0,l)
);
}
);
width = 472;
},
{
layerId = master01;
shapes = (
{
closed = 1;
nodes = (
(452,0,l),
(452,71,l),
(260,71,ls),
(227,71,o),
(188,68,o),
(153,65,c),
(308,224,o),
(420,339,o),
(420,463,cs),
(420,575,o),
(347,650,o),
(229,650,cs),
(147,650,o),
(90,611,o),
(37,551,c),
(83,506,l),
(120,549,o),
(166,583,o),
(219,583,cs),
(300,583,o),
(340,531,o),
(340,458,cs),
(340,355,o),
(231,237,o),
(40,50,c),
(40,0,l)
);
}
);
width = 497.024;
}
);
unicode = 50;
}
{
color = 3;
glyphname = three;
layers = (
{
layerId = "42B3044F-4D5A-45CA-9EB7-C1889731596B";
shapes = (
{
closed = 1;
nodes = (
(378,-12,o),
(492,54,o),
(492,174,cs),
(492,254,o),
(442,304,o),
(370,326,c),
(370,330,l),
(438,360,o),
(472,406,o),
(472,467,cs),
(472,582,o),
(382,646,o),
(242,646,cs),
(164,646,o),
(98,616,o),
(36,564,c),
(122,460,l),
(162,494,o),
(192,512,o),
(234,512,cs),
(277,512,o),
(300,492,o),
(300,454,cs),
(300,410,o),
(268,382,o),
(162,382,c),
(162,262,l),
(295,262,o),
(320,234,o),
(320,186,cs),
(320,146,o),
(284,126,o),
(228,126,cs),
(183,126,o),
(137,150,o),
(98,186,c),
(20,78,l),
(68,22,o),
(143,-12,o),
(246,-12,cs)
);
}
);
width = 540;
},
{
layerId = "0CAB57D4-4FC4-49C3-B456-FB7666EAA712";
shapes = (
{
closed = 1;
nodes = (
(338,-12,o),
(420,58,o),
(420,168,cs),
(420,260,o),
(352,320,o),
(272,336,c),
(272,340,l),
(342,363,o),
(396,414,o),
(396,500,cs),
(396,596,o),
(322,652,o),
(228,652,cs),
(154,652,o),
(100,616,o),
(58,574,c),
(78,552,l),
(114,592,o),
(168,624,o),
(228,624,cs),
(310,624,o),
(364,574,o),
(364,498,cs),
(364,418,o),
(310,352,o),
(158,352,c),
(158,322,l),
(320,322,o),
(388,258,o),
(388,166,cs),
(388,76,o),
(322,16,o),
(232,16,cs),
(140,16,o),
(88,58,o),
(50,100,c),
(30,78,l),
(70,36,o),
(128,-12,o),
(230,-12,cs)
);
}
);
width = 472;
},
{
layerId = master01;
shapes = (
{
closed = 1;
nodes = (
(353,-12,o),
(446,57,o),
(446,170,cs),
(446,258,o),
(385,314,o),
(308,332,c),
(308,336,l),
(377,362,o),
(424,411,o),
(424,488,cs),
(424,591,o),
(344,650,o),
(233,650,cs),
(158,650,o),
(99,616,o),
(50,570,c),
(94,518,l),
(132,556,o),
(177,583,o),
(230,583,cs),
(298,583,o),
(340,544,o),
(340,482,cs),
(340,415,o),
(295,363,o),
(159,363,c),
(159,300,l),
(311,300,o),
(363,249,o),
(363,173,cs),
(363,102,o),
(308,56,o),
(231,56,cs),
(156,56,o),
(106,92,o),
(68,132,c),
(26,78,l),
(69,31,o),
(134,-12,o),
(236,-12,cs)
);
}
);
width = 497;
}
);
unicode = 51;
}
{
color = 3;
glyphname = four;
layers = (
{
layerId = "42B3044F-4D5A-45CA-9EB7-C1889731596B";
shapes = (
{
closed = 1;
nodes = (
(450,0,l),
(450,634,l),
(236,634,l),
(20,262,l),
(20,142,l),
(518,142,l),
(518,272,l),
(182,272,l),
(240,380,l),
(258,418,o),
(276,456,o),
(292,494,c),
(296,494,l),
(294,451,o),
(290,387,o),
(290,344,cs),
(290,0,l)
);
}
);
width = 540;
},
{
layerId = "0CAB57D4-4FC4-49C3-B456-FB7666EAA712";
shapes = (
{
closed = 1;
nodes = (
(342,0,l),
(342,640,l),
(322,640,l),
(16,212,l),
(16,196,l),
(440,196,l),
(440,224,l),
(58,224,l),
(260,506,l),
(278,534,o),
(296,556,o),
(312,582,c),
(316,582,l),
(314,554,o),
(312,504,o),
(312,476,cs),
(312,0,l)
);
}
);
width = 472;
},
{
layerId = master01;
shapes = (
{
closed = 1;
nodes = (
(382,0,l),
(382,638,l),
(290,638,l),
(17,230,l),
(17,176,l),
(469,176,l),
(469,242,l),
(104,242,l),
(253,460,l),
(271,491,o),
(289,519,o),
(305,550,c),
(309,550,l),
(307,516,o),
(304,461,o),
(304,427,cs),
(304,0,l)
);
}
);
width = 497.024;
}
);
unicode = 52;
}
{
color = 3;
glyphname = five;
layers = (
{
layerId = "42B3044F-4D5A-45CA-9EB7-C1889731596B";
shapes = (
{
closed = 1;
nodes = (
(381,-12,o),
(492,70,o),
(492,212,cs),
(492,346,o),
(398,408,o),
(288,408,cs),
(267,408,o),
(250,406,o),
(228,398,c),
(236,490,l),
(464,490,l),
(464,634,l),
(88,634,l),
(72,308,l),
(146,260,l),
(184,284,o),
(200,290,o),
(234,290,cs),
(284,290,o),
(320,262,o),
(320,208,cs),
(320,152,o),
(286,126,o),
(226,126,cs),
(180,126,o),
(136,152,o),
(98,186,c),
(22,78,l),
(74,26,o),
(148,-12,o),
(252,-12,cs)
);
}
);
width = 540;
},
{
layerId = "0CAB57D4-4FC4-49C3-B456-FB7666EAA712";
shapes = (
{
closed = 1;
nodes = (
(324,-12,o),
(424,64,o),
(424,200,cs),
(424,340,o),
(338,402,o),
(230,402,cs),
(180,402,o),
(144,387,o),
(110,366,c),
(132,612,l),
(390,612,l),
(390,640,l),
(104,640,l),
(80,344,l),
(106,328,l),
(144,354,o),
(178,372,o),
(228,372,cs),
(328,372,o),
(392,306,o),
(392,198,cs),
(392,90,o),
(314,16,o),
(226,16,cs),
(134,16,o),
(84,56,o),
(46,96,c),
(26,74,l),
(66,34,o),
(122,-12,o),
(224,-12,cs)
);
}
);
width = 472;
},
{
layerId = master01;
shapes = (
{
closed = 1;
nodes = (
(345,-12,o),
(449,66,o),
(449,204,cs),
(449,342,o),
(360,404,o),
(251,404,cs),
(212,404,o),
(183.008,393.992,o),
(153,378,c),
(170,567,l),
(417,567,l),
(417,638,l),
(98,638,l),
(77,331,l),
(121,303,l),
(159,328,o),
(186,342,o),
(230,342,cs),
(312,342,o),
(366,290,o),
(366,202,cs),
(366,113,o),
(304,56,o),
(226,56,cs),
(151,56,o),
(103,91,o),
(65,129,c),
(25,75,l),
(69,31,o),
(132,-12,o),
(234,-12,cs)
);
}
);
width = 497.024;
}
);
unicode = 53;
}
{
color = 3;
glyphname = six;
layers = (
{
layerId = "42B3044F-4D5A-45CA-9EB7-C1889731596B";
shapes = (
{
closed = 1;
nodes = (
(406,-12,o),
(506,68,o),
(506,204,cs),
(506,340,o),
(422,400,o),
(314,400,cs),
(277,400,o),
(218,374,o),
(188,328,c),
(196,220,l),
(219,264,o),
(250,280,o),
(280,280,cs),
(316,280,o),
(350,265,o),
(350,204,cs),
(350,137,o),
(318,116,o),
(282,116,cs),
(243,116,o),
(194,148,o),
(194,306,cs),
(194,458,o),
(245,508,o),
(312,508,cs),
(348,508,o),
(388,486,o),
(408,464,c),
(498,566,l),
(456,608,o),
(390,646,o),
(300,646,cs),
(164,646,o),
(38,536,o),
(38,306,cs),
(38,76,o),
(164,-12,o),
(286,-12,cs)
);
}
);
width = 540;
},
{
layerId = "0CAB57D4-4FC4-49C3-B456-FB7666EAA712";
shapes = (
{
closed = 1;
nodes = (
(350,-12,o),
(428,72,o),
(428,186,cs),
(428,314,o),
(364,384,o),
(252,384,cs),
(188,384,o),
(128,346,o),
(82,288,c),
(82,248,l),
(138,326,o),
(202,356,o),
(250,356,cs),
(354,356,o),
(396,282,o),
(396,186,cs),
(396,92,o),
(338,16,o),
(260,16,cs),
(138,16,o),
(86,132,o),
(86,288,cs),
(86,538,o),
(178,624,o),
(284,624,cs),
(326,624,o),
(365,606,o),
(394,570,c),
(414,592,l),
(382,628,o),
(342,652,o),
(286,652,cs),
(164,652,o),
(54,560,o),
(54,288,cs),
(54,98,o),
(130,-12,o),
(258,-12,cs)
);
}
);
width = 472;
},
{
layerId = master01;
shapes = (
{
closed = 1;
nodes = (
(371,-12,o),
(457,71,o),
(457,193,cs),
(457,324,o),
(385,390,o),
(275,390,cs),
(221,390,o),
(161,356,o),
(121,303,c),
(124,238,l),
(168,303,o),
(220,328,o),
(261,328,cs),
(340,328,o),
(379,276,o),
(379,193,cs),
(379,109,o),
(331,53,o),
(268,53,cs),
(177,53,o),
(126,138,o),
(126,295,cs),
(126,509,o),
(203,581,o),
(294,581,cs),
(334,581,o),
(373,562,o),
(399,531,c),
(445,582,l),
(409,621,o),
(360,650,o),
(291,650,cs),
(164,650,o),
(48,551,o),
(48,295,cs),
(48,90,o),
(143,-12,o),
(268,-12,cs)
);
}
);
width = 497.024;
}
);
unicode = 54;
}
{
color = 3;
glyphname = seven;
layers = (
{
layerId = "42B3044F-4D5A-45CA-9EB7-C1889731596B";
shapes = (
{
closed = 1;
nodes = (
(314,0,l),
(326,247,o),
(348,354,o),
(498,528,c),
(498,634,l),
(44,634,l),
(44,490,l),
(316,490,l),
(194,324,o),
(154,200,o),
(142,0,c)
);
}
);
width = 540;
},
{
layerId = "0CAB57D4-4FC4-49C3-B456-FB7666EAA712";
shapes = (
{
closed = 1;
nodes = (
(222,0,l),
(232,250,o),
(274,416,o),
(430,622,c),
(430,640,l),
(44,640,l),
(44,612,l),
(390,612,l),
(256,430,o),
(198,264,o),
(188,0,c)
);
}
);
width = 472;
},
{
layerId = master01;
shapes = (
{
closed = 1;
nodes = (
(256,0,l),
(267,249,o),
(301,393,o),
(455,587,c),
(455,638,l),
(44,638,l),
(44,567,l),
(363,567,l),
(233,391,o),
(182,240,o),
(171,0,c)
);
}
);
width = 497.024;
}
);
unicode = 55;
}
{
color = 3;
glyphname = eight;
layers = (
{
layerId = "42B3044F-4D5A-45CA-9EB7-C1889731596B";
shapes = (
{
closed = 1;
nodes = (
(407,-12,o),
(500,64,o),
(500,166,cs),
(500,250,o),
(453,300,o),
(391,333,c),
(391,337,l),
(436,366,o),
(472,412,o),
(472,470,cs),
(472,578,o),
(392,646,o),
(274,646,cs),
(150,646,o),
(62,578,o),
(62,466,cs),
(62,400,o),
(96,354,o),
(146,316,c),
(146,312,l),
(86,280,o),
(42,236,o),
(42,162,cs),
(42,58,o),
(139,-12,o),
(268,-12,cs)
);
},
{
closed = 1;
nodes = (
(246,402,o),
(212,424,o),
(212,466,cs),
(212,510,o),
(239,528,o),
(270,528,cs),
(310,528,o),
(334,502,o),
(334,458,cs),
(334,430,o),
(324,404,o),
(306,378,c)
);
},
{
closed = 1;
nodes = (
(228,106,o),
(189,132,o),
(189,182,cs),
(189,214,o),
(203,246,o),
(222,268,c),
(297,236,o),
(341,218,o),
(341,172,cs),
(341,124,o),
(310,106,o),
(272,106,cs)
);
}
);
width = 540;
},
{
layerId = "0CAB57D4-4FC4-49C3-B456-FB7666EAA712";
shapes = (
{
closed = 1;
nodes = (
(354,-12,o),
(430,62,o),
(430,154,cs),
(430,240,o),
(372,282,o),
(318,316,c),
(318,320,l),
(354,350,o),
(410,414,o),
(410,486,cs),
(410,580,o),
(348,652,o),
(240,652,cs),
(150,652,o),
(78,588,o),
(78,498,cs),
(78,430,o),
(124,382,o),
(170,352,c),
(170,348,l),
(110,316,o),
(40,252,o),
(40,164,cs),
(40,64,o),
(124,-12,o),
(240,-12,cs)
);
},
{
closed = 1;
nodes = (
(202,364,o),
(110,402,o),
(110,498,cs),
(110,570,o),
(164,624,o),
(240,624,cs),
(328,624,o),
(378,560,o),
(378,486,cs),
(378,428,o),
(346,376,o),
(288,330,c)
);
},
{
closed = 1;
nodes = (
(142,16,o),
(72,82,o),
(72,164,cs),
(72,238,o),
(124,294,o),
(194,334,c),
(296,294,o),
(398,258,o),
(398,154,cs),
(398,78,o),
(336,16,o),
(240,16,cs)
);
}
);
width = 472;
},
{
layerId = master01;
shapes = (
{
closed = 1;
nodes = (
(374,-12,o),
(456,63,o),
(456,158,cs),
(456,244,o),
(402,289,o),
(345,322,c),
(345,326,l),
(384,356,o),
(433,413,o),
(433,480,cs),
(433,579,o),
(364,650,o),
(253,650,cs),
(150,650,o),
(72,584,o),
(72,486,cs),
(72,419,o),
(114,372,o),
(161,339,c),
(161,335,l),
(101,303,o),
(41,246,o),
(41,163,cs),
(41,62,o),
(130,-12,o),
(250,-12,cs)
);
},
{
closed = 1;
nodes = (
(218,378,o),
(148,410,o),
(148,486,cs),
(148,548,o),
(192,589,o),
(251,589,cs),
(321,589,o),
(362,539,o),
(362,476,cs),
(362,429,o),
(338,386,o),
(295,348,c)
);
},
{
closed = 1;
nodes = (
(174,49,o),
(115,100,o),
(115,171,cs),
(115,229,o),
(153,276,o),
(204,310,c),
(296,273,o),
(377,243,o),
(377,161,cs),
(377,95,o),
(326,49,o),
(252,49,cs)
);
}
);
width = 497.024;
}
);
unicode = 56;
}
{
color = 3;
glyphname = nine;
layers = (
{
layerId = "42B3044F-4D5A-45CA-9EB7-C1889731596B";
shapes = (
{
closed = 1;
nodes = (
(374,-12,o),
(500,98,o),
(500,328,cs),
(500,558,o),
(374,646,o),
(252,646,cs),
(132,646,o),
(32,566,o),
(32,430,cs),
(32,294,o),
(116,234,o),
(224,234,cs),
(261,234,o),
(320,260,o),
(350,306,c),
(342,414,l),
(319,370,o),
(288,354,o),
(258,354,cs),
(222,354,o),
(188,369,o),
(188,430,cs),
(188,497,o),
(220,518,o),
(256,518,cs),
(295,518,o),
(344,486,o),
(344,328,cs),
(344,176,o),
(294,126,o),
(226,126,cs),
(190,126,o),
(150,148,o),
(130,170,c),
(40,68,l),
(82,26,o),
(148,-12,o),
(238,-12,cs)
);
}
);
width = 540;
},
{
layerId = "0CAB57D4-4FC4-49C3-B456-FB7666EAA712";
shapes = (
{
closed = 1;
nodes = (
(308,-12,o),
(418,80,o),
(418,352,cs),
(418,542,o),
(342,652,o),
(214,652,cs),
(122,652,o),
(44,568,o),
(44,454,cs),
(44,326,o),
(108,256,o),
(220,256,cs),
(284,256,o),
(344,294,o),
(390,352,c),
(390,392,l),
(334,314,o),
(270,284,o),
(222,284,cs),
(118,284,o),
(76,358,o),
(76,454,cs),
(76,548,o),
(134,624,o),
(212,624,cs),
(334,624,o),
(386,508,o),
(386,352,cs),
(386,102,o),
(294,16,o),
(188,16,cs),
(146,16,o),
(107,34,o),
(78,70,c),
(58,48,l),
(89,12,o),
(130,-12,o),
(186,-12,cs)
);
}
);
width = 472;
},
{
layerId = master01;
shapes = (
{
closed = 1;
nodes = (
(332,-12,o),
(448,87,o),
(448,343,cs),
(448,548,o),
(354,650,o),
(228,650,cs),
(126,650,o),
(40,567,o),
(40,445,cs),
(40,314,o),
(111,248,o),
(221,248,cs),
(276,248,o),
(335,281,o),
(375,335,c),
(372,400,l),
(328,335,o),
(277,310,o),
(235,310,cs),
(156,310,o),
(117,362,o),
(117,445,cs),
(117,529,o),
(166,585,o),
(228,585,cs),
(320,585,o),
(371,500,o),
(371,343,cs),
(371,129,o),
(294,56,o),
(202,56,cs),
(162,56,o),
(123,76,o),
(97,107,c),
(51,55,l),
(86,17,o),
(137,-12,o),
(205,-12,cs)
);
}
);
width = 497.024;
}
);
unicode = 57;
}
{
color = 3;
glyphname = less;
layers = (
{
layerId = "42B3044F-4D5A-45CA-9EB7-C1889731596B";
shapes = (
{
closed = 1;
nodes = (
(506,234,l),
(344,284,l),
(208,330,l),
(208,334,l),
(344,380,l),
(506,430,l),
(506,570,l),
(34,390,l),
(34,274,l),
(506,94,l)
);
}
);
width = 540;
},
{
layerId = "0CAB57D4-4FC4-49C3-B456-FB7666EAA712";
shapes = (
{
closed = 1;
nodes = (
(438,184,l),
(198,278,l),
(66,330,l),
(66,334,l),
(198,386,l),
(438,480,l),
(438,512,l),
(34,350,l),
(34,314,l),
(438,152,l)
);
}
);
width = 472;
},
{
layerId = master01;
shapes = (
{
closed = 1;
nodes = (
(463,202,l),
(252,280,l),
(118,330,l),
(118,334,l),
(252,384,l),
(463,462,l),
(463,533,l),
(34,365,l),
(34,299,l),
(463,131,l)
);
}
);
width = 497.024;
}
);
unicode = 60;
}
{
color = 3;
glyphname = greater;
layers = (
{
layerId = "42B3044F-4D5A-45CA-9EB7-C1889731596B";
shapes = (
{
closed = 1;
nodes = (
(506,274,l),
(506,390,l),
(34,570,l),
(34,430,l),
(196,380,l),
(332,334,l),
(332,330,l),
(196,284,l),
(34,234,l),
(34,94,l)
);
}
);
width = 540;
},
{
layerId = "0CAB57D4-4FC4-49C3-B456-FB7666EAA712";
shapes = (
{
closed = 1;
nodes = (
(438,314,l),
(438,350,l),
(34,512,l),
(34,480,l),
(274,386,l),
(406,334,l),
(406,330,l),
(274,278,l),
(34,184,l),
(34,152,l)
);
}
);
width = 472;
},
{
layerId = master01;
shapes = (
{
closed = 1;
nodes = (
(463,299,l),
(463,365,l),
(34,533,l),
(34,462,l),
(245,384,l),
(379,334,l),
(379,330,l),
(245,280,l),
(34,202,l),
(34,131,l)
);
}
);
width = 497.024;
}
);
unicode = 62;
}
{
color = 3;
glyphname = question;
kernLeft = question;
kernRight = question;
layers = (
{
layerId = "42B3044F-4D5A-45CA-9EB7-C1889731596B";
shapes = (
{
closed = 1;
nodes = (
(302,244,l),
(292,354,o),
(438,386,o),
(438,506,cs),
(438,632,o),
(350,682,o),
(240,682,cs),
(160,682,o),
(91,644,o),
(42,588,c),
(136,502,l),
(162,526,o),
(184,544,o),
(218,544,cs),
(248,544,o),
(274,530,o),
(274,494,cs),
(274,430,o),
(132,374,o),
(152,244,c)
);
},
{
closed = 1;
nodes = (
(284,-12,o),
(326,34,o),
(326,92,cs),
(326,150,o),
(284,196,o),
(226,196,cs),
(168,196,o),
(126,150,o),
(126,92,cs),
(126,34,o),
(168,-12,o),
(226,-12,cs)
);
}
);
width = 478;
},
{
layerId = "0CAB57D4-4FC4-49C3-B456-FB7666EAA712";
shapes = (
{
closed = 1;
nodes = (
(192,172,l),
(172,329,o),
(342,394,o),
(342,532,cs),
(342,614,o),
(288,682,o),
(192,682,cs),
(124,682,o),
(74,648,o),
(36,606,c),
(56,588,l),
(90,630,o),
(140,654,o),
(190,654,cs),
(274,654,o),
(310,594,o),
(310,530,cs),
(310,400,o),
(142,342,o),
(164,172,c)
);
},
{
closed = 1;
nodes = (
(200,-12,o),
(218,2,o),
(218,26,cs),
(218,52,o),
(200,66,o),
(182,66,cs),
(164,66,o),
(146,52,o),
(146,26,cs),
(146,2,o),
(164,-12,o),
(182,-12,cs)
);
}
);
width = 394;
},
{
layerId = master01;
shapes = (
{
closed = 1;
nodes = (
(232,198,l),
(216,338,o),
(377,391,o),
(377,522,cs),
(377,621,o),
(311,682,o),
(210,682,cs),
(137,682,o),
(80,647,o),
(38,599,c),
(85,556,l),
(116,592,o),
(156,614,o),
(200,614,cs),
(264,614,o),
(297,570,o),
(297,517,cs),
(297,411,o),
(138,354,o),
(160,198,c)
);
},
{
closed = 1;
nodes = (
(231,-12,o),
(258,14,o),
(258,50,cs),
(258,88,o),
(231,114,o),
(198,114,cs),
(165,114,o),
(139,88,o),
(139,50,cs),
(139,14,o),
(165,-12,o),
(198,-12,cs)
);
}
);
width = 424.912;
}
);
unicode = 63;
}
{
color = 3;
glyphname = at;
layers = (
{
layerId = "42B3044F-4D5A-45CA-9EB7-C1889731596B";
shapes = (
{
closed = 1;
nodes = (
(510,-178,o),
(574,-164,o),
(636,-132,c),
(600,-40,l),
(560,-60,o),
(500,-76,o),
(452,-76,cs),
(302,-76,o),
(162,12,o),
(162,210,cs),
(162,432,o),
(330,576,o),
(498,576,cs),
(700,576,o),
(770,444,o),
(770,308,cs),
(770,206,o),
(716,138,o),
(656,138,cs),
(616,138,o),
(602,162,o),
(614,212,cs),
(662,440,l),
(558,440,l),
(542,398,l),
(540,398,l),
(524,434,o),
(498,448,o),
(466,448,cs),
(352,448,o),
(260,326,o),
(260,198,cs),
(260,106,o),
(314,44,o),
(396,44,cs),
(436,44,o),
(490,70,o),
(516,110,c),
(518,110,l),
(530,62,o),
(579,34,o),
(638,34,cs),
(748,34,o),
(876,126,o),
(876,312,cs),
(876,526,o),
(734,678,o),
(512,678,cs),
(258,678,o),
(48,490,o),
(48,206,cs),
(48,-58,o),
(236,-178,o),
(438,-178,cs)
);
},
{
closed = 1;
nodes = (
(404,150,o),
(388,171,o),
(388,208,cs),
(388,262,o),
(420,340,o),
(472,340,cs),
(490,340,o),
(505,330,o),
(512,316,c),
(490,190,l),
(468,160,o),
(452,150,o),
(434,150,cs)
);
}
);
width = 924;
},
{
layerId = "0CAB57D4-4FC4-49C3-B456-FB7666EAA712";
shapes = (
{
closed = 1;
nodes = (
(450,-142,o),
(512,-124,o),
(568,-88,c),
(554,-64,l),
(506,-94,o),
(452,-114,o),
(384,-114,cs),
(202,-114,o),
(82,10,o),
(82,204,cs),
(82,444,o),
(256,600,o),
(440,600,cs),
(610,600,o),
(720,490,o),
(720,314,cs),
(720,168,o),
(638,86,o),
(574,86,cs),
(510,86,o),
(488,132,o),
(512,228,cs),
(546,412,l),
(520,412,l),
(512,372,l),
(510,372,l),
(490,404,o),
(462,420,o),
(426,420,cs),
(308,420,o),
(242,292,o),
(242,198,cs),
(242,108,o),
(294,64,o),
(354,64,cs),
(400,64,o),
(440,96,o),
(476,134,c),
(478,134,l),
(482,82,o),
(520,58,o),
(572,58,cs),
(652,58,o),
(750,148,o),
(750,316,cs),
(750,504,o),
(632,628,o),
(442,628,cs),
(236,628,o),
(52,460,o),
(52,202,cs),
(52,-14,o),
(190,-142,o),
(382,-142,cs)
);
},
{
closed = 1;
nodes = (
(310,92,o),
(272,120,o),
(272,200,cs),
(272,288,o),
(330,392,o),
(424,392,cs),
(456,392,o),
(476,380,o),
(502,340,c),
(470,162,l),
(428,114,o),
(390,92,o),
(356,92,cs)
);
}
);
width = 802;
},
{
layerId = master01;
shapes = (
{
closed = 1;
nodes = (
(472,-155,o),
(535,-139,o),
(593,-104,c),
(571,-55,l),
(526,-81,o),
(470,-100,o),
(409,-100,cs),
(239,-100,o),
(111,11,o),
(111,206,cs),
(111,440,o),
(283,591,o),
(461,591,cs),
(643,591,o),
(738,473,o),
(738,312,cs),
(738,182,o),
(667,105,o),
(604,105,cs),
(549,105,o),
(530,143,o),
(550,222,cs),
(589,422,l),
(534,422,l),
(523,382,l),
(521,382,l),
(503,415,o),
(475,430,o),
(441,430,cs),
(324,430,o),
(249,305,o),
(249,198,cs),
(249,107,o),
(301,57,o),
(369,57,cs),
(413,57,o),
(458,86,o),
(491,125,c),
(493,125,l),
(500,75,o),
(542,49,o),
(596,49,cs),
(687,49,o),
(796,140,o),
(796,315,cs),
(796,512,o),
(670,646,o),
(468,646,cs),
(244,646,o),
(51,471,o),
(51,203,cs),
(51,-30,o),
(207,-155,o),
(403,-155,cs)
);
},
{
closed = 1;
nodes = (
(345,113,o),
(315,139,o),
(315,203,cs),
(315,278,o),
(363,373,o),
(442,373,cs),
(469,373,o),
(487,362,o),
(506,331,c),
(477,172,l),
(443,131,o),
(413,113,o),
(385,113,cs)
);
}
);
width = 846.896;
}
);
unicode = 64;
}
{
color = 3;
glyphname = A;
kernLeft = A;
kernRight = A;
layers = (
{
anchors = (
{
name = aboveUC;
pos = (290,672);
},
{
name = belowLC;
pos = (290,-22);
},
{
name = ogonekUC;
pos = (494,0);
}
);
layerId = "42B3044F-4D5A-45CA-9EB7-C1889731596B";
shapes = (
{
closed = 1;
nodes = (
(166,0,l),
(240,316,ls),
(256,378,o),
(272,456,o),
(286,522,c),
(290,522,l),
(306,457,o),
(322,378,o),
(338,316,cs),
(412,0,l),
(594,0,l),
(396,650,l),
(188,650,l),
(-10,0,l)
);
},
{
closed = 1;
nodes = (
(450,138,l),
(450,271,l),
(132,271,l),
(132,138,l)
);
}
);
width = 584;
},
{
anchors = (
{
name = aboveUC;
pos = (260,682);
},
{
name = belowLC;
pos = (260,-22);
},
{
name = ogonekUC;
pos = (476,0);
}
);
layerId = "0CAB57D4-4FC4-49C3-B456-FB7666EAA712";
shapes = (
{
closed = 1;
nodes = (
(42,0,l),
(182,396,ls),
(210,476,o),
(234,544,o),
(258,626,c),
(262,626,l),
(286,544,o),
(310,476,o),
(338,396,cs),
(476,0,l),
(510,0,l),
(274,660,l),
(246,660,l),
(10,0,l)
);
},
{
closed = 1;
nodes = (
(405,236,l),
(405,264,l),
(112,264,l),
(112,236,l)
);
}
);
width = 520;
},
{
anchors = (
{
name = aboveUC;
pos = (271,678);
},
{
name = belowLC;
pos = (271,-22);
},
{
name = ogonekUC;
pos = (483,0);
}
);
layerId = master01;
shapes = (
{
closed = 1;
nodes = (
(88,0,l),
(203,367,ls),
(227,440,o),
(248,512,o),
(268,588,c),
(272,588,l),
(293,512,o),
(314,440,o),
(338,367,cs),
(452,0,l),
(541,0,l),
(319,656,l),
(225,656,l),
(3,0,l)
);
},
{
closed = 1;
nodes = (
(422,200,l),
(422,267,l),
(119,267,l),
(119,200,l)
);
}
);
width = 543.552;
}
);
unicode = 65;
}
{
color = 3;
glyphname = B;
kernLeft = H;
kernRight = B;
layers = (
{
anchors = (
{
name = aboveUC;
pos = (310,672);
},
{
name = belowLC;
pos = (320,-22);
}
);
layerId = "42B3044F-4D5A-45CA-9EB7-C1889731596B";
shapes = (
{
closed = 1;
nodes = (
(326,0,ls),
(466,0,o),
(582,60,o),
(582,200,cs),
(582,282,o),
(540,326,o),
(470,344,c),
(470,348,l),
(522,368,o),
(552,424,o),
(552,488,cs),
(552,616,o),
(442,650,o),
(306,650,cs),
(72,650,l),
(72,0,l)
);
},
{
closed = 1;
nodes = (
(244,518,l),
(302,518,ls),
(358,518,o),
(384,502,o),
(384,462,cs),
(384,422,o),
(358,396,o),
(302,396,cs),
(244,396,l)
);
},
{
closed = 1;
nodes = (
(244,270,l),
(314,270,ls),
(382,270,o),
(414,252,o),
(414,204,cs),
(414,156,o),
(382,132,o),
(314,132,cs),
(244,132,l)
);
}
);
width = 612;
},
{
anchors = (
{
name = aboveUC;
pos = (280,682);
},
{
name = belowLC;
pos = (290,-22);
}
);
layerId = "0CAB57D4-4FC4-49C3-B456-FB7666EAA712";
shapes = (
{
closed = 1;
nodes = (
(284,0,ls),
(434,0,o),
(528,66,o),
(528,192,cs),
(528,284,o),
(470,338,o),
(382,352,c),
(382,356,l),
(450,376,o),
(486,430,o),
(486,500,cs),
(486,608,o),
(404,660,o),
(272,660,cs),
(100,660,l),
(100,0,l)
);
},
{
closed = 1;
nodes = (
(132,632,l),
(258,632,ls),
(386,632,o),
(454,596,o),
(454,498,cs),
(454,416,o),
(396,366,o),
(252,366,cs),
(132,366,l)
);
},
{
closed = 1;
nodes = (
(132,338,l),
(272,338,ls),
(414,338,o),
(496,290,o),
(496,190,cs),
(496,78,o),
(410,28,o),
(272,28,cs),
(132,28,l)
);
}
);
width = 574;
},
{
anchors = (
{
name = aboveUC;
pos = (291,678);
},
{
name = belowLC;
pos = (301,-22);
}
);
layerId = master01;
shapes = (
{
closed = 1;
nodes = (
(299,0,ls),
(446,0,o),
(548,64,o),
(548,195,cs),
(548,283,o),
(496,334,o),
(414,349,c),
(414,353,l),
(476,373,o),
(510,428,o),
(510,496,cs),
(510,611,o),
(418,656,o),
(285,656,cs),
(90,656,l),
(90,0,l)
);
},
{
closed = 1;
nodes = (
(173,590,l),
(274,590,ls),
(376,590,o),
(428,561,o),
(428,485,cs),
(428,418,o),
(382,377,o),
(270,377,cs),
(173,377,l)
);
},
{
closed = 1;
nodes = (
(173,313,l),
(287,313,ls),
(402,313,o),
(466,276,o),
(466,195,cs),
(466,107,o),
(400,66,o),
(287,66,cs),
(173,66,l)
);
}
);
width = 587.984;
}
);
unicode = 66;
}
{
color = 3;
glyphname = C;
kernLeft = O;
kernRight = C;
layers = (
{
anchors = (
{
name = aboveUC;
pos = (350,672);
},
{
name = aboverightUC;
pos = (500,672);
},
{
name = baseLC;
pos = (350,0);
},
{
name = belowLC;
pos = (350,-22);
}
);
layerId = "42B3044F-4D5A-45CA-9EB7-C1889731596B";
shapes = (
{
closed = 1;
nodes = (
(438,-12,o),
(508,18,o),
(566,82,c),
(480,184,l),
(454,158,o),
(416,136,o),
(370,136,cs),
(281,136,o),
(220,204,o),
(220,326,cs),
(220,442,o),
(288,514,o),
(362,514,cs),
(406,514,o),
(438,500,o),
(470,472,c),
(560,576,l),
(514,624,o),
(444,662,o),
(358,662,cs),
(194,662,o),
(44,538,o),
(44,320,cs),
(44,98,o),
(190,-12,o),
(358,-12,cs)
);
}
);
width = 586;
},
{
anchors = (
{
name = aboveUC;
pos = (320,682);
},
{
name = aboverightUC;
pos = (460,682);
},
{
name = baseLC;
pos = (340,0);
},
{
name = belowLC;
pos = (340,-22);
}
);
layerId = "0CAB57D4-4FC4-49C3-B456-FB7666EAA712";
shapes = (
{
closed = 1;
nodes = (
(416,-12,o),
(472,24,o),
(522,82,c),
(503,99,l),
(453,43,o),
(400,18,o),
(330,18,cs),
(182,18,o),
(90,142,o),
(90,332,cs),
(90,522,o),
(182,642,o),
(334,642,cs),
(394,642,o),
(446,616,o),
(482,574,c),
(502,594,l),
(468,636,o),
(408,672,o),
(334,672,cs),
(166,672,o),
(56,540,o),
(56,332,cs),
(56,124,o),
(166,-12,o),
(328,-12,cs)
);
}
);
width = 562;
},
{
anchors = (
{
name = aboveUC;
pos = (331,678);
},
{
name = aboverightUC;
pos = (475,678);
},
{
name = baseLC;
pos = (344,0);
},
{
name = belowLC;
pos = (344,-22);
}
);
layerId = master01;
shapes = (
{
closed = 1;
nodes = (
(424,-12,o),
(485,22,o),
(538,82,c),
(495,130,l),
(453,85,o),
(406,61,o),
(345,61,cs),
(218,61,o),
(138,165,o),
(138,330,cs),
(138,493,o),
(221,595,o),
(344,595,cs),
(398,595,o),
(443,573,o),
(478,536,c),
(523,587,l),
(485,632,o),
(421,668,o),
(343,668,cs),
(176,668,o),
(52,539,o),
(52,328,cs),
(52,114,o),
(175,-12,o),
(339,-12,cs)
);
}
);
width = 570.832;
}
);
unicode = 67;
}
{
color = 3;
glyphname = D;
kernLeft = H;
kernRight = O;
layers = (
{
anchors = (
{
name = aboveUC;
pos = (330,672);
},
{
name = belowLC;
pos = (320,-22);
}
);
layerId = "42B3044F-4D5A-45CA-9EB7-C1889731596B";
shapes = (
{
closed = 1;
nodes = (
(274,0,ls),
(462,0,o),
(598,98,o),
(598,328,cs),
(598,558,o),
(462,650,o),
(264,650,cs),
(72,650,l),
(72,0,l)
);
},
{
closed = 1;
nodes = (
(244,512,l),
(254,512,ls),
(348,512,o),
(422,480,o),
(422,328,cs),
(422,176,o),
(348,138,o),
(254,138,cs),
(244,138,l)
);
}
);
width = 642;
},
{
anchors = (
{
name = aboveUC;
pos = (300,682);
},
{
name = belowLC;
pos = (290,-22);
}
);
layerId = "0CAB57D4-4FC4-49C3-B456-FB7666EAA712";
shapes = (
{
closed = 1;
nodes = (
(248,0,ls),
(452,0,o),
(544,136,o),
(544,332,cs),
(544,528,o),
(452,660,o),
(248,660,cs),
(100,660,l),
(100,0,l)
);
},
{
closed = 1;
nodes = (
(132,632,l),
(244,632,ls),
(432,632,o),
(510,506,o),
(510,332,cs),
(510,158,o),
(432,28,o),
(244,28,cs),
(132,28,l)
);
}
);
width = 600;
},
{
anchors = (
{
name = aboveUC;
pos = (311,678);
},
{
name = belowLC;
pos = (301,-22);
}
);
layerId = master01;
shapes = (
{
closed = 1;
nodes = (
(258,0,ls),
(456,0,o),
(564,122,o),
(564,331,cs),
(564,539,o),
(456,656,o),
(254,656,cs),
(90,656,l),
(90,0,l)
);
},
{
closed = 1;
nodes = (
(173,588,l),
(248,588,ls),
(401,588,o),
(478,496,o),
(478,331,cs),
(478,165,o),
(401,68,o),
(248,68,cs),
(173,68,l)
);
}
);
width = 615.456;
}
);
unicode = 68;
}
{
color = 3;
glyphname = E;
kernLeft = H;
kernRight = E;
layers = (
{
anchors = (
{
name = aboveUC;
pos = (290,672);
},
{
name = baseLC;
pos = (300,0);
},
{
name = belowLC;
pos = (300,-22);
},
{
name = ogonekUC;
pos = (406,0);
}
);
layerId = "42B3044F-4D5A-45CA-9EB7-C1889731596B";
shapes = (
{
closed = 1;
nodes = (
(502,0,l),
(502,144,l),
(244,144,l),
(244,260,l),
(456,260,l),
(456,404,l),
(244,404,l),
(244,506,l),
(492,506,l),
(492,650,l),
(72,650,l),
(72,0,l)
);
}
);
width = 556;
},
{
anchors = (
{
name = aboveUC;
pos = (290,682);
},
{
name = baseLC;
pos = (300,0);
},
{
name = belowLC;
pos = (300,-22);
},
{
name = ogonekUC;
pos = (404,0);
}
);
layerId = "0CAB57D4-4FC4-49C3-B456-FB7666EAA712";
shapes = (
{
closed = 1;
nodes = (
(464,0,l),
(464,28,l),
(132,28,l),
(132,338,l),
(402,338,l),
(402,366,l),
(132,366,l),
(132,632,l),
(454,632,l),
(454,660,l),
(100,660,l),
(100,0,l)
);
}
);
width = 510;
},
{
anchors = (
{
name = aboveUC;
pos = (290,678);
},
{
name = baseLC;
pos = (300,0);
},
{
name = belowLC;
pos = (300,-22);
},
{
name = ogonekUC;
pos = (405,0);
}
);
layerId = master01;
shapes = (
{
closed = 1;
nodes = (
(478,0,l),
(478,71,l),
(173,71,l),
(173,309,l),
(422,309,l),
(422,380,l),
(173,380,l),
(173,586,l),
(468,586,l),
(468,656,l),
(90,656,l),
(90,0,l)
);
}
);
width = 526.928;
}
);
unicode = 69;
}
{
color = 3;
glyphname = F;
kernLeft = H;
kernRight = F;
layers = (
{
anchors = (
{
name = aboveUC;
pos = (290,672);
},
{
name = belowLC;
pos = (168,-22);
}
);
layerId = "42B3044F-4D5A-45CA-9EB7-C1889731596B";
shapes = (
{
closed = 1;
nodes = (
(244,0,l),
(244,238,l),
(460,238,l),
(460,382,l),
(244,382,l),
(244,506,l),
(496,506,l),
(496,650,l),
(72,650,l),
(72,0,l)
);
}
);
width = 536;
},
{
anchors = (
{
name = aboveUC;
pos = (284,682);
},
{
name = belowLC;
pos = (116,-22);
}
);
layerId = "0CAB57D4-4FC4-49C3-B456-FB7666EAA712";
shapes = (
{
closed = 1;
nodes = (
(132,0,l),
(132,326,l),
(402,326,l),
(402,354,l),
(132,354,l),
(132,632,l),
(452,632,l),
(452,660,l),
(100,660,l),
(100,0,l)
);
}
);
width = 470;
},
{
anchors = (
{
name = aboveUC;
pos = (286,678);
},
{
name = belowLC;
pos = (135,-22);
}
);
layerId = master01;
shapes = (
{
closed = 1;
nodes = (
(173,0,l),
(173,294,l),
(423,294,l),
(423,364,l),
(173,364,l),
(173,586,l),
(468,586,l),
(468,656,l),
(90,656,l),
(90,0,l)
);
}
);
width = 494.288;
}
);
unicode = 70;
}
{
color = 3;
glyphname = G;
kernLeft = O;
kernRight = G;
layers = (
{
anchors = (
{
name = aboveUC;
pos = (370,672);
},
{
name = belowLC;
pos = (370,-22);
}
);
layerId = "42B3044F-4D5A-45CA-9EB7-C1889731596B";
shapes = (
{
closed = 1;
nodes = (
(464,-12,o),
(546,24,o),
(592,68,c),
(592,378,l),
(344,378,l),
(344,238,l),
(440,238,l),
(440,148,l),
(428,140,o),
(408,136,o),
(390,136,cs),
(274,136,o),
(220,204,o),
(220,326,cs),
(220,444,o),
(286,514,o),
(374,514,cs),
(426,514,o),
(458,500,o),
(490,472,c),
(580,576,l),
(534,624,o),
(464,662,o),
(368,662,cs),
(194,662,o),
(44,538,o),
(44,320,cs),
(44,98,o),
(190,-12,o),
(372,-12,cs)
);
}
);
width = 646;
},
{
anchors = (
{
name = aboveUC;
pos = (340,682);
},
{
name = belowLC;
pos = (340,-22);
}
);
layerId = "0CAB57D4-4FC4-49C3-B456-FB7666EAA712";
shapes = (
{
closed = 1;
nodes = (
(420,-12,o),
(486,18,o),
(526,62,c),
(526,318,l),
(330,318,l),
(330,290,l),
(494,290,l),
(494,72,l),
(460,38,o),
(400,18,o),
(336,18,cs),
(182,18,o),
(90,142,o),
(90,332,cs),
(90,522,o),
(186,642,o),
(344,642,cs),
(418,642,o),
(466,610,o),
(500,572,c),
(520,594,l),
(486,630,o),
(432,672,o),
(344,672,cs),
(170,672,o),
(56,540,o),
(56,332,cs),
(56,124,o),
(166,-12,o),
(334,-12,cs)
);
}
);
width = 600;
},
{
anchors = (
{
name = aboveUC;
pos = (351,678);
},
{
name = belowLC;
pos = (351,-22);
}
);
layerId = master01;
shapes = (
{
closed = 1;
nodes = (
(436,-12,o),
(508,20,o),
(550,64,c),
(550,340,l),
(335,340,l),
(335,271,l),
(474,271,l),
(474,100,l),
(448,76,o),
(403,61,o),
(356,61,cs),
(216,61,o),
(138,165,o),
(138,330,cs),
(138,493,o),
(223,595,o),
(355,595,cs),
(421,595,o),
(463,570,o),
(496,535,c),
(542,587,l),
(504,628,o),
(444,668,o),
(353,668,cs),
(179,668,o),
(52,539,o),
(52,328,cs),
(52,114,o),
(175,-12,o),
(348,-12,cs)
);
}
);
width = 616.928;
}
);
unicode = 71;
}
{
color = 3;
glyphname = H;
kernLeft = H;
kernRight = H;
layers = (
{
anchors = (
{
name = aboveUC;
pos = (340,672);
},
{
name = belowLC;
pos = (340,-22);
}
);
layerId = "42B3044F-4D5A-45CA-9EB7-C1889731596B";
shapes = (
{
closed = 1;
nodes = (
(244,0,l),
(244,258,l),
(438,258,l),
(438,0,l),
(610,0,l),
(610,650,l),
(438,650,l),
(438,408,l),
(244,408,l),
(244,650,l),
(72,650,l),
(72,0,l)
);
}
);
width = 682;
},
{
anchors = (
{
name = aboveUC;
pos = (316,682);
},
{
name = belowLC;
pos = (316,-22);
}
);
layerId = "0CAB57D4-4FC4-49C3-B456-FB7666EAA712";
shapes = (
{
closed = 1;
nodes = (
(132,0,l),
(132,338,l),
(502,338,l),
(502,0,l),
(534,0,l),
(534,660,l),
(502,660,l),
(502,366,l),
(132,366,l),
(132,660,l),
(100,660,l),
(100,0,l)
);
}
);
width = 634;
},
{
anchors = (
{
name = aboveUC;
pos = (325,678);
},
{
name = belowLC;
pos = (325,-22);
}
);
layerId = master01;
shapes = (
{
closed = 1;
nodes = (
(173,0,l),
(173,309,l),
(478,309,l),
(478,0,l),
(562,0,l),
(562,656,l),
(478,656,l),
(478,381,l),
(173,381,l),
(173,656,l),
(90,656,l),
(90,0,l)
);
}
);
width = 651.664;
}
);
unicode = 72;
}
{
color = 3;
glyphname = I;
kernLeft = I;
kernRight = I;
layers = (
{
anchors = (
{
name = aboveUC;
pos = (160,672);
},
{
name = belowLC;
pos = (160,-22);
},
{
name = ogonekUC;
pos = (160,0);
}
);
layerId = "42B3044F-4D5A-45CA-9EB7-C1889731596B";
shapes = (
{
closed = 1;
nodes = (
(244,0,l),
(244,650,l),
(72,650,l),
(72,0,l)
);
}
);
width = 316;
},
{
anchors = (
{
name = aboveUC;
pos = (116,682);
},
{
name = belowLC;
pos = (116,-22);
},
{
name = ogonekUC;
pos = (110,0);
}
);
layerId = "0CAB57D4-4FC4-49C3-B456-FB7666EAA712";
shapes = (
{
closed = 1;
nodes = (
(132,0,l),
(132,660,l),
(100,660,l),
(100,0,l)
);
}
);
width = 232;
},
{
anchors = (
{
name = aboveUC;
pos = (132,678);
},
{
name = belowLC;
pos = (132,-22);
},
{
name = ogonekUC;
pos = (128,0);
}
);
layerId = master01;
shapes = (
{
closed = 1;
nodes = (
(173,0,l),
(173,656,l),
(90,656,l),
(90,0,l)
);
}
);
width = 262.912;
}
);
unicode = 73;
}
{
color = 3;
glyphname = J;
kernLeft = J;
kernRight = J;
layers = (
{
anchors = (
{
name = aboveUC;
pos = (360,672);
},
{
name = belowLC;
pos = (270,-22);
}
);
layerId = "42B3044F-4D5A-45CA-9EB7-C1889731596B";
shapes = (
{
closed = 1;
nodes = (
(378,-12,o),
(452,98,o),
(452,232,cs),
(452,650,l),
(280,650,l),
(280,246,ls),
(280,160,o),
(254,136,o),
(202,136,cs),
(170,136,o),
(138,156,o),
(122,188,c),
(14,114,l),
(58,26,o),
(124,-12,o),
(220,-12,cs)
);
}
);
width = 520;
},
{
anchors = (
{
name = aboveUC;
pos = (338,682);
},
{
name = belowLC;
pos = (240,-22);
}
);
layerId = "0CAB57D4-4FC4-49C3-B456-FB7666EAA712";
shapes = (
{
closed = 1;
nodes = (
(316,-12,o),
(358,70,o),
(358,174,cs),
(358,660,l),
(326,660,l),
(326,178,ls),
(326,68,o),
(286,18,o),
(202,18,cs),
(144,18,o),
(104,40,o),
(70,98,c),
(44,82,l),
(76,22,o),
(130,-12,o),
(200,-12,cs)
);
}
);
width = 456;
},
{
anchors = (
{
name = aboveUC;
pos = (346,678);
},
{
name = belowLC;
pos = (251,-22);
}
);
layerId = master01;
shapes = (
{
closed = 1;
nodes = (
(339,-12,o),
(393,80,o),
(393,195,cs),
(393,656,l),
(309,656,l),
(309,203,ls),
(309,102,o),
(274,61,o),
(202,61,cs),
(154,61,o),
(117,83,o),
(89,131,c),
(33,94,l),
(69,23,o),
(128,-12,o),
(207,-12,cs)
);
}
);
width = 479.552;
}
);
unicode = 74;
}
{
color = 3;
glyphname = K;
kernLeft = H;
kernRight = K;
layers = (
{
anchors = (
{
name = aboveUC;
pos = (322,672);
},
{
name = aboverightUC;
pos = (530,672);
},
{
name = belowLC;
pos = (334,-22);
}
);
layerId = "42B3044F-4D5A-45CA-9EB7-C1889731596B";
shapes = (
{
closed = 1;
nodes = (
(244,0,l),
(244,162,l),
(306,250,l),
(450,0,l),
(638,0,l),
(406,386,l),
(600,650,l),
(412,650,l),
(248,408,l),
(244,408,l),
(244,650,l),
(72,650,l),
(72,0,l)
);
}
);
width = 628;
},
{
anchors = (
{
name = aboveUC;
pos = (304,682);
},
{
name = aboverightUC;
pos = (500,682);
},
{
name = belowLC;
pos = (324,-22);
}
);
layerId = "0CAB57D4-4FC4-49C3-B456-FB7666EAA712";
shapes = (
{
closed = 1;
nodes = (
(132,0,l),
(132,234,l),
(274,394,l),
(500,0,l),
(538,0,l),
(298,418,l),
(510,660,l),
(470,660,l),
(134,280,l),
(132,280,l),
(132,660,l),
(100,660,l),
(100,0,l)
);
}
);
width = 550;
},
{
anchors = (
{
name = aboveUC;
pos = (311,678);
},
{
name = aboverightUC;
pos = (511,678);
},
{
name = belowLC;
pos = (328,-22);
}
);
layerId = master01;
shapes = (
{
closed = 1;
nodes = (
(173,0,l),
(173,208,l),
(286,341,l),
(482,0,l),
(575,0,l),
(338,406,l),
(543,656,l),
(449,656,l),
(176,327,l),
(173,327,l),
(173,656,l),
(90,656,l),
(90,0,l)
);
}
);
width = 578.704;
}
);
unicode = 75;
}
{
color = 3;
glyphname = L;
kernLeft = H;
kernRight = L;
layers = (
{
anchors = (
{
name = aboveUC;
pos = (160,672);
},
{
name = belowLC;
pos = (290,-22);
},
{
name = center;
pos = (160,350);
}
);
layerId = "42B3044F-4D5A-45CA-9EB7-C1889731596B";
shapes = (
{
closed = 1;
nodes = (
(490,0,l),
(490,144,l),
(244,144,l),
(244,650,l),
(72,650,l),
(72,0,l)
);
}
);
width = 530;
},
{
anchors = (
{
name = aboveUC;
pos = (120,682);
},
{
name = belowLC;
pos = (280,-22);
},
{
name = center;
pos = (120,360);
}
);
layerId = "0CAB57D4-4FC4-49C3-B456-FB7666EAA712";
shapes = (
{
closed = 1;
nodes = (
(442,0,l),
(442,28,l),
(132,28,l),
(132,660,l),
(100,660,l),
(100,0,l)
);
}
);
width = 460;
},
{
anchors = (
{
name = aboveUC;
pos = (135,678);
},
{
name = belowLC;
pos = (284,-22);
},
{
name = center;
pos = (135,356);
}
);
layerId = master01;
shapes = (
{
closed = 1;
nodes = (
(460,0,l),
(460,71,l),
(173,71,l),
(173,656,l),
(90,656,l),
(90,0,l)
);
}
);
width = 485.76;
}
);
unicode = 76;
}
{
color = 3;
glyphname = M;
kernLeft = H;
kernRight = H;
layers = (
{
anchors = (
{
name = aboveUC;
pos = (390,672);
},
{
name = belowLC;
pos = (390,-22);
}
);
layerId = "42B3044F-4D5A-45CA-9EB7-C1889731596B";
shapes = (
{
closed = 1;
nodes = (
(226,0,l),
(226,192,ls),
(226,258,o),
(212,378,o),
(204,444,c),
(208,444,l),
(260,268,l),
(340,53,l),
(432,53,l),
(512,268,l),
(566,444,l),
(570,444,l),
(562,378,o),
(548,258,o),
(548,192,cs),
(548,0,l),
(704,0,l),
(704,650,l),
(520,650,l),
(426,384,l),
(414,348,o),
(404,308,o),
(392,270,c),
(388,270,l),
(376,308,o),
(366,348,o),
(354,384,c),
(256,650,l),
(72,650,l),
(72,0,l)
);
}
);
width = 776;
},
{
anchors = (
{
name = aboveUC;
pos = (350,682);
},
{
name = belowLC;
pos = (350,-22);
}
);
layerId = "0CAB57D4-4FC4-49C3-B456-FB7666EAA712";
shapes = (
{
closed = 1;
nodes = (
(130,0,l),
(130,460,ls),
(130,512,o),
(128,578,o),
(126,632,c),
(130,632,l),
(182,486,l),
(332,74,l),
(366,74,l),
(515,486,l),
(566,632,l),
(570,632,l),
(568,578,o),
(566,512,o),
(566,460,cs),
(566,0,l),
(598,0,l),
(598,660,l),
(546,660,l),
(404,260,l),
(386,210,o),
(370,160,o),
(352,110,c),
(348,110,l),
(330,160,o),
(312,210,o),
(294,260,c),
(152,660,l),
(100,660,l),
(100,0,l)
);
}
);
width = 698;
},
{
anchors = (
{
name = aboveUC;
pos = (365,678);
},
{
name = belowLC;
pos = (365,-22);
}
);
layerId = master01;
shapes = (
{
closed = 1;
nodes = (
(165,0,l),
(165,361,ls),
(165,419,o),
(159,504,o),
(155,563,c),
(159,563,l),
(211,406,l),
(335,66,l),
(390,66,l),
(514,406,l),
(566,563,l),
(570,563,l),
(566,504,o),
(559,419,o),
(559,361,cs),
(559,0,l),
(637.008,0,l),
(637,656,l),
(536,656,l),
(412,306,l),
(396,261,o),
(383,214,o),
(367,169,c),
(363,169,l),
(347,214,o),
(332,261,o),
(316,306,c),
(190,656,l),
(90,656,l),
(90,0,l)
);
}
);
width = 726.704;
}
);
unicode = 77;
}
{
color = 3;
glyphname = N;
kernLeft = H;
kernRight = H;
layers = (
{
anchors = (
{
name = aboveUC;
pos = (340,672);
},
{
name = belowLC;
pos = (350,-22);
}
);
layerId = "42B3044F-4D5A-45CA-9EB7-C1889731596B";
shapes = (
{
closed = 1;
nodes = (
(236,0,l),
(236,188,ls),
(236,268,o),
(222,362,o),
(214,436,c),
(218,436,l),
(238,386,o),
(258,334,o),
(280,290,cs),
(424,0,l),
(600,0,l),
(600,650,l),
(436,650,l),
(436,462,ls),
(436,382,o),
(450,284,o),
(458,214,c),
(454,214,l),
(434,264,o),
(414,316,o),
(392,360,cs),
(248,650,l),
(72,650,l),
(72,0,l)
);
}
);
width = 672;
},
{
anchors = (
{
name = aboveUC;
pos = (330,682);
},
{
name = belowLC;
pos = (320,-22);
}
);
layerId = "0CAB57D4-4FC4-49C3-B456-FB7666EAA712";
shapes = (
{
closed = 1;
nodes = (
(130,0,l),
(130,434,ls),
(130,496,o),
(128,552,o),
(126,614,c),
(130,614,l),
(154,572,o),
(180,528,o),
(206,484,cs),
(498,0,l),
(532,0,l),
(532,660,l),
(502,660,l),
(502,232,ls),
(502,170,o),
(504,110,o),
(506,46,c),
(502,46,l),
(478,88,o),
(452,132,o),
(426,176,cs),
(134,660,l),
(100,660,l),
(100,0,l)
);
}
);
width = 632;
},
{
anchors = (
{
name = aboveUC;
pos = (334,678);
},
{
name = belowLC;
pos = (331,-22);
}
);
layerId = master01;
shapes = (
{
closed = 1;
nodes = (
(169.008,0,l),
(169,343,ls),
(169,412,o),
(163,482,o),
(158,548,c),
(162,548,l),
(185,504,o),
(209,457,o),
(233,413,cs),
(471,0,l),
(557,0,l),
(557,656,l),
(478,656,l),
(478,317,ls),
(478,248,o),
(484,174,o),
(488,108,c),
(484,108,l),
(462,153,o),
(438,200,o),
(413,244,cs),
(176,656,l),
(90,656,l),
(90,0,l)
);
}
);
width = 646.72;
}
);
unicode = 78;
}
{
color = 3;
glyphname = O;
kernLeft = O;
kernRight = O;
layers = (
{
anchors = (
{
name = aboveUC;
pos = (346,672);
},
{
name = aboverightUC;
pos = (610,672);
},
{
name = belowLC;
pos = (346,-22);
},
{
name = hornLC;
pos = (490,640);
},
{
name = ogonekUC;
pos = (346,0);
}
);
layerId = "42B3044F-4D5A-45CA-9EB7-C1889731596B";
shapes = (
{
closed = 1;
nodes = (
(526,-12,o),
(648,114,o),
(648,328,cs),
(648,541,o),
(526,662,o),
(346,662,cs),
(166,662,o),
(44,542,o),
(44,328,cs),
(44,114,o),
(166,-12,o),
(346,-12,cs)
);
},
{
closed = 1;
nodes = (
(268,136,o),
(220,210,o),
(220,328,cs),
(220,446,o),
(268,514,o),
(346,514,cs),
(424,514,o),
(472,446,o),
(472,328,cs),
(472,210,o),
(424,136,o),
(346,136,cs)
);
}
);
width = 692;
},
{
anchors = (
{
name = aboveUC;
pos = (324,682);
},
{
name = aboverightUC;
pos = (510,682);
},
{
name = belowLC;
pos = (324,-22);
},
{
name = hornLC;
pos = (456,652);
},
{
name = ogonekUC;
pos = (324,0);
}
);
layerId = "0CAB57D4-4FC4-49C3-B456-FB7666EAA712";
shapes = (
{
closed = 1;
nodes = (
(480,-12,o),
(592,124,o),
(592,332,cs),
(592,540,o),
(480,672,o),
(324,672,cs),
(168,672,o),
(56,540,o),
(56,332,cs),
(56,124,o),
(168,-12,o),
(324,-12,cs)
);
},
{
closed = 1;
nodes = (
(184,18,o),
(90,142,o),
(90,332,cs),
(90,522,o),
(184,642,o),
(324,642,cs),
(464,642,o),
(558,522,o),
(558,332,cs),
(558,142,o),
(464,18,o),
(324,18,cs)
);
}
);
width = 648;
},
{
anchors = (
{
name = aboveUC;
pos = (332,678);
},
{
name = aboverightUC;
pos = (547,678);
},
{
name = belowLC;
pos = (332,-22);
},
{
name = hornLC;
pos = (469,648);
},
{
name = ogonekUC;
pos = (332,0);
}
);
layerId = master01;
shapes = (
{
closed = 1;
nodes = (
(497,-12,o),
(613,120,o),
(613,331,cs),
(613,540,o),
(497,668,o),
(332,668,cs),
(167,668,o),
(52,541,o),
(52,331,cs),
(52,120,o),
(167,-12,o),
(332,-12,cs)
);
},
{
closed = 1;
nodes = (
(215,61,o),
(138,167,o),
(138,331,cs),
(138,494,o),
(215,595,o),
(332,595,cs),
(449,595,o),
(526,494,o),
(526,331,cs),
(526,167,o),
(449,61,o),
(332,61,cs)
);
}
);
width = 664.192;
}
);
unicode = 79;
}
{
color = 3;
glyphname = P;
kernLeft = H;
kernRight = P;
layers = (
{
anchors = (
{
name = aboveUC;
pos = (320,672);
},
{
name = aboverightUC;
pos = (500,672);
},
{
name = belowLC;
pos = (170,-22);
}
);
layerId = "42B3044F-4D5A-45CA-9EB7-C1889731596B";
shapes = (
{
closed = 1;
nodes = (
(244,0,l),
(244,206,l),
(314,206,ls),
(450,206,o),
(574,275,o),
(574,434,cs),
(574,598,o),
(452,650,o),
(310,650,cs),
(72,650,l),
(72,0,l)
);
},
{
closed = 1;
nodes = (
(244,514,l),
(302,514,ls),
(368,514,o),
(406,492,o),
(406,434,cs),
(406,376,o),
(374,342,o),
(306,342,cs),
(244,342,l)
);
}
);
width = 608;
},
{
anchors = (
{
name = aboveUC;
pos = (290,682);
},
{
name = aboverightUC;
pos = (460,682);
},
{
name = belowLC;
pos = (118,-22);
}
);
layerId = "0CAB57D4-4FC4-49C3-B456-FB7666EAA712";
shapes = (
{
closed = 1;
nodes = (
(132,0,l),
(132,292,l),
(262,292,ls),
(410,292,o),
(494,354,o),
(494,480,cs),
(494,612,o),
(408,660,o),
(258,660,cs),
(100,660,l),
(100,0,l)
);
},
{
closed = 1;
nodes = (
(132,632,l),
(246,632,ls),
(390,632,o),
(460,596,o),
(460,480,cs),
(460,366,o),
(392,320,o),
(250,320,cs),
(132,320,l)
);
}
);
width = 542;
},
{
anchors = (
{
name = aboveUC;
pos = (301,678);
},
{
name = aboverightUC;
pos = (475,678);
},
{
name = belowLC;
pos = (137,-22);
}
);
layerId = master01;
shapes = (
{
closed = 1;
nodes = (
(173,0,l),
(173,260,l),
(281,260,ls),
(425,260,o),
(523,325,o),
(523,463,cs),
(523,607,o),
(424,656,o),
(277,656,cs),
(90,656,l),
(90,0,l)
);
},
{
closed = 1;
nodes = (
(173,589,l),
(267,589,ls),
(382,589,o),
(440,558,o),
(440,463,cs),
(440,370,o),
(385,328,o),
(271,328,cs),
(173,328,l)
);
}
);
width = 566.288;
}
);
unicode = 80;
}
{
color = 3;
glyphname = Q;
kernLeft = O;
kernRight = O;
layers = (
{
anchors = (
{
name = aboveUC;
pos = (346,672);
},
{
name = belowLC;
pos = (330,-182);
}
);
layerId = "42B3044F-4D5A-45CA-9EB7-C1889731596B";
shapes = (
{
closed = 1;
nodes = (
(526,-12,o),
(648,114,o),
(648,328,cs),
(648,541,o),
(526,662,o),
(346,662,cs),
(166,662,o),
(44,542,o),
(44,328,cs),
(44,114,o),
(166,-12,o),
(346,-12,cs)
);
},
{
closed = 1;
nodes = (
(268,128,o),
(220,200,o),
(220,328,cs),
(220,446,o),
(268,514,o),
(346,514,cs),
(424,514,o),
(472,446,o),
(472,328,cs),
(472,200,o),
(424,128,o),
(346,128,cs)
);
},
{
closed = 1;
nodes = (
(621,-188,o),
(664,-178,o),
(690,-164,c),
(660,-42,l),
(640,-48,o),
(614,-52,o),
(586,-52,cs),
(530,-52,o),
(462,-34,o),
(438,24,c),
(264,6,l),
(312,-106,o),
(416,-188,o),
(566,-188,cs)
);
}
);
width = 692;
},
{
anchors = (
{
name = aboveUC;
pos = (324,682);
},
{
name = belowLC;
pos = (324,-142);
}
);
layerId = "0CAB57D4-4FC4-49C3-B456-FB7666EAA712";
shapes = (
{
closed = 1;
nodes = (
(480,-12,o),
(592,124,o),
(592,332,cs),
(592,540,o),
(480,672,o),
(324,672,cs),
(168,672,o),
(56,540,o),
(56,332,cs),
(56,124,o),
(168,-12,o),
(324,-12,cs)
);
},
{
closed = 1;
nodes = (
(184,16,o),
(90,142,o),
(90,332,cs),
(90,522,o),
(184,642,o),
(324,642,cs),
(464,642,o),
(558,522,o),
(558,332,cs),
(558,142,o),
(464,16,o),
(324,16,cs)
);
},
{
closed = 1;
nodes = (
(544,-152,o),
(574,-146,o),
(590,-140,c),
(582,-112,l),
(566,-116,o),
(546,-120,o),
(516,-120,cs),
(426,-120,o),
(364,-76,o),
(336,0,c),
(300,0,l),
(328,-86,o),
(402,-152,o),
(514,-152,cs)
);
}
);
width = 648;
},
{
anchors = (
{
name = aboveUC;
pos = (332,678);
},
{
name = belowLC;
pos = (326,-157);
}
);
layerId = master01;
shapes = (
{
closed = 1;
nodes = (
(497,-12,o),
(613,120,o),
(613,331,cs),
(613,540,o),
(497,668,o),
(332,668,cs),
(167,668,o),
(52,541,o),
(52,331,cs),
(52,120,o),
(167,-12,o),
(332,-12,cs)
);
},
{
closed = 1;
nodes = (
(215,57,o),
(138,163,o),
(138,331,cs),
(138,494,o),
(215,595,o),
(332,595,cs),
(449,595,o),
(526,494,o),
(526,331,cs),
(526,163,o),
(449,57,o),
(332,57,cs)
);
},
{
closed = 1;
nodes = (
(572,-165,o),
(607,-158,o),
(627,-149,c),
(611,-86,l),
(593,-91,o),
(571,-95,o),
(542,-95,cs),
(464,-95,o),
(400,-61,o),
(374,9,c),
(287,2,l),
(322,-93,o),
(407,-165,o),
(533,-165,cs)
);
}
);
width = 664.192;
}
);
unicode = 81;
}
{
color = 3;
glyphname = R;
kernLeft = H;
kernRight = R;
layers = (
{
anchors = (
{
name = aboveUC;
pos = (316,672);
},
{
name = belowLC;
pos = (334,-22);
}
);
layerId = "42B3044F-4D5A-45CA-9EB7-C1889731596B";
shapes = (
{
closed = 1;
nodes = (
(244,0,l),
(244,218,l),
(318,218,ls),
(458,218,o),
(578,283,o),
(578,440,cs),
(578,602,o),
(458,650,o),
(318,650,cs),
(72,650,l),
(72,0,l)
);
},
{
closed = 1;
nodes = (
(244,514,l),
(306,514,ls),
(374,514,o),
(410,496,o),
(410,440,cs),
(410,384,o),
(374,354,o),
(306,354,cs),
(244,354,l)
);
},
{
closed = 1;
nodes = (
(614,0,l),
(403,377,l),
(287,263,l),
(422,0,l)
);
}
);
width = 630;
},
{
anchors = (
{
name = aboveUC;
pos = (282,682);
},
{
name = belowLC;
pos = (296,-22);
}
);
layerId = "0CAB57D4-4FC4-49C3-B456-FB7666EAA712";
shapes = (
{
closed = 1;
nodes = (
(132,0,l),
(132,312,l),
(282,312,ls),
(412,312,o),
(494,374,o),
(494,490,cs),
(494,612,o),
(412,660,o),
(282,660,cs),
(100,660,l),
(100,0,l)
);
},
{
closed = 1;
nodes = (
(132,632,l),
(270,632,ls),
(392,632,o),
(460,594,o),
(460,490,cs),
(460,388,o),
(392,340,o),
(270,340,cs),
(132,340,l)
);
},
{
closed = 1;
nodes = (
(504,0,l),
(310,324,l),
(274,322,l),
(466,0,l)
);
}
);
width = 534;
},
{
anchors = (
{
name = aboveUC;
pos = (295,678);
},
{
name = belowLC;
pos = (310,-22);
}
);
layerId = master01;
shapes = (
{
closed = 1;
nodes = (
(173,0,l),
(173,277,l),
(295,277,ls),
(429,277,o),
(525,341,o),
(525,472,cs),
(525,608,o),
(429,656,o),
(295,656,cs),
(90,656,l),
(90,0,l)
);
},
{
closed = 1;
nodes = (
(173,589,l),
(283,589,ls),
(385,589,o),
(442,558,o),
(442,472,cs),
(442,387,o),
(385,345,o),
(283,345,cs),
(173,345,l)
);
},
{
closed = 1;
nodes = (
(544,0,l),
(344,344,l),
(279,300,l),
(450,0,l)
);
}
);
width = 569.328;
}
);
unicode = 82;
}
{
color = 3;
glyphname = S;
kernLeft = S;
kernRight = S;
layers = (
{
anchors = (
{
name = aboveUC;
pos = (300,672);
},
{
name = baseLC;
pos = (282,0);
},
{
name = belowLC;
pos = (282,-22);
}
);
layerId = "42B3044F-4D5A-45CA-9EB7-C1889731596B";
shapes = (
{
closed = 1;
nodes = (
(440,-12,o),
(532,86,o),
(532,196,cs),
(532,286,o),
(486,342,o),
(405,374,cs),
(326,405,ls),
(267,428,o),
(230,439,o),
(230,470,cs),
(230,499,o),
(256,514,o),
(298,514,cs),
(336,514,o),
(380,498,o),
(424,468,c),
(514,580,l),
(455,634,o),
(376,662,o),
(298,662,cs),
(156,662,o),
(56,571,o),
(56,460,cs),
(56,366,o),
(117,307,o),
(187,278,cs),
(268,245,ls),
(323,223,o),
(356,213,o),
(356,182,cs),
(356,153,o),
(334,136,o),
(282,136,cs),
(230,136,o),
(168,156,o),
(122,194,c),
(32,82,l),
(102,16,o),
(192,-12,o),
(278,-12,cs)
);
}
);
width = 564;
},
{
anchors = (
{
name = aboveUC;
pos = (268,682);
},
{
name = baseLC;
pos = (268,0);
},
{
name = belowLC;
pos = (268,-22);
}
);
layerId = "0CAB57D4-4FC4-49C3-B456-FB7666EAA712";
shapes = (
{
closed = 1;
nodes = (
(394,-12,o),
(474,62,o),
(474,162,cs),
(474,264,o),
(410,302,o),
(334,336,cs),
(232,382,ls),
(185,403,o),
(116,434,o),
(116,516,cs),
(116,592,o),
(178,642,o),
(270,642,cs),
(339,642,o),
(392,614,o),
(432,574,c),
(450,594,l),
(412,635,o),
(350,672,o),
(270,672,cs),
(162,672,o),
(84,608,o),
(84,514,cs),
(84,418,o),
(160,378,o),
(218,352,cs),
(320,306,ls),
(386,276,o),
(442,248,o),
(442,160,cs),
(442,76,o),
(374,18,o),
(268,18,cs),
(188,18,o),
(117,53,o),
(70,108,c),
(48,88,l),
(98,30,o),
(170,-12,o),
(268,-12,cs)
);
}
);
width = 516;
},
{
anchors = (
{
name = aboveUC;
pos = (280,678);
},
{
name = baseLC;
pos = (273,0);
},
{
name = belowLC;
pos = (273,-22);
}
);
layerId = master01;
shapes = (
{
closed = 1;
nodes = (
(411,-12,o),
(495,71,o),
(495,175,cs),
(495,272,o),
(438,317,o),
(360,350,cs),
(267,390,ls),
(215,412,o),
(158,436,o),
(158,499,cs),
(158,558,o),
(207,595,o),
(280,595,cs),
(338,595,o),
(388,571,o),
(429,535,c),
(474,589,l),
(428,635,o),
(360,668,o),
(280,668,cs),
(160,668,o),
(74,594,o),
(74,494,cs),
(74,399,o),
(144,352,o),
(207,325,cs),
(301,284,ls),
(363,256,o),
(410,235,o),
(410,168,cs),
(410,104,o),
(359,61,o),
(273,61,cs),
(203,61,o),
(136,91,o),
(89,140,c),
(42,86,l),
(99,25,o),
(178,-12,o),
(272,-12,cs)
);
}
);
width = 533.664;
}
);
unicode = 83;
}
{
color = 3;
glyphname = T;
kernLeft = T;
kernRight = T;
layers = (
{
anchors = (
{
name = aboveUC;
pos = (280,672);
},
{
name = aboverightUC;
pos = (460,672);
},
{
name = baseLC;
pos = (280,0);
},
{
name = belowLC;
pos = (280,-22);
}
);
layerId = "42B3044F-4D5A-45CA-9EB7-C1889731596B";
shapes = (
{
closed = 1;
nodes = (
(368,0,l),
(368,506,l),
(540,506,l),
(540,650,l),
(24,650,l),
(24,506,l),
(196,506,l),
(196,0,l)
);
}
);
width = 564;
},
{
anchors = (
{
name = aboveUC;
pos = (260,682);
},
{
name = aboverightUC;
pos = (460,682);
},
{
name = baseLC;
pos = (260,0);
},
{
name = belowLC;
pos = (260,-22);
}
);
layerId = "0CAB57D4-4FC4-49C3-B456-FB7666EAA712";
shapes = (
{
closed = 1;
nodes = (
(276,0,l),
(276,632,l),
(490,632,l),
(490,660,l),
(30,660,l),
(30,632,l),
(244,632,l),
(244,0,l)
);
}
);
width = 520;
},
{
anchors = (
{
name = aboveUC;
pos = (267,678);
},
{
name = aboverightUC;
pos = (460,678);
},
{
name = baseLC;
pos = (267,0);
},
{
name = belowLC;
pos = (267,-22);
}
);
layerId = master01;
shapes = (
{
closed = 1;
nodes = (
(310,0,l),
(310,586,l),
(508,586,l),
(508,656,l),
(28,656,l),
(28,586,l),
(226,586,l),
(226,0,l)
);
}
);
width = 536.192;
}
);
unicode = 84;
}
{
color = 3;
glyphname = U;
kernLeft = U;
kernRight = U;
layers = (
{
anchors = (
{
name = aboveUC;
pos = (336,672);
},
{
name = belowLC;
pos = (336,-22);
},
{
name = hornLC;
pos = (552,660);
},
{
name = ogonekUC;
pos = (336,0);
}
);
layerId = "42B3044F-4D5A-45CA-9EB7-C1889731596B";
shapes = (
{
closed = 1;
nodes = (
(520,-12,o),
(604,89,o),
(604,304,cs),
(604,650,l),
(438,650,l),
(438,284,ls),
(438,175,o),
(406,136,o),
(338,136,cs),
(270,136,o),
(240,175,o),
(240,284,cs),
(240,650,l),
(68,650,l),
(68,304,ls),
(68,89,o),
(156,-12,o),
(338,-12,cs)
);
}
);
width = 672;
},
{
anchors = (
{
name = aboveUC;
pos = (314,682);
},
{
name = belowLC;
pos = (314,-22);
},
{
name = hornLC;
pos = (510,672);
},
{
name = ogonekUC;
pos = (314,0);
}
);
layerId = "0CAB57D4-4FC4-49C3-B456-FB7666EAA712";
shapes = (
{
closed = 1;
nodes = (
(420,-12,o),
(532,42,o),
(532,246,cs),
(532,660,l),
(502,660,l),
(502,254,ls),
(502,72,o),
(412,18,o),
(314,18,cs),
(218,18,o),
(130,72,o),
(130,254,cs),
(130,660,l),
(98,660,l),
(98,246,ls),
(98,42,o),
(208,-12,o),
(314,-12,cs)
);
}
);
width = 630;
},
{
anchors = (
{
name = aboveUC;
pos = (322,678);
},
{
name = belowLC;
pos = (322,-22);
},
{
name = hornLC;
pos = (525,668);
},
{
name = ogonekUC;
pos = (322,0);
}
);
layerId = master01;
shapes = (
{
closed = 1;
nodes = (
(457,-12,o),
(558,59,o),
(558,267,cs),
(558,656,l),
(478,656,l),
(478,265,ls),
(478,110,o),
(410,61,o),
(323,61,cs),
(237,61,o),
(170,110,o),
(170,265,cs),
(170,656,l),
(87,656,l),
(87,267,ls),
(87,59,o),
(189,-12,o),
(323,-12,cs)
);
}
);
width = 645.456;
}
);
unicode = 85;
}
{
color = 3;
glyphname = V;
kernLeft = V;
kernRight = V;
layers = (
{
anchors = (
{
name = aboveUC;
pos = (286,672);
},
{
name = belowLC;
pos = (282,-22);
}
);
layerId = "42B3044F-4D5A-45CA-9EB7-C1889731596B";
shapes = (
{
closed = 1;
nodes = (
(386,0,l),
(582,650,l),
(406,650,l),
(336,366,ls),
(319,297,o),
(306,230,o),
(288,160,c),
(284,160,l),
(266,230,o),
(252,297,o),
(236,366,cs),
(172,650,l),
(-10,650,l),
(178,0,l)
);
}
);
width = 572;
},
{
anchors = (
{
name = aboveUC;
pos = (240,682);
},
{
name = belowLC;
pos = (244,-22);
}
);
layerId = "0CAB57D4-4FC4-49C3-B456-FB7666EAA712";
shapes = (
{
closed = 1;
nodes = (
(254,0,l),
(476,660,l),
(444,660,l),
(312,264,ls),
(284,180,o),
(266,124,o),
(240,42,c),
(236,42,l),
(210,124,o),
(190,180,o),
(164,264,cs),
(40,660,l),
(6,660,l),
(222,0,l)
);
}
);
width = 482;
},
{
anchors = (
{
name = aboveUC;
pos = (257,678);
},
{
name = belowLC;
pos = (258,-22);
}
);
layerId = master01;
shapes = (
{
closed = 1;
nodes = (
(303,0,l),
(515,656,l),
(430,656,l),
(321,302,ls),
(297,223,o),
(281,163,o),
(258,85,c),
(254,85,l),
(231,163,o),
(213,223,o),
(190,302,cs),
(89,656,l),
(0,656,l),
(206,0,l)
);
}
);
width = 515.12;
}
);
unicode = 86;
}
{
color = 3;
glyphname = W;
kernLeft = W;
kernRight = W;
layers = (
{
anchors = (
{
name = aboveUC;
pos = (410,672);
},
{
name = aboverightUC;
pos = (740,672);
},
{
name = belowLC;
pos = (410,-22);
}
);
layerId = "42B3044F-4D5A-45CA-9EB7-C1889731596B";
shapes = (
{
closed = 1;
nodes = (
(336,0,l),
(384,258,l),
(394,308,o),
(401,362,o),
(408,410,c),
(412,410,l),
(418,362,o),
(426,308,o),
(436,258,c),
(486,0,l),
(704,0,l),
(814,650,l),
(650,650,l),
(612,366,l),
(605,300,o),
(597,231,o),
(590,162,c),
(586,162,l),
(574,231,o),
(562,301,o),
(550,366,c),
(490,650,l),
(346,650,l),
(282,366,l),
(270,299,o),
(258,230,o),
(246,162,c),
(242,162,l),
(235,230,o),
(227,298,o),
(220,366,c),
(186,650,l),
(10,650,l),
(122,0,l)
);
}
);
width = 824;
},
{
anchors = (
{
name = aboveUC;
pos = (382,682);
},
{
name = aboverightUC;
pos = (710,682);
},
{
name = belowLC;
pos = (386,-22);
}
);
layerId = "0CAB57D4-4FC4-49C3-B456-FB7666EAA712";
shapes = (
{
closed = 1;
nodes = (
(214,0,l),
(342,474,l),
(354,526,o),
(368,570,o),
(380,622,c),
(384,622,l),
(396,570,o),
(408,526,o),
(420,474,c),
(546,0,l),
(578,0,l),
(732,660,l),
(700,660,l),
(610,260,l),
(594,188,o),
(580,116,o),
(564,44,c),
(560,44,l),
(542,116,o),
(524,188,o),
(506,260,c),
(400,660,l),
(364,660,l),
(254,260,l),
(236,188,o),
(218,116,o),
(202,44,c),
(198,44,l),
(182,116,o),
(166,188,o),
(150,260,c),
(64,660,l),
(30,660,l),
(182,0,l)
);
}
);
width = 764;
},
{
anchors = (
{
name = aboveUC;
pos = (392,678);
},
{
name = aboverightUC;
pos = (721,678);
},
{
name = belowLC;
pos = (395,-22);
}
);
layerId = master01;
shapes = (
{
closed = 1;
nodes = (
(259,0,l),
(357,395,l),
(369,446,o),
(380,493,o),
(390,544,c),
(394,544,l),
(404,493,o),
(415,446,o),
(426,395,c),
(524,0,l),
(624,0,l),
(762,656,l),
(682,656,l),
(611,299,l),
(598,229,o),
(586,158,o),
(574,87,c),
(570,87,l),
(554,158,o),
(538,230,o),
(522,299,c),
(433,656,l),
(357,656,l),
(264,299,l),
(249,229,o),
(233,158,o),
(218,87,c),
(214,87,l),
(202,158,o),
(188,228,o),
(176,299,c),
(109,656,l),
(23,656,l),
(160,0,l)
);
}
);
width = 786.08;
}
);
unicode = 87;
}
{
color = 3;
glyphname = X;
kernLeft = X;
kernRight = X;
layers = (
{
anchors = (
{
name = aboveUC;
pos = (294,672);
},
{
name = belowLC;
pos = (282,-22);
}
);
layerId = "42B3044F-4D5A-45CA-9EB7-C1889731596B";
shapes = (
{
closed = 1;
nodes = (
(194,0,l),
(242,116,ls),
(256,150,o),
(270,184,o),
(284,224,c),
(288,224,l),
(304,184,o),
(318,150,o),
(334,116,cs),
(386,0,l),
(578,0,l),
(402,326,l),
(568,650,l),
(384,650,l),
(346,544,ls),
(334,514,o),
(320,478,o),
(306,436,c),
(302,436,l),
(284,478,o),
(270,514,o),
(256,544,cs),
(212,650,l),
(20,650,l),
(186,334,l),
(10,0,l)
);
}
);
width = 588;
},
{
anchors = (
{
name = aboveUC;
pos = (236,682);
},
{
name = belowLC;
pos = (234,-22);
}
);
layerId = "0CAB57D4-4FC4-49C3-B456-FB7666EAA712";
shapes = (
{
closed = 1;
nodes = (
(50,0,l),
(172,212,ls),
(190,244,o),
(208,276,o),
(230,316,c),
(234,316,l),
(258,276,o),
(278,244,o),
(296,212,cs),
(418,0,l),
(452,0,l),
(252,340,l),
(438,660,l),
(406,660,l),
(290,456,ls),
(272,426,o),
(260,404,o),
(240,368,c),
(236,368,l),
(214,404,o),
(200,426,o),
(182,456,cs),
(66,660,l),
(32,660,l),
(218,342,l),
(18,0,l)
);
}
);
width = 470;
},
{
anchors = (
{
name = aboveUC;
pos = (257,678);
},
{
name = belowLC;
pos = (252,-22);
}
);
layerId = master01;
shapes = (
{
closed = 1;
nodes = (
(102.992,0,l),
(198,177,ls),
(214,209,o),
(231,242,o),
(250,282,c),
(254,282,l),
(275,242,o),
(293,209,o),
(310,177,cs),
(406,0,l),
(498,0,l),
(307,335,l),
(486,656,l),
(398,656,l),
(311,488,ls),
(295,458,o),
(282,431,o),
(264,393,c),
(260,393,l),
(240,431,o),
(226,458,o),
(209,488,cs),
(120,656,l),
(28,656,l),
(206,339,l),
(15,0,l)
);
}
);
width = 513.424;
}
);
unicode = 88;
}
{
color = 3;
glyphname = Y;
kernLeft = Y;
kernRight = Y;
layers = (
{
anchors = (
{
name = aboveUC;
pos = (270,672);
},
{
name = aboverightUC;
pos = (500,672);
},
{
name = belowLC;
pos = (270,-22);
}
);
layerId = "42B3044F-4D5A-45CA-9EB7-C1889731596B";
shapes = (
{
closed = 1;
nodes = (
(358,0,l),
(358,224,l),
(554,650,l),
(374,650,l),
(326,514,l),
(309,465,o),
(292,420,o),
(275,369,c),
(271,369,l),
(254,420,o),
(238,465,o),
(222,514,c),
(174,650,l),
(-10,650,l),
(186,224,l),
(186,0,l)
);
}
);
width = 544;
},
{
anchors = (
{
name = aboveUC;
pos = (220,682);
},
{
name = aboverightUC;
pos = (430,682);
},
{
name = belowLC;
pos = (220,-22);
}
);
layerId = "0CAB57D4-4FC4-49C3-B456-FB7666EAA712";
shapes = (
{
closed = 1;
nodes = (
(234,0,l),
(234,272,l),
(432,660,l),
(400,660,l),
(294,446,l),
(272,398,o),
(246,352,o),
(220,304,c),
(216,304,l),
(190,352,o),
(168,398,o),
(144,446,c),
(38,660,l),
(4,660,l),
(202,272,l),
(202,0,l)
);
}
);
width = 436;
},
{
anchors = (
{
name = aboveUC;
pos = (238,678);
},
{
name = aboverightUC;
pos = (456,678);
},
{
name = belowLC;
pos = (238,-22);
}
);
layerId = master01;
shapes = (
{
closed = 1;
nodes = (
(280,0,l),
(280,254,l),
(477,656,l),
(390,656,l),
(306,471,l),
(286,423,o),
(263,377,o),
(240,328,c),
(236,328,l),
(214,377,o),
(194,423,o),
(173,471,c),
(88,656,l),
(-1,656,l),
(196,254,l),
(196,0,l)
);
}
);
width = 475.744;
}
);
unicode = 89;
}
{
color = 3;
glyphname = Z;
kernLeft = Z;
kernRight = Z;
layers = (
{
anchors = (
{
name = aboveUC;
pos = (284,672);
},
{
name = belowLC;
pos = (282,-22);
}
);
layerId = "42B3044F-4D5A-45CA-9EB7-C1889731596B";
shapes = (
{
closed = 1;
nodes = (
(512,0,l),
(512,144,l),
(244,144,l),
(510,546,l),
(510,650,l),
(58,650,l),
(58,506,l),
(298,506,l),
(32,104,l),
(32,0,l)
);
}
);
width = 542;
},
{
anchors = (
{
name = aboveUC;
pos = (278,682);
},
{
name = belowLC;
pos = (282,-22);
}
);
layerId = "0CAB57D4-4FC4-49C3-B456-FB7666EAA712";
shapes = (
{
closed = 1;
nodes = (
(488,0,l),
(488,28,l),
(92,28,l),
(484,642,l),
(484,660,l),
(86,660,l),
(86,632,l),
(444,632,l),
(52,18,l),
(52,0,l)
);
}
);
width = 538;
},
{
anchors = (
{
name = aboveUC;
pos = (280,678);
},
{
name = belowLC;
pos = (282,-22);
}
);
layerId = master01;
shapes = (
{
closed = 1;
nodes = (
(497,0,l),
(497,71,l),
(148,71,l),
(494,607,l),
(494,656,l),
(76,656,l),
(76,586,l),
(390,586,l),
(45,50,l),
(45,0,l)
);
}
);
width = 539.472;
}
);
unicode = 90;
}
{
color = 3;
glyphname = bracketleft;
kernRight = braceleft;
layers = (
{
layerId = "42B3044F-4D5A-45CA-9EB7-C1889731596B";
shapes = (
{
closed = 1;
nodes = (
(308,-152,l),
(308,-62,l),
(212,-62,l),
(212,618,l),
(308,618,l),
(308,708,l),
(84,708,l),
(84,-152,l)
);
}
);
width = 360;
},
{
layerId = "0CAB57D4-4FC4-49C3-B456-FB7666EAA712";
shapes = (
{
closed = 1;
nodes = (
(252,-152,l),
(252,-130,l),
(124,-130,l),
(124,686,l),
(252,686,l),
(252,708,l),
(100,708,l),
(100,-152,l)
);
}
);
width = 270;
},
{
layerId = master01;
shapes = (
{
closed = 1;
nodes = (
(273,-152,l),
(273,-105,l),
(156,-105,l),
(156,661,l),
(273,661,l),
(273,708,l),
(94,708,l),
(94,-152,l)
);
}
);
width = 303.12;
}
);
unicode = 91;
}
{
color = 3;
glyphname = backslash;
layers = (
{
layerId = "42B3044F-4D5A-45CA-9EB7-C1889731596B";
shapes = (
{
closed = 1;
nodes = (
(320,-160,l),
(144,710,l),
(34,710,l),
(210,-160,l)
);
}
);
width = 334;
},
{
layerId = "0CAB57D4-4FC4-49C3-B456-FB7666EAA712";
shapes = (
{
closed = 1;
nodes = (
(352,-160,l),
(32,710,l),
(2,710,l),
(322,-160,l)
);
}
);
width = 360;
},
{
layerId = master01;
shapes = (
{
closed = 1;
nodes = (
(340,-160,l),
(73,710,l),
(14,710,l),
(281,-160,l)
);
}
);
width = 350.432;
}
);
unicode = 92;
}
{
color = 3;
glyphname = bracketright;
kernLeft = braceright;
layers = (
{
layerId = "42B3044F-4D5A-45CA-9EB7-C1889731596B";
shapes = (
{
closed = 1;
nodes = (
(276,-152,l),
(276,708,l),
(52,708,l),
(52,618,l),
(148,618,l),
(148,-62,l),
(52,-62,l),
(52,-152,l)
);
}
);
width = 360;
},
{
layerId = "0CAB57D4-4FC4-49C3-B456-FB7666EAA712";
shapes = (
{
closed = 1;
nodes = (
(170,-152,l),
(170,708,l),
(18,708,l),
(18,686,l),
(146,686,l),
(146,-130,l),
(18,-130,l),
(18,-152,l)
);
}
);
width = 270;
},
{
layerId = master01;
shapes = (
{
closed = 1;
nodes = (
(209.008,-152,l),
(209.008,708,l),
(31,708,l),
(31,661,l),
(147,661,l),
(147,-105,l),
(31,-105,l),
(31,-152,l)
);
}
);
width = 303.12;
}
);
unicode = 93;
}
{
color = 3;
glyphname = asciicircum;
layers = (
{
layerId = "42B3044F-4D5A-45CA-9EB7-C1889731596B";
shapes = (
{
closed = 1;
nodes = (
(186,270,l),
(224,380,l),
(268,516,l),
(272,516,l),
(316,380,l),
(354,270,l),
(494,270,l),
(338,670,l),
(202,670,l),
(46,270,l)
);
}
);
width = 540;
},
{
layerId = "0CAB57D4-4FC4-49C3-B456-FB7666EAA712";
shapes = (
{
closed = 1;
nodes = (
(100,292,l),
(182,506,l),
(234,638,l),
(238,638,l),
(290,506,l),
(372,292,l),
(404,292,l),
(254,670,l),
(218,670,l),
(68,292,l)
);
}
);
width = 472;
},
{
layerId = master01;
shapes = (
{
closed = 1;
nodes = (
(132,284,l),
(197,460,l),
(247,593,l),
(251,593,l),
(300,460,l),
(365,284,l),
(437,284,l),
(285,670,l),
(212,670,l),
(60,284,l)
);
}
);
width = 497.024;
}
);
unicode = 94;
}
{
color = 3;
glyphname = underscore;
layers = (
{
layerId = "42B3044F-4D5A-45CA-9EB7-C1889731596B";
shapes = (
{
closed = 1;
nodes = (
(488,-146,l),
(488,-52,l),
(12,-52,l),
(12,-146,l)
);
}
);
width = 500;
},
{
layerId = "0CAB57D4-4FC4-49C3-B456-FB7666EAA712";
shapes = (
{
closed = 1;
nodes = (
(488,-114,l),
(488,-82,l),
(12,-82,l),
(12,-114,l)
);
}
);
width = 500;
},
{
layerId = master01;
shapes = (
{
closed = 1;
nodes = (
(488,-126,l),
(488,-71,l),
(12,-71,l),
(12,-126,l)
);
}
);
width = 500;
}
);
unicode = 95;
}
{
color = 3;
glyphname = a;
kernLeft = a;
kernRight = a;
layers = (
{
anchors = (
{
name = aboveLC;
pos = (280,522);
},
{
name = belowLC;
pos = (260,-22);
},
{
name = ogonekLC;
pos = (380,0);
}
);
layerId = "42B3044F-4D5A-45CA-9EB7-C1889731596B";
shapes = (
{
closed = 1;
nodes = (
(242,-12,o),
(286,12,o),
(326,48,c),
(330,48,l),
(342,0,l),
(482,0,l),
(482,278,ls),
(482,442,o),
(404,512,o),
(274,512,cs),
(196,512,o),
(124,488,o),
(54,446,c),
(114,336,l),
(166,364,o),
(204,376,o),
(240,376,cs),
(284,376,o),
(306,360,o),
(310,324,c),
(118,304,o),
(38,246,o),
(38,142,cs),
(38,60,o),
(94,-12,o),
(188,-12,cs)
);
},
{
closed = 1;
nodes = (
(218,120,o),
(202,133,o),
(202,156,cs),
(202,184,o),
(228,210,o),
(310,222,c),
(310,154,l),
(292,134,o),
(276,120,o),
(248,120,cs)
);
}
);
width = 536;
},
{
anchors = (
{
name = aboveLC;
pos = (260,502);
},
{
name = belowLC;
pos = (240,-22);
},
{
name = ogonekLC;
pos = (354,0);
}
);
layerId = "0CAB57D4-4FC4-49C3-B456-FB7666EAA712";
shapes = (
{
closed = 1;
nodes = (
(262,-12,o),
(322,24,o),
(372,64,c),
(374,64,l),
(378,0,l),
(404,0,l),
(404,310,ls),
(404,406,o),
(370,490,o),
(258,490,cs),
(180,490,o),
(114,452,o),
(84,428,c),
(100,406,l),
(130,428,o),
(188,462,o),
(256,462,cs),
(356,462,o),
(376,376,o),
(374,298,c),
(158,274,o),
(60,224,o),
(60,117,cs),
(60,26,o),
(124,-12,o),
(198,-12,cs)
);
},
{
closed = 1;
nodes = (
(142,16,o),
(92,44,o),
(92,118,cs),
(92,200,o),
(164,248,o),
(374,272,c),
(374,98,l),
(310,44,o),
(258,16,o),
(200,16,cs)
);
}
);
width = 486;
},
{
anchors = (
{
name = aboveLC;
pos = (267,509);
},
{
name = belowLC;
pos = (247,-22);
},
{
name = ogonekLC;
pos = (364,0);
}
);
layerId = master01;
shapes = (
{
closed = 1;
nodes = (
(255,-12,o),
(309,20,o),
(355,58,c),
(358,58,l),
(365,0,l),
(433,0,l),
(433,298,ls),
(433,419,o),
(383,498,o),
(264,498,cs),
(186,498,o),
(118,465,o),
(73,435,c),
(105,380,l),
(143,404,o),
(194,430,o),
(250,430,cs),
(330,430,o),
(350,370,o),
(350,308,c),
(143,285,o),
(52,232,o),
(52,126,cs),
(52,39,o),
(113,-12,o),
(194,-12,cs)
);
},
{
closed = 1;
nodes = (
(170,54,o),
(132,77,o),
(132,132,cs),
(132,194,o),
(188,234,o),
(350,254,c),
(350,119,l),
(303,77,o),
(265,54,o),
(218,54,cs)
);
}
);
width = 504.4;
}
);
unicode = 97;
}
{
color = 3;
glyphname = b;
kernLeft = l;
kernRight = o;
layers = (
{
anchors = (
{
name = aboveUC;
pos = (320,722);
},
{
name = belowLC;
pos = (290,-22);
},
{
name = center;
pos = (150,580);
}
);
layerId = "42B3044F-4D5A-45CA-9EB7-C1889731596B";
shapes = (
{
closed = 1;
nodes = (
(442,-12,o),
(544,86,o),
(544,259,cs),
(544,412,o),
(467,512,o),
(349,512,cs),
(305,512,o),
(261,494,o),
(226,462,c),
(230,534,l),
(230,696,l),
(58,696,l),
(58,0,l),
(192,0,l),
(206,54,l),
(210,54,l),
(248,10,o),
(292,-12,o),
(336,-12,cs)
);
},
{
closed = 1;
nodes = (
(272,128,o),
(250,134,o),
(230,152,c),
(230,336,l),
(252,362,o),
(272,372,o),
(298,372,cs),
(344,372,o),
(368,338,o),
(368,256,cs),
(368,160,o),
(334,128,o),
(294,128,cs)
);
}
);
width = 580;
},
{
anchors = (
{
name = aboveUC;
pos = (280,732);
},
{
name = belowLC;
pos = (300,-22);
},
{
name = center;
pos = (110,600);
}
);
layerId = "0CAB57D4-4FC4-49C3-B456-FB7666EAA712";
shapes = (
{
closed = 1;
nodes = (
(388,-12,o),
(486,84,o),
(486,246,cs),
(486,394,o),
(424,490,o),
(294,490,cs),
(234,490,o),
(174,454,o),
(124,412,c),
(126,508,l),
(126,722,l),
(96,722,l),
(96,0,l),
(122,0,l),
(126,48,l),
(128,48,l),
(174,12,o),
(228,-12,o),
(274,-12,cs)
);
},
{
closed = 1;
nodes = (
(238,16,o),
(182,34,o),
(126,82,c),
(126,378,l),
(186,432,o),
(242,462,o),
(292,462,cs),
(410,462,o),
(454,368,o),
(454,246,cs),
(454,112,o),
(380,16,o),
(276,16,cs)
);
}
);
width = 538;
},
{
anchors = (
{
name = aboveUC;
pos = (295,728);
},
{
name = belowLC;
pos = (296,-22);
},
{
name = center;
pos = (125,593);
}
);
layerId = master01;
shapes = (
{
closed = 1;
nodes = (
(408,-12,o),
(507,85,o),
(507,251,cs),
(507,401,o),
(440,498,o),
(314,498,cs),
(260,498,o),
(206,469,o),
(162,430,c),
(164,518,l),
(164,712,l),
(82,712,l),
(82,0,l),
(148,0,l),
(155,50,l),
(158,50,l),
(201,11,o),
(252,-12,o),
(297,-12,cs)
);
},
{
closed = 1;
nodes = (
(251,57,o),
(207,71,o),
(164,108,c),
(164,363,l),
(210,406,o),
(253,429,o),
(294,429,cs),
(386,429,o),
(422,357,o),
(422,250,cs),
(422,130,o),
(363,57,o),
(283,57,cs)
);
}
);
width = 553.456;
}
);
unicode = 98;
}
{
color = 3;
glyphname = c;
kernLeft = o;
kernRight = c;
layers = (
{
anchors = (
{
name = aboveLC;
pos = (280,522);
},
{
name = aboverightLC;
pos = (420,522);
},
{
name = baseLC;
pos = (260,0);
},
{
name = belowLC;
pos = (260,-22);
}
);
layerId = "42B3044F-4D5A-45CA-9EB7-C1889731596B";
shapes = (
{
closed = 1;
nodes = (
(348,-12,o),
(409,10,o),
(450,48,c),
(384,154,l),
(360,136,o),
(334,126,o),
(306,126,cs),
(250,126,o),
(208,174,o),
(208,250,cs),
(208,326,o),
(248,374,o),
(310,374,cs),
(334,374,o),
(350,366,o),
(366,354,c),
(446,460,l),
(410,492,o),
(360,512,o),
(300,512,cs),
(158,512,o),
(32,416,o),
(32,250,cs),
(32,84,o),
(142,-12,o),
(288,-12,cs)
);
}
);
width = 472;
},
{
anchors = (
{
name = aboveLC;
pos = (270,502);
},
{
name = aboverightLC;
pos = (410,502);
},
{
name = baseLC;
pos = (270,0);
},
{
name = belowLC;
pos = (270,-22);
}
);
layerId = "0CAB57D4-4FC4-49C3-B456-FB7666EAA712";
shapes = (
{
closed = 1;
nodes = (
(330,-12,o),
(380,14,o),
(420,54,c),
(402,72,l),
(370,39,o),
(322,16,o),
(268,16,cs),
(158,16,o),
(86,106,o),
(86,238,cs),
(86,370,o),
(166,462,o),
(268,462,cs),
(320,462,o),
(360,442,o),
(390,412,c),
(408,430,l),
(376,464,o),
(334,490,o),
(268,490,cs),
(154,490,o),
(54,398,o),
(54,238,cs),
(54,80,o),
(146,-12,o),
(268,-12,cs)
);
}
);
width = 446;
},
{
anchors = (
{
name = aboveLC;
pos = (274,509);
},
{
name = aboverightLC;
pos = (414,509);
},
{
name = baseLC;
pos = (266,0);
},
{
name = belowLC;
pos = (266,-22);
}
);
layerId = master01;
shapes = (
{
closed = 1;
nodes = (
(337,-12,o),
(391,13,o),
(431,52,c),
(395,102,l),
(366,75,o),
(326,56,o),
(282,56,cs),
(192,56,o),
(131,131,o),
(131,242,cs),
(131,354,o),
(196,430,o),
(283,430,cs),
(325,430,o),
(356,414,o),
(381,391,c),
(422,441,l),
(389,474,o),
(344,498,o),
(280,498,cs),
(155,498,o),
(46,405,o),
(46,242,cs),
(46,81,o),
(145,-12,o),
(275,-12,cs)
);
}
);
width = 455.568;
}
);
unicode = 99;
}
{
color = 3;
glyphname = d;
kernLeft = o;
kernRight = d;
layers = (
{
anchors = (
{
name = aboveUC;
pos = (280,722);
},
{
name = belowLC;
pos = (280,-22);
},
{
name = center;
pos = (430,580);
}
);
layerId = "42B3044F-4D5A-45CA-9EB7-C1889731596B";
shapes = (
{
closed = 1;
nodes = (
(284,-12,o),
(332,12,o),
(366,46,c),
(370,46,l),
(382,0,l),
(522,0,l),
(522,696,l),
(350,696,l),
(350,534,l),
(356,462,l),
(326,492,o),
(294,512,o),
(240,512,cs),
(138,512,o),
(36,414,o),
(36,250,cs),
(36,88,o),
(116,-12,o),
(240,-12,cs)
);
},
{
closed = 1;
nodes = (
(240,128,o),
(212,162,o),
(212,252,cs),
(212,340,o),
(246,372,o),
(282,372,cs),
(304,372,o),
(330,366,o),
(350,348,c),
(350,164,l),
(332,136,o),
(312,128,o),
(286,128,cs)
);
}
);
width = 580;
},
{
anchors = (
{
name = aboveUC;
pos = (260,732);
},
{
name = belowLC;
pos = (270,-22);
},
{
name = center;
pos = (430,600);
}
);
layerId = "0CAB57D4-4FC4-49C3-B456-FB7666EAA712";
shapes = (
{
closed = 1;
nodes = (
(318,-12,o),
(372,24,o),
(412,64,c),
(414,64,l),
(418,0,l),
(444,0,l),
(444,722,l),
(414,722,l),
(414,520,l),
(416,430,l),
(366,468,o),
(326,490,o),
(268,490,cs),
(152,490,o),
(54,392,o),
(54,238,cs),
(54,76,o),
(132,-12,o),
(252,-12,cs)
);
},
{
closed = 1;
nodes = (
(146,16,o),
(86,106,o),
(86,238,cs),
(86,362,o),
(164,462,o),
(266,462,cs),
(316,462,o),
(360,444,o),
(414,396,c),
(414,100,l),
(360,46,o),
(310,16,o),
(254,16,cs)
);
}
);
width = 540;
},
{
anchors = (
{
name = aboveUC;
pos = (267,728);
},
{
name = belowLC;
pos = (274,-22);
},
{
name = center;
pos = (430,593);
}
);
layerId = master01;
shapes = (
{
closed = 1;
nodes = (
(305,-12,o),
(357,20,o),
(395,57,c),
(398,57,l),
(405,0,l),
(473,0,l),
(473,712,l),
(390,712,l),
(390,525,l),
(394,442,l),
(351,477,o),
(314,498,o),
(258,498,cs),
(147,498,o),
(47,400,o),
(47,242,cs),
(47,80,o),
(126,-12,o),
(248,-12,cs)
);
},
{
closed = 1;
nodes = (
(181,57,o),
(132,127,o),
(132,243,cs),
(132,354,o),
(194,429,o),
(272,429,cs),
(312,429,o),
(349,415,o),
(390,378,c),
(390,124,l),
(350,79,o),
(311,57,o),
(266,57,cs)
);
}
);
width = 555;
}
);
unicode = 100;
}
{
color = 3;
glyphname = e;
kernLeft = o;
kernRight = e;
layers = (
{
anchors = (
{
name = aboveLC;
pos = (270,522);
},
{
name = baseLC;
pos = (270,0);
},
{
name = belowLC;
pos = (270,-22);
},
{
name = ogonekLC;
pos = (360,0);
}
);
layerId = "42B3044F-4D5A-45CA-9EB7-C1889731596B";
shapes = (
{
closed = 1;
nodes = (
(346,-12,o),
(418,8,o),
(472,46,c),
(418,148,l),
(382,128,o),
(348,118,o),
(314,118,cs),
(256,118,o),
(194,140,o),
(190,250,cs),
(186,352,o),
(234,382,o),
(276,382,cs),
(328,382,o),
(344,348,o),
(344,310,c),
(166,310,l),
(168,198,l),
(483,198,l),
(486,210,o),
(490,240,o),
(490,270,cs),
(490,404,o),
(420,512,o),
(272,512,cs),
(150,512,o),
(32,412,o),
(32,250,cs),
(32,84,o),
(144,-12,o),
(290,-12,cs)
);
}
);
width = 526;
},
{
anchors = (
{
name = aboveLC;
pos = (260,502);
},
{
name = baseLC;
pos = (260,0);
},
{
name = belowLC;
pos = (260,-22);
},
{
name = ogonekLC;
pos = (340,0);
}
);
layerId = "0CAB57D4-4FC4-49C3-B456-FB7666EAA712";
shapes = (
{
closed = 1;
nodes = (
(344,-12,o),
(384,10,o),
(420,34,c),
(406,56,l),
(372,32,o),
(328,16,o),
(274,16,cs),
(167,16,o),
(86,104,o),
(86,240,cs),
(86,388,o),
(176,462,o),
(260,462,cs),
(350,462,o),
(410,398,o),
(410,266,c),
(70,266,l),
(70,238,l),
(438,238,l),
(440,250,o),
(440,260,o),
(440,270,cs),
(440,412,o),
(370,490,o),
(260,490,cs),
(154,490,o),
(54,394,o),
(54,238,cs),
(54,82,o),
(152,-12,o),
(272,-12,cs)
);
}
);
width = 478;
},
{
anchors = (
{
name = aboveLC;
pos = (264,509);
},
{
name = baseLC;
pos = (264,0);
},
{
name = belowLC;
pos = (264,-22);
},
{
name = ogonekLC;
pos = (347,0);
}
);
layerId = master01;
shapes = (
{
closed = 1;
nodes = (
(345,-12,o),
(397,9,o),
(439,38,c),
(410,90,l),
(376,67,o),
(335,54,o),
(289,54,cs),
(200,54,o),
(126,117,o),
(124,244,cs),
(123,375,o),
(197,433,o),
(266,433,cs),
(342,433,o),
(386,380,o),
(386,282,c),
(105,282,l),
(106,223,l),
(455,223,l),
(457,235,o),
(458,253,o),
(458,270,cs),
(458,409,o),
(388,498,o),
(264,498,cs),
(153,498,o),
(46,401,o),
(46,242,cs),
(46,83,o),
(149,-12,o),
(279,-12,cs)
);
}
);
width = 495.664;
}
);
unicode = 101;
}
{
color = 3;
glyphname = f;
kernLeft = f;
kernRight = f;
layers = (
{
anchors = (
{
name = aboveUC;
pos = (250,722);
},
{
name = belowLC;
pos = (174,-22);
},
{
name = center;
pos = (180,220);
}
);
layerId = "42B3044F-4D5A-45CA-9EB7-C1889731596B";
shapes = (
{
closed = 1;
nodes = (
(260,0,l),
(260,512,ls),
(260,558,o),
(280,574,o),
(312,574,cs),
(328,574,o),
(344,572,o),
(360,568,c),
(392,690,l),
(370,698,o),
(332,708,o),
(286,708,cs),
(138,708,o),
(88,613,o),
(88,506,cs),
(88,0,l)
);
},
{
closed = 1;
nodes = (
(344,366,l),
(344,500,l),
(100,500,l),
(14,494,l),
(14,366,l)
);
}
);
width = 360;
},
{
anchors = (
{
name = aboveUC;
pos = (200,732);
},
{
name = belowLC;
pos = (116,-22);
},
{
name = center;
pos = (130,240);
}
);
layerId = "0CAB57D4-4FC4-49C3-B456-FB7666EAA712";
shapes = (
{
closed = 1;
nodes = (
(130,0,l),
(130,592,ls),
(130,664,o),
(154,706,o),
(208,706,cs),
(226,706,o),
(245,702,o),
(266,694,c),
(276,718,l),
(256,728,o),
(230,734,o),
(210,734,cs),
(142,734,o),
(100,690,o),
(100,596,cs),
(100,0,l)
);
},
{
closed = 1;
nodes = (
(244,450,l),
(244,478,l),
(100,478,l),
(30,474,l),
(30,450,l)
);
}
);
width = 252;
},
{
anchors = (
{
name = aboveUC;
pos = (218,728);
},
{
name = belowLC;
pos = (137,-22);
},
{
name = center;
pos = (148,233);
}
);
layerId = master01;
shapes = (
{
closed = 1;
nodes = (
(178,0,l),
(178,563,ls),
(178,625,o),
(200,657,o),
(246,657,cs),
(264,657,o),
(281,654,o),
(301,648,c),
(319,708,l),
(298,717,o),
(268,724,o),
(238,724,cs),
(141,724,o),
(96,662,o),
(96,563,cs),
(96,0,l)
);
},
{
closed = 1;
nodes = (
(281,419,l),
(281,486,l),
(100,486,l),
(24,481,l),
(24,419,l)
);
}
);
width = 292;
}
);
unicode = 102;
}
{
color = 3;
glyphname = g;
kernLeft = g;
kernRight = g;
layers = (
{
anchors = (
{
name = aboveLC;
pos = (276,522);
},
{
name = belowLC;
pos = (250,-182);
}
);
layerId = "42B3044F-4D5A-45CA-9EB7-C1889731596B";
shapes = (
{
closed = 1;
nodes = (
(418,-206,o),
(530,-132,o),
(530,-24,cs),
(530,68,o),
(458,106,o),
(333,106,cs),
(258,106,ls),
(208,106,o),
(188,114,o),
(188,136,cs),
(188,150,o),
(190,156,o),
(200,165,c),
(222,160,o),
(240,158,o),
(256,158,cs),
(368,158,o),
(458,206,o),
(458,322,cs),
(458,340,o),
(455,356,o),
(446,372,c),
(446,376,l),
(522,376,l),
(522,500,l),
(336,500,l),
(312,508,o),
(284,512,o),
(256,512,cs),
(146,512,o),
(42,454,o),
(42,330,cs),
(42,272,o),
(74,226,o),
(110,202,c),
(110,198,l),
(76,174,o),
(54,138,o),
(54,104,cs),
(54,62,o),
(74,36,o),
(100,18,c),
(100,14,l),
(54,-10,o),
(30,-41,o),
(30,-82,cs),
(30,-172,o),
(126,-206,o),
(240,-206,cs)
);
},
{
closed = 1;
nodes = (
(224,260,o),
(202,282,o),
(202,330,cs),
(202,376,o),
(224,398,o),
(256,398,cs),
(288,398,o),
(310,376,o),
(310,330,cs),
(310,282,o),
(288,260,o),
(256,260,cs)
);
},
{
closed = 1;
nodes = (
(210,-100,o),
(170,-86,o),
(170,-54,cs),
(170,-40,o),
(176,-30,o),
(188,-18,c),
(202,-22,o),
(220,-24,o),
(260,-24,cs),
(299,-24,ls),
(342,-24,o),
(366,-28,o),
(366,-54,cs),
(366,-82,o),
(324,-100,o),
(268,-100,cs)
);
}
);
width = 546;
},
{
anchors = (
{
name = aboveLC;
pos = (250,502);
},
{
name = belowLC;
pos = (250,-232);
}
);
layerId = "0CAB57D4-4FC4-49C3-B456-FB7666EAA712";
shapes = (
{
closed = 1;
nodes = (
(384,-234,o),
(470,-154,o),
(470,-74,cs),
(470,0,o),
(422,34,o),
(316,34,cs),
(210,34,ls),
(136,34,o),
(116,64,o),
(116,100,cs),
(116,134,o),
(136,156,o),
(158,174,c),
(180,160,o),
(212,152,o),
(240,152,cs),
(332,152,o),
(404,226,o),
(404,322,cs),
(404,381,o),
(378,422,o),
(346,446,c),
(346,450,l),
(462,450,l),
(462,478,l),
(302,478,l),
(288,484,o),
(266,490,o),
(240,490,cs),
(148,490,o),
(76,418,o),
(76,322,cs),
(76,264,o),
(106,216,o),
(136,190,c),
(136,186,l),
(116,172,o),
(84,142,o),
(84,98,cs),
(84,62,o),
(102,36,o),
(126,22,c),
(126,18,l),
(82,-14,o),
(54,-58,o),
(54,-100,cs),
(54,-180,o),
(128,-234,o),
(250,-234,cs)
);
},
{
closed = 1;
nodes = (
(170,180,o),
(108,238,o),
(108,322,cs),
(108,408,o),
(168,462,o),
(240,462,cs),
(312,462,o),
(372,408,o),
(372,322,cs),
(372,238,o),
(310,180,o),
(240,180,cs)
);
},
{
closed = 1;
nodes = (
(146,-206,o),
(86,-162,o),
(86,-98,cs),
(86,-62,o),
(106,-22,o),
(154,10,c),
(180,4,o),
(206,2,o),
(212,2,cs),
(322,2,ls),
(398,2,o),
(438,-20,o),
(438,-76,cs),
(438,-140,o),
(366,-206,o),
(252,-206,cs)
);
}
);
width = 480;
},
{
anchors = (
{
name = aboveLC;
pos = (260,509);
},
{
name = belowLC;
pos = (250,-214);
}
);
layerId = master01;
shapes = (
{
closed = 1;
nodes = (
(397,-224,o),
(492,-146,o),
(492,-56,cs),
(492,25,o),
(435,60,o),
(322,60,cs),
(228,60,ls),
(162,60,o),
(142,82,o),
(142,113,cs),
(142,140,o),
(156,156,o),
(173,171,c),
(195,160,o),
(222,154,o),
(246,154,cs),
(345,154,o),
(424,219,o),
(424,322,cs),
(424,366,o),
(406,398,o),
(383,419,c),
(383,423,l),
(484,423,l),
(484,486,l),
(315,486,l),
(297,493,o),
(273,498,o),
(246,498,cs),
(147,498,o),
(63,431,o),
(63,325,cs),
(63,267,o),
(94,220,o),
(126,194,c),
(126,190,l),
(101,173,o),
(73,141,o),
(73,100,cs),
(73,62,o),
(92,36,o),
(116,21,c),
(116,17,l),
(72,-13,o),
(45,-52,o),
(45,-93,cs),
(45,-177,o),
(127,-224,o),
(246,-224,cs)
);
},
{
closed = 1;
nodes = (
(190,209,o),
(143,254,o),
(143,325,cs),
(143,396,o),
(189,438,o),
(246,438,cs),
(303,438,o),
(349,396,o),
(349,325,cs),
(349,254,o),
(302,209,o),
(246,209,cs)
);
},
{
closed = 1;
nodes = (
(170,-167,o),
(117,-134,o),
(117,-82,cs),
(117,-54,o),
(132,-25,o),
(167,0,c),
(188,-6,o),
(211,-8,o),
(230,-8,cs),
(314,-8,ls),
(377,-8,o),
(412,-23,o),
(412,-68,cs),
(412,-119,o),
(351,-167,o),
(258,-167,cs)
);
}
);
width = 504;
}
);
unicode = 103;
}
{
color = 3;
glyphname = h;
kernLeft = l;
kernRight = n;
layers = (
{
anchors = (
{
name = aboveUC;
pos = (320,722);
},
{
name = belowLC;
pos = (300,-22);
}
);
layerId = "42B3044F-4D5A-45CA-9EB7-C1889731596B";
shapes = (
{
closed = 1;
nodes = (
(230,0,l),
(230,328,l),
(256,352,o),
(274,366,o),
(306,366,cs),
(340,366,o),
(356,350,o),
(356,286,cs),
(356,0,l),
(528,0,l),
(528,308,ls),
(528,432,o),
(482,512,o),
(372,512,cs),
(304,512,o),
(256,478,o),
(222,448,c),
(230,534,l),
(230,696,l),
(58,696,l),
(58,0,l)
);
}
);
width = 582;
},
{
anchors = (
{
name = aboveUC;
pos = (280,732);
},
{
name = belowLC;
pos = (280,-22);
}
);
layerId = "0CAB57D4-4FC4-49C3-B456-FB7666EAA712";
shapes = (
{
closed = 1;
nodes = (
(126,0,l),
(126,366,l),
(188,430,o),
(232,462,o),
(292,462,cs),
(374,462,o),
(408,410,o),
(408,304,cs),
(408,0,l),
(438,0,l),
(438,308,ls),
(438,432,o),
(392,490,o),
(294,490,cs),
(228,490,o),
(178,452,o),
(126,400,c),
(126,508,l),
(126,722,l),
(96,722,l),
(96,0,l)
);
}
);
width = 522;
},
{
anchors = (
{
name = aboveUC;
pos = (295,728);
},
{
name = belowLC;
pos = (287,-22);
}
);
layerId = master01;
shapes = (
{
closed = 1;
nodes = (
(164,0,l),
(164,352,l),
(213,401,o),
(247,427,o),
(297,427,cs),
(361,427,o),
(389,388,o),
(389,297,cs),
(389,0,l),
(471,0,l),
(471,308,ls),
(471,432,o),
(425,498,o),
(323,498,cs),
(256,498,o),
(207,462,o),
(161,418,c),
(164,518,l),
(164,712,l),
(82,712,l),
(82,0,l)
);
}
);
width = 544;
}
);
unicode = 104;
}
{
color = 3;
glyphname = k;
kernLeft = l;
kernRight = k;
layers = (
{
anchors = (
{
name = aboveUC;
pos = (320,722);
},
{
name = aboverightLC;
pos = (480,522);
},
{
name = belowLC;
pos = (300,-22);
}
);
layerId = "42B3044F-4D5A-45CA-9EB7-C1889731596B";
shapes = (
{
closed = 1;
nodes = (
(228,0,l),
(228,122,l),
(278,178,l),
(378,0,l),
(564,0,l),
(378,290,l),
(554,500,l),
(366,500,l),
(232,328,l),
(228,328,l),
(228,696,l),
(58,696,l),
(58,0,l)
);
}
);
width = 568;
},
{
anchors = (
{
name = aboveUC;
pos = (270,732);
},
{
name = aboverightLC;
pos = (390,502);
},
{
name = belowLC;
pos = (260,-22);
}
);
layerId = "0CAB57D4-4FC4-49C3-B456-FB7666EAA712";
shapes = (
{
closed = 1;
nodes = (
(126,0,l),
(126,132,l),
(240,266,l),
(406,0,l),
(440,0,l),
(258,290,l),
(412,478,l),
(376,478,l),
(128,174,l),
(126,174,l),
(126,722,l),
(96,722,l),
(96,0,l)
);
}
);
width = 452;
},
{
anchors = (
{
name = aboveUC;
pos = (288,728);
},
{
name = aboverightLC;
pos = (423,509);
},
{
name = belowLC;
pos = (275,-22);
}
);
layerId = master01;
shapes = (
{
closed = 1;
nodes = (
(164,0,l),
(164,128,l),
(254,234,l),
(396,0,l),
(486,0,l),
(302,290,l),
(464,486,l),
(372,486,l),
(166,231,l),
(164,231,l),
(164,712,l),
(82,712,l),
(82,0,l)
);
}
);
width = 494.688;
}
);
unicode = 107;
}
{
color = 3;
glyphname = l;
kernLeft = l;
kernRight = l;
layers = (
{
anchors = (
{
name = aboveUC;
pos = (150,722);
},
{
name = belowLC;
pos = (170,-22);
},
{
name = center;
pos = (150,360);
}
);
guides = (
{
pos = (298,360);
}
);
layerId = "42B3044F-4D5A-45CA-9EB7-C1889731596B";
shapes = (
{
closed = 1;
nodes = (
(250,-12,o),
(278,-6,o),
(296,2,c),
(276,128,l),
(268,126,o),
(264,126,o),
(258,126,cs),
(246,126,o),
(230,136,o),
(230,170,cs),
(230,696,l),
(58,696,l),
(58,176,ls),
(58,64,o),
(96,-12,o),
(212,-12,cs)
);
}
);
width = 298;
},
{
anchors = (
{
name = aboveUC;
pos = (110,732);
},
{
name = belowLC;
pos = (130,-22);
},
{
name = center;
pos = (110,400);
}
);
layerId = "0CAB57D4-4FC4-49C3-B456-FB7666EAA712";
shapes = (
{
closed = 1;
nodes = (
(154,-8,o),
(162,-6,o),
(170,-2,c),
(164,22,l),
(156,20,o),
(152,20,o),
(148,20,cs),
(134,20,o),
(126,28,o),
(126,50,cs),
(126,722,l),
(96,722,l),
(96,56,ls),
(96,10,o),
(114,-8,o),
(144,-8,cs)
);
}
);
width = 230;
},
{
anchors = (
{
name = aboveUC;
pos = (125,728);
},
{
name = belowLC;
pos = (145,-22);
},
{
name = center;
pos = (125,385);
}
);
layerId = master01;
shapes = (
{
closed = 1;
nodes = (
(189,-9,o),
(205,-6,o),
(216,-1,c),
(205,61,l),
(197,59,o),
(193,59,o),
(188,59,cs),
(175,59,o),
(164,68,o),
(164,94,cs),
(164,712,l),
(82,712,l),
(82,100,ls),
(82,30,o),
(107,-9,o),
(169,-9,cs)
);
}
);
width = 255.024;
}
);
unicode = 108;
}
{
color = 3;
glyphname = m;
kernLeft = n;
kernRight = n;
layers = (
{
anchors = (
{
name = aboveLC;
pos = (450,522);
},
{
name = belowLC;
pos = (440,-22);
}
);
layerId = "42B3044F-4D5A-45CA-9EB7-C1889731596B";
shapes = (
{
closed = 1;
nodes = (
(230,0,l),
(230,328,l),
(256,354,o),
(280,366,o),
(300,366,cs),
(334,366,o),
(350,350,o),
(350,286,cs),
(350,0,l),
(522,0,l),
(522,328,l),
(548,354,o),
(572,366,o),
(592,366,cs),
(626,366,o),
(642,350,o),
(642,286,cs),
(642,0,l),
(814,0,l),
(814,308,ls),
(814,432,o),
(766,512,o),
(656,512,cs),
(588,512,o),
(543,474,o),
(502,432,c),
(475,484,o),
(432,512,o),
(364,512,cs),
(296,512,o),
(254,478,o),
(214,439,c),
(210,439,l),
(198,500,l),
(58,500,l),
(58,0,l)
);
}
);
width = 868;
},
{
anchors = (
{
name = aboveLC;
pos = (410,502);
},
{
name = belowLC;
pos = (410,-22);
}
);
layerId = "0CAB57D4-4FC4-49C3-B456-FB7666EAA712";
shapes = (
{
closed = 1;
nodes = (
(126,0,l),
(126,366,l),
(182,430,o),
(232,462,o),
(278,462,cs),
(356,462,o),
(392,410,o),
(392,304,cs),
(392,0,l),
(422,0,l),
(422,366,l),
(478,430,o),
(526,462,o),
(574,462,cs),
(652,462,o),
(688,410,o),
(688,304,cs),
(688,0,l),
(718,0,l),
(718,308,ls),
(718,432,o),
(670,490,o),
(576,490,cs),
(522,490,o),
(468,452,o),
(412,390,c),
(396,450,o),
(358,490,o),
(280,490,cs),
(228,490,o),
(172,452,o),
(128,402,c),
(126,402,l),
(122,478,l),
(96,478,l),
(96,0,l)
);
}
);
width = 806;
},
{
anchors = (
{
name = aboveLC;
pos = (425,509);
},
{
name = belowLC;
pos = (421,-22);
}
);
layerId = master01;
shapes = (
{
closed = 1;
nodes = (
(164,0,l),
(164,352,l),
(209,402,o),
(250,427,o),
(286,427,cs),
(348,427,o),
(377,388,o),
(377,297,cs),
(377,0,l),
(459,0,l),
(459,352,l),
(504,402,o),
(543,427,o),
(581,427,cs),
(642,427,o),
(671,388,o),
(671,297,cs),
(671,0,l),
(753,0,l),
(753,308,ls),
(753,432,o),
(705,498,o),
(605,498,cs),
(546,498,o),
(496,460,o),
(445,405,c),
(425,463,o),
(385,498,o),
(311,498,cs),
(253,498,o),
(202,462,o),
(160,416,c),
(157,416,l),
(150,486,l),
(82,486,l),
(82,0,l)
);
}
);
width = 828.816;
}
);
unicode = 109;
}
{
color = 3;
glyphname = n;
kernLeft = n;
kernRight = n;
layers = (
{
anchors = (
{
name = aboveLC;
pos = (320,522);
},
{
name = belowLC;
pos = (290,-22);
}
);
layerId = "42B3044F-4D5A-45CA-9EB7-C1889731596B";
shapes = (
{
closed = 1;
nodes = (
(230,0,l),
(230,328,l),
(256,352,o),
(274,366,o),
(306,366,cs),
(340,366,o),
(356,350,o),
(356,286,cs),
(356,0,l),
(528,0,l),
(528,308,ls),
(528,432,o),
(482,512,o),
(372,512,cs),
(304,512,o),
(254,478,o),
(214,440,c),
(210,440,l),
(198,500,l),
(58,500,l),
(58,0,l)
);
}
);
width = 582;
},
{
anchors = (
{
name = aboveLC;
pos = (280,502);
},
{
name = belowLC;
pos = (270,-22);
}
);
layerId = "0CAB57D4-4FC4-49C3-B456-FB7666EAA712";
shapes = (
{
closed = 1;
nodes = (
(126,0,l),
(126,366,l),
(188,430,o),
(232,462,o),
(292,462,cs),
(374,462,o),
(408,410,o),
(408,304,cs),
(408,0,l),
(438,0,l),
(438,308,ls),
(438,432,o),
(392,490,o),
(294,490,cs),
(228,490,o),
(178,452,o),
(128,402,c),
(126,402,l),
(122,478,l),
(96,478,l),
(96,0,l)
);
}
);
width = 526;
},
{
anchors = (
{
name = aboveLC;
pos = (295,509);
},
{
name = belowLC;
pos = (277,-22);
}
);
layerId = master01;
shapes = (
{
closed = 1;
nodes = (
(164,0,l),
(164,352,l),
(213,401,o),
(247,427,o),
(297,427,cs),
(361,427,o),
(389,388,o),
(389,297,cs),
(389,0,l),
(471,0,l),
(471,308,ls),
(471,432,o),
(425,498,o),
(323,498,cs),
(256,498,o),
(206,462,o),
(160,416,c),
(157,416,l),
(150,486,l),
(82,486,l),
(82,0,l)
);
}
);
width = 547;
}
);
unicode = 110;
}
{
color = 3;
glyphname = o;
kernLeft = o;
kernRight = o;
layers = (
{
anchors = (
{
name = aboveLC;
pos = (280,522);
},
{
name = aboverightLC;
pos = (570,522);
},
{
name = belowLC;
pos = (280,-22);
},
{
name = hornLC;
pos = (374,500);
},
{
name = ogonekLC;
pos = (280,0);
}
);
layerId = "42B3044F-4D5A-45CA-9EB7-C1889731596B";
shapes = (
{
closed = 1;
nodes = (
(408,-12,o),
(528,84,o),
(528,250,cs),
(528,416,o),
(408,512,o),
(280,512,cs),
(152,512,o),
(32,416,o),
(32,250,cs),
(32,84,o),
(152,-12,o),
(280,-12,cs)
);
},
{
closed = 1;
nodes = (
(228,126,o),
(208,174,o),
(208,250,cs),
(208,326,o),
(228,374,o),
(280,374,cs),
(332,374,o),
(352,326,o),
(352,250,cs),
(352,174,o),
(332,126,o),
(280,126,cs)
);
}
);
width = 560;
},
{
anchors = (
{
name = aboveLC;
pos = (266,502);
},
{
name = aboverightLC;
pos = (450,502);
},
{
name = belowLC;
pos = (266,-22);
},
{
name = hornLC;
pos = (358,482);
},
{
name = ogonekLC;
pos = (266,0);
}
);
layerId = "0CAB57D4-4FC4-49C3-B456-FB7666EAA712";
shapes = (
{
closed = 1;
nodes = (
(380,-12,o),
(478,80,o),
(478,238,cs),
(478,398,o),
(380,490,o),
(266,490,cs),
(152,490,o),
(54,398,o),
(54,238,cs),
(54,80,o),
(152,-12,o),
(266,-12,cs)
);
},
{
closed = 1;
nodes = (
(164,16,o),
(86,106,o),
(86,238,cs),
(86,370,o),
(164,462,o),
(266,462,cs),
(368,462,o),
(446,370,o),
(446,238,cs),
(446,106,o),
(368,16,o),
(266,16,cs)
);
}
);
width = 532;
},
{
anchors = (
{
name = aboveLC;
pos = (271,509);
},
{
name = aboverightLC;
pos = (494,509);
},
{
name = belowLC;
pos = (271,-22);
},
{
name = hornLC;
pos = (364,489);
},
{
name = ogonekLC;
pos = (271,0);
}
);
layerId = master01;
shapes = (
{
closed = 1;
nodes = (
(390,-12,o),
(496,81,o),
(496,242,cs),
(496,405,o),
(390,498,o),
(271,498,cs),
(152,498,o),
(46,405,o),
(46,242,cs),
(46,81,o),
(152,-12,o),
(271,-12,cs)
);
},
{
closed = 1;
nodes = (
(188,56,o),
(131,131,o),
(131,242,cs),
(131,354,o),
(188,430,o),
(271,430,cs),
(355,430,o),
(411,354,o),
(411,242,cs),
(411,131,o),
(355,56,o),
(271,56,cs)
);
}
);
width = 542;
}
);
unicode = 111;
}
{
color = 3;
glyphname = p;
kernLeft = n;
kernRight = o;
layers = (
{
anchors = (
{
name = aboveLC;
pos = (320,522);
},
{
name = aboverightLC;
pos = (500,522);
},
{
name = belowLC;
pos = (140,-182);
},
{
name = center;
pos = (150,-100);
}
);
layerId = "42B3044F-4D5A-45CA-9EB7-C1889731596B";
shapes = (
{
closed = 1;
nodes = (
(230,-176,l),
(230,-38,l),
(224,38,l),
(256,6,o),
(294,-12,o),
(336,-12,cs),
(442,-12,o),
(544,86,o),
(544,258,cs),
(544,412,o),
(468,512,o),
(350,512,cs),
(300,512,o),
(251,488,o),
(214,454,c),
(210,454,l),
(198,500,l),
(58,500,l),
(58,-176,l)
);
},
{
closed = 1;
nodes = (
(272,128,o),
(250,134,o),
(230,152,c),
(230,336,l),
(252,362,o),
(272,372,o),
(298,372,cs),
(344,372,o),
(368,338,o),
(368,256,cs),
(368,160,o),
(334,128,o),
(294,128,cs)
);
}
);
width = 580;
},
{
anchors = (
{
name = aboveLC;
pos = (280,502);
},
{
name = aboverightLC;
pos = (450,502);
},
{
name = belowLC;
pos = (120,-222);
},
{
name = center;
pos = (130,-140);
}
);
layerId = "0CAB57D4-4FC4-49C3-B456-FB7666EAA712";
shapes = (
{
closed = 1;
nodes = (
(126,-222,l),
(126,-42,l),
(126,48,l),
(178,10,o),
(228,-12,o),
(274,-12,cs),
(388,-12,o),
(486,84,o),
(486,246,cs),
(486,394,o),
(424,490,o),
(294,490,cs),
(234,490,o),
(176,454,o),
(128,416,c),
(126,416,l),
(122,478,l),
(96,478,l),
(96,-222,l)
);
},
{
closed = 1;
nodes = (
(238,16,o),
(184,34,o),
(126,82,c),
(126,378,l),
(188,432,o),
(242,462,o),
(292,462,cs),
(410,462,o),
(454,368,o),
(454,246,cs),
(454,112,o),
(380,16,o),
(276,16,cs)
);
}
);
width = 540;
},
{
anchors = (
{
name = aboveLC;
pos = (295,509);
},
{
name = aboverightLC;
pos = (468,509);
},
{
name = belowLC;
pos = (127,-207);
},
{
name = center;
pos = (137,-125);
}
);
layerId = master01;
shapes = (
{
closed = 1;
nodes = (
(164,-205,l),
(164,-41,l),
(162,44,l),
(207,9,o),
(252,-12,o),
(297,-12,cs),
(408,-12,o),
(507,85,o),
(507,250,cs),
(507,401,o),
(440,498,o),
(315,498,cs),
(258,498,o),
(204,467,o),
(160,430,c),
(157,430,l),
(150,486,l),
(82,486,l),
(82,-205,l)
);
},
{
closed = 1;
nodes = (
(251,57,o),
(208,71,o),
(164,108,c),
(164,363,l),
(212,406,o),
(253,429,o),
(294,429,cs),
(386,429,o),
(422,357,o),
(422,250,cs),
(422,130,o),
(363,57,o),
(283,57,cs)
);
}
);
width = 555;
}
);
unicode = 112;
}
{
color = 3;
glyphname = q;
kernLeft = o;
kernRight = u;
layers = (
{
anchors = (
{
name = aboveLC;
pos = (298,522);
},
{
name = belowLC;
pos = (430,-182);
}
);
layerId = "42B3044F-4D5A-45CA-9EB7-C1889731596B";
shapes = (
{
closed = 1;
nodes = (
(522,-176,l),
(522,500,l),
(388,500,l),
(374,450,l),
(370,450,l),
(332,494,o),
(293,512,o),
(240,512,cs),
(138,512,o),
(36,414,o),
(36,250,cs),
(36,88,o),
(116,-12,o),
(240,-12,cs),
(280,-12,o),
(326,8,o),
(356,38,c),
(350,-33,l),
(350,-176,l)
);
},
{
closed = 1;
nodes = (
(240,128,o),
(212,162,o),
(212,252,cs),
(212,340,o),
(246,372,o),
(282,372,cs),
(304,372,o),
(330,366,o),
(350,348,c),
(350,164,l),
(332,136,o),
(312,128,o),
(286,128,cs)
);
}
);
width = 580;
},
{
anchors = (
{
name = aboveLC;
pos = (266,502);
},
{
name = belowLC;
pos = (420,-222);
}
);
layerId = "0CAB57D4-4FC4-49C3-B456-FB7666EAA712";
shapes = (
{
closed = 1;
nodes = (
(444,-222,l),
(444,478,l),
(418,478,l),
(414,434,l),
(412,434,l),
(366,468,o),
(326,490,o),
(268,490,cs),
(152,490,o),
(54,392,o),
(54,238,cs),
(54,76,o),
(132,-12,o),
(252,-12,cs),
(318,-12,o),
(372,24,o),
(416,66,c),
(414,-32,l),
(414,-222,l)
);
},
{
closed = 1;
nodes = (
(146,16,o),
(86,106,o),
(86,238,cs),
(86,362,o),
(164,462,o),
(266,462,cs),
(316,462,o),
(360,444,o),
(414,396,c),
(414,100,l),
(360,46,o),
(310,16,o),
(254,16,cs)
);
}
);
width = 540;
},
{
anchors = (
{
name = aboveLC;
pos = (278,509);
},
{
name = belowLC;
pos = (424,-207);
}
);
layerId = master01;
shapes = (
{
closed = 1;
nodes = (
(473,-205,l),
(473,486,l),
(407,486,l),
(399,440,l),
(397,440,l),
(353,478,o),
(314,498,o),
(258,498,cs),
(147,498,o),
(47,400,o),
(47,242,cs),
(47,80,o),
(126,-12,o),
(248,-12,cs),
(304,-12,o),
(355,18,o),
(394,56,c),
(390,-32,l),
(390,-205,l)
);
},
{
closed = 1;
nodes = (
(181,57,o),
(132,127,o),
(132,243,cs),
(132,354,o),
(194,429,o),
(272,429,cs),
(312,429,o),
(349,415,o),
(390,378,c),
(390,124,l),
(350,79,o),
(311,57,o),
(266,57,cs)
);
}
);
width = 555;
}
);
unicode = 113;
}
{
color = 3;
glyphname = r;
kernLeft = n;
kernRight = r;
layers = (
{
anchors = (
{
name = aboveLC;
pos = (260,522);
},
{
name = belowLC;
pos = (140,-22);
},
{
name = center;
pos = (150,210);
}
);
layerId = "42B3044F-4D5A-45CA-9EB7-C1889731596B";
shapes = (
{
closed = 1;
nodes = (
(230,0,l),
(230,278,l),
(254,340,o),
(298,362,o),
(334,362,cs),
(356,362,o),
(368,360,o),
(386,356,c),
(418,502,l),
(404,508,o),
(387,512,o),
(356,512,cs),
(307,512,o),
(251,482,o),
(214,414,c),
(210,414,l),
(198,500,l),
(58,500,l),
(58,0,l)
);
}
);
width = 418;
},
{
anchors = (
{
name = aboveLC;
pos = (200,502);
},
{
name = belowLC;
pos = (110,-22);
},
{
name = center;
pos = (130,220);
}
);
guides = (
{
pos = (314,220);
}
);
layerId = "0CAB57D4-4FC4-49C3-B456-FB7666EAA712";
shapes = (
{
closed = 1;
nodes = (
(126,0,l),
(126,332,l),
(164,426,o),
(216,460,o),
(260,460,cs),
(278,460,o),
(288,458,o),
(300,454,c),
(310,480,l),
(294,488,o),
(280,490,o),
(264,490,cs),
(204,490,o),
(158,446,o),
(128,388,c),
(126,388,l),
(122,478,l),
(96,478,l),
(96,0,l)
);
}
);
width = 306;
},
{
anchors = (
{
name = aboveLC;
pos = (222,509);
},
{
name = belowLC;
pos = (121,-22);
},
{
name = center;
pos = (137,216);
}
);
layerId = master01;
shapes = (
{
closed = 1;
nodes = (
(164,0,l),
(164,312,l),
(197,394,o),
(246,424,o),
(287,424,cs),
(307,424,o),
(317,422,o),
(332,418,c),
(350,488,l),
(334,495,o),
(319,498,o),
(298,498,cs),
(242,498,o),
(192,459,o),
(160,398,c),
(157,398,l),
(150,486,l),
(82,486,l),
(82,0,l)
);
}
);
width = 347;
}
);
unicode = 114;
}
{
color = 3;
glyphname = s;
kernLeft = s;
kernRight = s;
layers = (
{
anchors = (
{
name = aboveLC;
pos = (240,522);
},
{
name = baseLC;
pos = (220,0);
},
{
name = belowLC;
pos = (220,-22);
},
{
name = center;
pos = (230,250);
}
);
layerId = "42B3044F-4D5A-45CA-9EB7-C1889731596B";
shapes = (
{
closed = 1;
nodes = (
(352,-12,o),
(426,60,o),
(426,154,cs),
(426,234,o),
(370,282,o),
(294,306,cs),
(230,326,o),
(206,336,o),
(206,358,cs),
(206,376,o),
(220,386,o),
(250,386,cs),
(282,386,o),
(319,377,o),
(356,350,c),
(428,446,l),
(384,484,o),
(320,512,o),
(244,512,cs),
(126,512,o),
(46,448,o),
(46,350,cs),
(46,274,o),
(104,226,o),
(174,200,cs),
(227,180,o),
(266,170,o),
(266,144,cs),
(266,124,o),
(252,114,o),
(216,114,cs),
(182,114,o),
(136,124,o),
(90,160,c),
(18,64,l),
(70,14,o),
(148,-12,o),
(212,-12,cs)
);
}
);
width = 452;
},
{
anchors = (
{
name = aboveLC;
pos = (200,502);
},
{
name = baseLC;
pos = (210,0);
},
{
name = belowLC;
pos = (210,-22);
},
{
name = center;
pos = (210,230);
}
);
layerId = "0CAB57D4-4FC4-49C3-B456-FB7666EAA712";
shapes = (
{
closed = 1;
nodes = (
(308,-12,o),
(364,50,o),
(364,120,cs),
(364,214,o),
(280,237,o),
(204,266,cs),
(146,288,o),
(92,310,o),
(92,368,cs),
(92,415,o),
(128,462,o),
(208,462,cs),
(258,462,o),
(292,445,o),
(324,422,c),
(342,442,l),
(308,470,o),
(262,490,o),
(210,490,cs),
(112,490,o),
(60,432,o),
(60,366,cs),
(60,284,o),
(138,256,o),
(212,230,cs),
(268,210,o),
(332,182,o),
(332,118,cs),
(332,64,o),
(290,16,o),
(210,16,cs),
(134,16,o),
(92,40,o),
(52,74,c),
(34,54,l),
(74,14,o),
(132,-12,o),
(208,-12,cs)
);
}
);
width = 400;
},
{
anchors = (
{
name = aboveLC;
pos = (215,509);
},
{
name = baseLC;
pos = (214,0);
},
{
name = belowLC;
pos = (214,-22);
},
{
name = center;
pos = (217,237);
}
);
layerId = master01;
shapes = (
{
closed = 1;
nodes = (
(324,-12,o),
(387,54,o),
(387,133,cs),
(387,221,o),
(313,254,o),
(237,281,cs),
(177,302,o),
(134,320,o),
(134,364,cs),
(134,401,o),
(162,434,o),
(223,434,cs),
(267,434,o),
(302,420,o),
(336,396,c),
(374,443,l),
(336,475,o),
(283,498,o),
(223,498,cs),
(117,498,o),
(55,438,o),
(55,360,cs),
(55,280,o),
(125,245,o),
(198,219,cs),
(253,199,o),
(308,178,o),
(308,128,cs),
(308,86,o),
(276,52,o),
(212,52,cs),
(152,52,o),
(108,71,o),
(66,106,c),
(28,58,l),
(73,14,o),
(138,-12,o),
(209,-12,cs)
);
}
);
width = 419.136;
}
);
unicode = 115;
}
{
color = 3;
glyphname = t;
kernLeft = t;
kernRight = t;
layers = (
{
anchors = (
{
name = aboveLC;
pos = (180,662);
},
{
name = aboverightLC;
pos = (380,522);
},
{
name = baseLC;
pos = (240,0);
},
{
name = belowLC;
pos = (240,-22);
},
{
name = center;
pos = (180,250);
}
);
layerId = "42B3044F-4D5A-45CA-9EB7-C1889731596B";
shapes = (
{
closed = 1;
nodes = (
(316,-12,o),
(356,-2,o),
(382,8,c),
(356,128,l),
(344,124,o),
(328,122,o),
(312,122,cs),
(280,122,o),
(252,140,o),
(252,195,cs),
(252,366,l),
(366,366,l),
(366,500,l),
(252,500,l),
(252,650,l),
(110,650,l),
(90,500,l),
(14,494,l),
(14,366,l),
(80,366,l),
(80,192,ls),
(80,70,o),
(134,-12,o),
(264,-12,cs)
);
}
);
width = 400;
},
{
anchors = (
{
name = aboveLC;
pos = (130,632);
},
{
name = aboverightLC;
pos = (260,502);
},
{
name = baseLC;
pos = (200,0);
},
{
name = belowLC;
pos = (200,-22);
},
{
name = center;
pos = (140,240);
}
);
layerId = "0CAB57D4-4FC4-49C3-B456-FB7666EAA712";
shapes = (
{
closed = 1;
nodes = (
(240,-8,o),
(268,0,o),
(294,14,c),
(282,36,l),
(258,24,o),
(238,20,o),
(220,20,cs),
(150,20,o),
(136,64,o),
(136,126,cs),
(136,450,l),
(278,450,l),
(278,478,l),
(136,478,l),
(136,638,l),
(110,638,l),
(106,478,l),
(30,474,l),
(30,450,l),
(106,450,l),
(106,130,ls),
(106,48,o),
(130,-8,o),
(218,-8,cs)
);
}
);
width = 302;
},
{
anchors = (
{
name = aboveLC;
pos = (148,643);
},
{
name = aboverightLC;
pos = (304,509);
},
{
name = baseLC;
pos = (215,0);
},
{
name = belowLC;
pos = (215,-22);
},
{
name = center;
pos = (155,244);
}
);
layerId = master01;
shapes = (
{
closed = 1;
nodes = (
(268,-9,o),
(300,-1,o),
(326,12,c),
(309,70,l),
(290,61,o),
(271,58,o),
(254,58,cs),
(198,58,o),
(179,92,o),
(179,151,cs),
(179,419,l),
(310,419,l),
(310,486,l),
(179,486,l),
(179,642,l),
(110,642,l),
(100,486,l),
(24,481,l),
(24,419,l),
(96,419,l),
(96,153,ls),
(96,56,o),
(131,-9,o),
(235,-9,cs)
);
}
);
width = 338;
}
);
unicode = 116;
}
{
color = 3;
glyphname = u;
kernLeft = u;
kernRight = u;
layers = (
{
anchors = (
{
name = aboveLC;
pos = (290,522);
},
{
name = baseLC;
pos = (250,0);
},
{
name = belowLC;
pos = (280,-22);
},
{
name = hornLC;
pos = (438,510);
},
{
name = ogonekLC;
pos = (420,0);
}
);
layerId = "42B3044F-4D5A-45CA-9EB7-C1889731596B";
shapes = (
{
closed = 1;
nodes = (
(278,-12,o),
(324,18,o),
(364,66,c),
(368,66,l),
(380,0,l),
(520,0,l),
(520,500,l),
(348,500,l),
(348,178,l),
(326,146,o),
(308,134,o),
(276,134,cs),
(242,134,o),
(226,150,o),
(226,214,cs),
(226,500,l),
(54,500,l),
(54,192,ls),
(54,68,o),
(100,-12,o),
(210,-12,cs)
);
}
);
width = 578;
},
{
anchors = (
{
name = aboveLC;
pos = (260,502);
},
{
name = baseLC;
pos = (260,0);
},
{
name = belowLC;
pos = (270,-22);
},
{
name = hornLC;
pos = (396,492);
},
{
name = ogonekLC;
pos = (376,0);
}
);
layerId = "0CAB57D4-4FC4-49C3-B456-FB7666EAA712";
shapes = (
{
closed = 1;
nodes = (
(298,-12,o),
(348,26,o),
(396,82,c),
(398,82,l),
(402,0,l),
(428,0,l),
(428,478,l),
(398,478,l),
(398,120,l),
(338,48,o),
(294,16,o),
(234,16,cs),
(152,16,o),
(118,68,o),
(118,174,cs),
(118,478,l),
(88,478,l),
(88,170,ls),
(88,46,o),
(134,-12,o),
(232,-12,cs)
);
}
);
width = 524;
},
{
anchors = (
{
name = aboveLC;
pos = (271,509);
},
{
name = baseLC;
pos = (256,0);
},
{
name = belowLC;
pos = (274,-22);
},
{
name = hornLC;
pos = (411,499);
},
{
name = ogonekLC;
pos = (392,0);
}
);
layerId = master01;
shapes = (
{
closed = 1;
nodes = (
(291,-12,o),
(339,23,o),
(384,76,c),
(387,76,l),
(394,0,l),
(462,0,l),
(462,486,l),
(380,486,l),
(380,141,l),
(334,84,o),
(299,59,o),
(249,59,cs),
(185,59,o),
(158,98,o),
(158,189,cs),
(158,486,l),
(75,486,l),
(75,178,ls),
(75,54,o),
(121,-12,o),
(224,-12,cs)
);
}
);
width = 543.872;
}
);
unicode = 117;
}
{
color = 3;
glyphname = v;
kernLeft = v;
kernRight = v;
layers = (
{
anchors = (
{
name = aboveLC;
pos = (274,522);
},
{
name = belowLC;
pos = (274,-22);
}
);
layerId = "42B3044F-4D5A-45CA-9EB7-C1889731596B";
shapes = (
{
closed = 1;
nodes = (
(374,0,l),
(532,500,l),
(368,500,l),
(314,282,ls),
(302,232,o),
(290,180,o),
(278,126,c),
(274,126,l),
(262,180,o),
(250,232,o),
(238,282,cs),
(184,500,l),
(12,500,l),
(176,0,l)
);
}
);
width = 544;
},
{
anchors = (
{
name = aboveLC;
pos = (212,502);
},
{
name = belowLC;
pos = (212,-22);
}
);
layerId = "0CAB57D4-4FC4-49C3-B456-FB7666EAA712";
shapes = (
{
closed = 1;
nodes = (
(230,0,l),
(410,478,l),
(378,478,l),
(264,168,ls),
(248,122,o),
(230,74,o),
(214,32,c),
(210,32,l),
(194,74,o),
(176,122,o),
(160,168,cs),
(46,478,l),
(12,478,l),
(194,0,l)
);
}
);
width = 422;
},
{
anchors = (
{
name = aboveLC;
pos = (235,509);
},
{
name = belowLC;
pos = (235,-22);
}
);
layerId = master01;
shapes = (
{
closed = 1;
nodes = (
(282.992,0,l),
(455,486,l),
(374,486,l),
(282,210,ls),
(268,162,o),
(252,113,o),
(238,67,c),
(234,67,l),
(219,113,o),
(203,162,o),
(189,210,cs),
(97,486,l),
(12,486,l),
(187,0,l)
);
}
);
width = 466.896;
}
);
unicode = 118;
}
{
color = 3;
glyphname = w;
kernLeft = w;
kernRight = w;
layers = (
{
anchors = (
{
name = aboveLC;
pos = (400,522);
},
{
name = aboverightLC;
pos = (710,522);
},
{
name = belowLC;
pos = (400,-22);
}
);
layerId = "42B3044F-4D5A-45CA-9EB7-C1889731596B";
shapes = (
{
closed = 1;
nodes = (
(340,0,l),
(374,174,l),
(382,220,o),
(390,266,o),
(396,322,c),
(400,322,l),
(408,266,o),
(416,220,o),
(424,174,c),
(460,0,l),
(660,0,l),
(774,500,l),
(616,500,l),
(578,290,l),
(570,240,o),
(566,190,o),
(558,138,c),
(554,138,l),
(544,190,o),
(536,240,o),
(524,290,c),
(476,500,l),
(330,500,l),
(284,290,l),
(272,242,o),
(264,190,o),
(256,138,c),
(252,138,l),
(244,190,o),
(240,240,o),
(232,290,c),
(194,500,l),
(24,500,l),
(144,0,l)
);
}
);
width = 798;
},
{
anchors = (
{
name = aboveLC;
pos = (336,502);
},
{
name = aboverightLC;
pos = (640,502);
},
{
name = belowLC;
pos = (336,-22);
}
);
layerId = "0CAB57D4-4FC4-49C3-B456-FB7666EAA712";
shapes = (
{
closed = 1;
nodes = (
(206,0,l),
(294,310,l),
(310,356,o),
(322,402,o),
(334,448,c),
(338,448,l),
(352,402,o),
(362,358,o),
(376,312,c),
(466,0,l),
(508,0,l),
(648,478,l),
(616,478,l),
(526,156,l),
(514,112,o),
(502,72,o),
(490,30,c),
(486,30,l),
(474,72,o),
(462,112,o),
(450,156,c),
(358,478,l),
(316,478,l),
(224,156,l),
(212,112,o),
(200,72,o),
(188,30,c),
(184,30,l),
(174,72,o),
(162,112,o),
(150,156,c),
(58,478,l),
(24,478,l),
(168,0,l)
);
}
);
width = 672;
},
{
anchors = (
{
name = aboveLC;
pos = (360,509);
},
{
name = aboverightLC;
pos = (666,509);
},
{
name = belowLC;
pos = (360,-22);
}
);
layerId = master01;
shapes = (
{
closed = 1;
nodes = (
(255,0,l),
(323,260,l),
(336,306,o),
(347,352,o),
(357,402,c),
(361,402,l),
(373,352,o),
(382,307,o),
(394,261,c),
(464,0,l),
(564,0,l),
(694,486,l),
(616,486,l),
(545,205,l),
(535,159,o),
(526,115,o),
(515,70,c),
(511,70,l),
(500,115,o),
(489,159,o),
(477,205,c),
(401,486,l),
(321,486,l),
(246,205,l),
(234,160,o),
(224,115,o),
(213,70,c),
(209,70,l),
(200,115,o),
(191,159,o),
(180,205,c),
(108,486,l),
(24,486,l),
(159,0,l)
);
}
);
width = 718.368;
}
);
unicode = 119;
}
{
color = 3;
glyphname = x;
kernLeft = x;
kernRight = x;
layers = (
{
anchors = (
{
name = aboveLC;
pos = (270,522);
},
{
name = belowLC;
pos = (270,-22);
}
);
layerId = "42B3044F-4D5A-45CA-9EB7-C1889731596B";
shapes = (
{
closed = 1;
nodes = (
(192,0,l),
(220,70,l),
(231,99,o),
(243,128,o),
(254,156,c),
(258,156,l),
(273,128,o),
(287,98,o),
(302,70,c),
(342,0,l),
(526,0,l),
(376,240,l),
(518,500,l),
(340,500,l),
(316,430,l),
(307,402,o),
(295,372,o),
(286,344,c),
(282,344,l),
(269,372,o),
(255,402,o),
(242,430,c),
(206,500,l),
(22,500,l),
(164,260,l),
(14,0,l)
);
}
);
width = 540;
},
{
anchors = (
{
name = aboveLC;
pos = (196,502);
},
{
name = belowLC;
pos = (196,-22);
}
);
layerId = "0CAB57D4-4FC4-49C3-B456-FB7666EAA712";
shapes = (
{
closed = 1;
nodes = (
(46,0,l),
(134,138,l),
(154,168,o),
(172,198,o),
(192,226,c),
(196,226,l),
(216,198,o),
(236,168,o),
(254,138,c),
(344,0,l),
(378,0,l),
(214,248,l),
(364,478,l),
(332,478,l),
(252,350,l),
(234,324,o),
(218,298,o),
(200,272,c),
(196,272,l),
(178,298,o),
(160,324,o),
(144,350,c),
(62,478,l),
(28,478,l),
(178,250,l),
(14,0,l)
);
}
);
width = 392;
},
{
anchors = (
{
name = aboveLC;
pos = (223,509);
},
{
name = belowLC;
pos = (223,-22);
}
);
layerId = master01;
shapes = (
{
closed = 1;
nodes = (
(100,0,l),
(166,113,l),
(182,143,o),
(198,172,o),
(215,200,c),
(219,200,l),
(237,172,o),
(255,142,o),
(272,113,c),
(343,0,l),
(432,0,l),
(274,245,l),
(421,486,l),
(335,486,l),
(276,379,l),
(261,353,o),
(246,325,o),
(232,298,c),
(228,298,l),
(211,325,o),
(195,353,o),
(180,379,c),
(115,486,l),
(26,486,l),
(173,254,l),
(14,0,l)
);
}
);
width = 446;
}
);
unicode = 120;
}
{
color = 3;
glyphname = y;
kernLeft = y;
kernRight = y;
layers = (
{
anchors = (
{
name = aboveLC;
pos = (276,522);
},
{
name = aboverightLC;
pos = (460,522);
},
{
name = belowLC;
pos = (238,-182);
}
);
layerId = "42B3044F-4D5A-45CA-9EB7-C1889731596B";
shapes = (
{
closed = 1;
nodes = (
(256,-188,o),
(310,-127,o),
(362,8,c),
(530,500,l),
(366,500,l),
(316,308,ls),
(304,260,o),
(294,214,o),
(284,166,c),
(280,166,l),
(268,216,o),
(258,262,o),
(244,308,cs),
(184,500,l),
(12,500,l),
(202,18,l),
(196,-4,ls),
(186,-34,o),
(164,-54,o),
(118,-54,cs),
(108,-54,o),
(102,-54,o),
(86,-50,c),
(56,-176,l),
(78,-184,o),
(98,-188,o),
(132,-188,cs)
);
}
);
width = 542;
},
{
anchors = (
{
name = aboveLC;
pos = (220,502);
},
{
name = aboverightLC;
pos = (400,502);
},
{
name = belowLC;
pos = (180,-242);
}
);
layerId = "0CAB57D4-4FC4-49C3-B456-FB7666EAA712";
shapes = (
{
closed = 1;
nodes = (
(148,-222,o),
(196,-142,o),
(220,-68,c),
(412,478,l),
(380,478,l),
(272,164,ls),
(258,124,o),
(242,72,o),
(226,30,c),
(222,30,l),
(204,72,o),
(184,124,o),
(168,164,cs),
(46,478,l),
(12,478,l),
(210,-12,l),
(196,-56,ls),
(170,-134,o),
(128,-192,o),
(68,-192,cs),
(56,-192,o),
(40,-188,o),
(30,-184,c),
(20,-212,l),
(32,-218,o),
(50,-222,o),
(66,-222,cs)
);
}
);
width = 424;
},
{
anchors = (
{
name = aboveLC;
pos = (241,509);
},
{
name = aboverightLC;
pos = (422,509);
},
{
name = belowLC;
pos = (201,-220);
}
);
layerId = master01;
shapes = (
{
closed = 1;
nodes = (
(188,-209,o),
(238,-136,o),
(272,-40,c),
(455,486,l),
(375,486,l),
(288,217,ls),
(275,174,o),
(261,124,o),
(247,80,c),
(243,80,l),
(228,125,o),
(211,175,o),
(196,217,cs),
(97,486,l),
(12,486,l),
(207,-1,l),
(196,-37,ls),
(176,-97,o),
(141,-141,o),
(86,-141,cs),
(75,-141,o),
(63,-139,o),
(51,-135,c),
(33,-199,l),
(49,-205,o),
(68,-209,o),
(90,-209,cs)
);
}
);
width = 467;
}
);
unicode = 121;
}
{
color = 3;
glyphname = z;
kernLeft = z;
kernRight = z;
layers = (
{
anchors = (
{
name = aboveLC;
pos = (250,522);
},
{
name = belowLC;
pos = (250,-22);
},
{
name = center;
pos = (240,250);
}
);
layerId = "42B3044F-4D5A-45CA-9EB7-C1889731596B";
shapes = (
{
closed = 1;
nodes = (
(450,0,l),
(450,134,l),
(254,134,l),
(444,408,l),
(444,500,l),
(62,500,l),
(62,366,l),
(230,366,l),
(40,92,l),
(40,0,l)
);
}
);
width = 474;
},
{
anchors = (
{
name = aboveLC;
pos = (220,502);
},
{
name = belowLC;
pos = (210,-22);
},
{
name = center;
pos = (200,240);
}
);
layerId = "0CAB57D4-4FC4-49C3-B456-FB7666EAA712";
shapes = (
{
closed = 1;
nodes = (
(370,0,l),
(370,28,l),
(66,28,l),
(360,462,l),
(360,478,l),
(58,478,l),
(58,450,l),
(320,450,l),
(26,16,l),
(26,0,l)
);
}
);
width = 396;
},
{
anchors = (
{
name = aboveLC;
pos = (231,509);
},
{
name = belowLC;
pos = (225,-22);
},
{
name = center;
pos = (215,244);
}
);
layerId = master01;
shapes = (
{
closed = 1;
nodes = (
(399,0,l),
(399,67,l),
(135,67,l),
(391,442,l),
(391,486,l),
(59,486,l),
(59,419,l),
(287,419,l),
(31,44,l),
(31,0,l)
);
}
);
width = 424.704;
}
);
unicode = 122;
}
{
color = 3;
glyphname = braceleft;
kernRight = braceleft;
layers = (
{
layerId = "42B3044F-4D5A-45CA-9EB7-C1889731596B";
shapes = (
{
closed = 1;
nodes = (
(308,-152,l),
(308,-62,l),
(292,-62,ls),
(255,-62,o),
(244,-52,o),
(244,0,cs),
(244,51,o),
(248,98,o),
(248,156,cs),
(248,236,o),
(221,264,o),
(168,276,c),
(168,280,l),
(221,292,o),
(248,320,o),
(248,400,cs),
(248,458,o),
(244,505,o),
(244,556,cs),
(244,608,o),
(255,618,o),
(292,618,cs),
(308,618,l),
(308,708,l),
(238,708,ls),
(146,708,o),
(106,672,o),
(106,562,cs),
(106,492,o),
(116,462,o),
(116,400,cs),
(116,366,o),
(94,330,o),
(30,328,c),
(30,228,l),
(94,226,o),
(116,190,o),
(116,156,cs),
(116,94,o),
(106,64,o),
(106,-6,cs),
(106,-116,o),
(146,-152,o),
(238,-152,cs)
);
}
);
width = 360;
},
{
layerId = "0CAB57D4-4FC4-49C3-B456-FB7666EAA712";
shapes = (
{
closed = 1;
nodes = (
(252,-152,l),
(252,-130,l),
(220,-130,ls),
(156,-130,o),
(140,-94,o),
(140,-22,cs),
(140,44,o),
(146,100,o),
(146,174,cs),
(146,228,o),
(136,264,o),
(98,276,c),
(98,280,l),
(136,292,o),
(146,326,o),
(146,382,cs),
(146,456,o),
(140,512,o),
(140,578,cs),
(140,650,o),
(156,686,o),
(220,686,cs),
(252,686,l),
(252,708,l),
(222,708,ls),
(150,708,o),
(114,682,o),
(114,582,cs),
(114,508,o),
(122,442,o),
(122,370,cs),
(122,330,o),
(106,290,o),
(36,290,c),
(36,266,l),
(106,266,o),
(122,226,o),
(122,184,cs),
(122,114,o),
(114,48,o),
(114,-26,cs),
(114,-126,o),
(150,-152,o),
(222,-152,cs)
);
}
);
width = 270;
},
{
layerId = master01;
shapes = (
{
closed = 1;
nodes = (
(273,-152,l),
(273,-105,l),
(246,-105,ls),
(192,-105,o),
(178,-79,o),
(178,-14,cs),
(178,47,o),
(184,99,o),
(184,167,cs),
(184,231,o),
(167,264,o),
(124,276,c),
(124,280,l),
(167,292,o),
(184,324,o),
(184,389,cs),
(184,457,o),
(178,509,o),
(178,570,cs),
(178,635,o),
(192,661,o),
(246,661,cs),
(273,661,l),
(273,708,l),
(228,708,ls),
(149,708,o),
(111,678,o),
(111,575,cs),
(111,502,o),
(120,449,o),
(120,381,cs),
(120,343,o),
(102,305,o),
(34,304,c),
(34,252,l),
(102,251,o),
(120,213,o),
(120,174,cs),
(120,107,o),
(111,54,o),
(111,-19,cs),
(111,-122,o),
(149,-152,o),
(228,-152,cs)
);
}
);
width = 303.12;
}
);
unicode = 123;
}
{
color = 3;
glyphname = braceright;
kernLeft = braceright;
layers = (
{
layerId = "42B3044F-4D5A-45CA-9EB7-C1889731596B";
shapes = (
{
closed = 1;
nodes = (
(122,-152,ls),
(214,-152,o),
(254,-116,o),
(254,-6,cs),
(254,64,o),
(244,94,o),
(244,156,cs),
(244,190,o),
(266,226,o),
(330,228,c),
(330,328,l),
(266,330,o),
(244,366,o),
(244,400,cs),
(244,462,o),
(254,492,o),
(254,562,cs),
(254,672,o),
(214,708,o),
(122,708,cs),
(52,708,l),
(52,618,l),
(68,618,ls),
(105,618,o),
(116,608,o),
(116,556,cs),
(116,505,o),
(112,458,o),
(112,400,cs),
(112,320,o),
(139,292,o),
(192,280,c),
(192,276,l),
(139,264,o),
(112,236,o),
(112,156,cs),
(112,98,o),
(116,51,o),
(116,0,cs),
(116,-52,o),
(105,-62,o),
(68,-62,cs),
(52,-62,l),
(52,-152,l)
);
}
);
width = 360;
},
{
layerId = "0CAB57D4-4FC4-49C3-B456-FB7666EAA712";
shapes = (
{
closed = 1;
nodes = (
(48,-152,ls),
(120,-152,o),
(156,-126,o),
(156,-26,cs),
(156,48,o),
(148,114,o),
(148,184,cs),
(148,226,o),
(164,266,o),
(234,266,c),
(234,290,l),
(164,290,o),
(148,330,o),
(148,370,cs),
(148,442,o),
(156,508,o),
(156,582,cs),
(156,682,o),
(120,708,o),
(48,708,cs),
(18,708,l),
(18,686,l),
(50,686,ls),
(114,686,o),
(130,650,o),
(130,578,cs),
(130,512,o),
(124,456,o),
(124,382,cs),
(124,326,o),
(134,292,o),
(172,280,c),
(172,276,l),
(134,264,o),
(124,228,o),
(124,174,cs),
(124,100,o),
(130,44,o),
(130,-22,cs),
(130,-94,o),
(114,-130,o),
(50,-130,cs),
(18,-130,l),
(18,-152,l)
);
}
);
width = 270;
},
{
layerId = master01;
shapes = (
{
closed = 1;
nodes = (
(75,-152,ls),
(155,-152,o),
(192,-122,o),
(192,-19,cs),
(192,54,o),
(183,107,o),
(183,174,cs),
(183,213,o),
(202,251,o),
(269,252,c),
(269,304,l),
(202,305,o),
(183,343,o),
(183,381,cs),
(183,449,o),
(192,502,o),
(192,575,cs),
(192,678,o),
(155,708,o),
(75,708,cs),
(31,708,l),
(31,661,l),
(57,661,ls),
(111,661,o),
(125,635,o),
(125,570,cs),
(125,509,o),
(120,457,o),
(120,389,cs),
(120,324,o),
(136,292,o),
(179,280,c),
(179,276,l),
(136,264,o),
(120,231,o),
(120,167,cs),
(120,99,o),
(125,47,o),
(125,-14,cs),
(125,-79,o),
(111,-105,o),
(57,-105,cs),
(31,-105,l),
(31,-152,l)
);
}
);
width = 303.12;
}
);
unicode = 125;
}
{
color = 3;
glyphname = asciitilde;
layers = (
{
layerId = "42B3044F-4D5A-45CA-9EB7-C1889731596B";
shapes = (
{
closed = 1;
nodes = (
(406,234,o),
(460,262,o),
(514,342,c),
(426,410,l),
(406,376,o),
(383,354,o),
(356,354,cs),
(302,354,o),
(270,426,o),
(186,426,cs),
(134,426,o),
(80,398,o),
(26,318,c),
(114,250,l),
(134,284,o),
(158,306,o),
(184,306,cs),
(238,306,o),
(270,234,o),
(354,234,cs)
);
}
);
width = 540;
},
{
layerId = "0CAB57D4-4FC4-49C3-B456-FB7666EAA712";
shapes = (
{
closed = 1;
nodes = (
(364,270,o),
(404,296,o),
(430,348,c),
(408,362,l),
(384,314,o),
(358,298,o),
(328,298,cs),
(270,298,o),
(222,390,o),
(146,390,cs),
(108,390,o),
(68,364,o),
(42,310,c),
(64,298,l),
(88,346,o),
(114,362,o),
(144,362,cs),
(202,362,o),
(250,270,o),
(326,270,cs)
);
}
);
width = 472;
},
{
layerId = master01;
shapes = (
{
closed = 1;
nodes = (
(379,257,o),
(425,283,o),
(461,346,c),
(415,380,l),
(392,337,o),
(367,319,o),
(338,319,cs),
(282,319,o),
(240,403,o),
(161,403,cs),
(118,403,o),
(72,377,o),
(36,313,c),
(82,280,l),
(105,323,o),
(130,341,o),
(159,341,cs),
(215,341,o),
(257,257,o),
(336,257,cs)
);
}
);
width = 497.024;
}
);
unicode = 126;
}
{
color = 3;
glyphname = exclamdown;
layers = (
{
layerId = "42B3044F-4D5A-45CA-9EB7-C1889731596B";
shapes = (
{
closed = 1;
nodes = (
(266,-170,l),
(260,-22,l),
(236,256,l),
(124,256,l),
(100,-22,l),
(94,-170,l)
);
},
{
closed = 1;
nodes = (
(238,304,o),
(280,350,o),
(280,408,cs),
(280,466,o),
(238,512,o),
(180,512,cs),
(122,512,o),
(80,466,o),
(80,408,cs),
(80,350,o),
(122,304,o),
(180,304,cs)
);
}
);
width = 360;
},
{
layerId = "0CAB57D4-4FC4-49C3-B456-FB7666EAA712";
shapes = (
{
closed = 1;
nodes = (
(140,-192,l),
(140,-130,l),
(136,306,l),
(112,306,l),
(108,-130,l),
(108,-192,l)
);
},
{
closed = 1;
nodes = (
(142,412,o),
(160,426,o),
(160,452,cs),
(160,476,o),
(142,490,o),
(124,490,cs),
(106,490,o),
(88,476,o),
(88,452,cs),
(88,426,o),
(106,412,o),
(124,412,cs)
);
}
);
width = 248;
},
{
layerId = master01;
shapes = (
{
closed = 1;
nodes = (
(186,-184,l),
(184,-90,l),
(173,288,l),
(116,288,l),
(105,-90,l),
(103,-184,l)
);
},
{
closed = 1;
nodes = (
(177,372,o),
(204,398,o),
(204,436,cs),
(204,472,o),
(177,498,o),
(145,498,cs),
(112,498,o),
(85,472,o),
(85,436,cs),
(85,398,o),
(112,372,o),
(145,372,cs)
);
}
);
width = 289.216;
}
);
unicode = 161;
}
{
color = 3;
glyphname = cent;
layers = (
{
layerId = "42B3044F-4D5A-45CA-9EB7-C1889731596B";
shapes = (
{
closed = 1;
nodes = (
(384,44,o),
(450,62,o),
(500,106,c),
(432,214,l),
(410,198,o),
(384,182,o),
(352,182,cs),
(270,182,o),
(226,230,o),
(226,306,cs),
(226,382,o),
(266,430,o),
(358,430,cs),
(376,430,o),
(394,424,o),
(416,406,c),
(494,512,l),
(460,546,o),
(408,568,o),
(348,568,cs),
(186,568,o),
(60,472,o),
(60,306,cs),
(60,140,o),
(168,44,o),
(332,44,cs)
);
},
{
closed = 1;
nodes = (
(372,-44,l),
(372,656,l),
(280,656,l),
(280,-44,l)
);
}
);
width = 540;
},
{
layerId = "0CAB57D4-4FC4-49C3-B456-FB7666EAA712";
shapes = (
{
closed = 1;
nodes = (
(338,84,o),
(388,112,o),
(428,148,c),
(410,168,l),
(376,137,o),
(330,112,o),
(276,112,cs),
(166,112,o),
(94,192,o),
(94,312,cs),
(94,432,o),
(174,512,o),
(276,512,cs),
(326,512,o),
(366,490,o),
(398,460,c),
(416,480,l),
(384,510,o),
(342,540,o),
(276,540,cs),
(162,540,o),
(62,460,o),
(62,312,cs),
(62,166,o),
(154,84,o),
(276,84,cs)
);
},
{
closed = 1;
nodes = (
(280,-26,l),
(280,652,l),
(252,652,l),
(252,-26,l)
);
}
);
width = 472;
},
{
layerId = master01;
shapes = (
{
closed = 1;
nodes = (
(355,69,o),
(411,94,o),
(454,133,c),
(418,185,l),
(389,159,o),
(350,138,o),
(304,138,cs),
(204,138,o),
(143,206,o),
(143,310,cs),
(143,414,o),
(208,482,o),
(306,482,cs),
(344,482,o),
(376,466,o),
(405,440,c),
(445,492,l),
(412,523,o),
(366,550,o),
(302,550,cs),
(171,550,o),
(61,464,o),
(61,310,cs),
(61,156,o),
(159,69,o),
(297,69,cs)
);
},
{
closed = 1;
nodes = (
(314,-33,l),
(314,653,l),
(262,653,l),
(262,-33,l)
);
}
);
width = 497.024;
}
);
unicode = 162;
}
{
color = 3;
glyphname = sterling;
layers = (
{
layerId = "42B3044F-4D5A-45CA-9EB7-C1889731596B";
shapes = (
{
closed = 1;
nodes = (
(514,0,l),
(514,144,l),
(264,144,l),
(264,148,l),
(292,182,o),
(302,209,o),
(302,248,cs),
(302,310,o),
(274,367,o),
(274,422,cs),
(274,480,o),
(306,508,o),
(354,508,cs),
(382,508,o),
(404,498,o),
(426,472,c),
(514,558,l),
(474,610,o),
(416,646,o),
(332,646,cs),
(206,646,o),
(110,564,o),
(110,432,cs),
(110,377,o),
(152,309,o),
(152,250,cs),
(152,180,o),
(102,130,o),
(46,106,c),
(46,0,l)
);
},
{
closed = 1;
nodes = (
(424,266,l),
(424,370,l),
(120,370,l),
(52,364,l),
(52,266,l)
);
}
);
width = 540;
},
{
layerId = "0CAB57D4-4FC4-49C3-B456-FB7666EAA712";
shapes = (
{
closed = 1;
nodes = (
(418,0,l),
(418,28,l),
(118,28,l),
(118,32,l),
(166,78,o),
(194,130,o),
(194,218,cs),
(194,324,o),
(144,398,o),
(144,488,cs),
(144,562,o),
(188,624,o),
(274,624,cs),
(331,624,o),
(368,602,o),
(396,564,c),
(416,580,l),
(388,622,o),
(342,652,o),
(276,652,cs),
(174,652,o),
(112,588,o),
(112,486,cs),
(112,394,o),
(164,312,o),
(164,218,cs),
(164,140,o),
(134,62,o),
(58,18,c),
(58,0,l)
);
},
{
closed = 1;
nodes = (
(346,296,l),
(346,324,l),
(120,324,l),
(54,322,l),
(54,296,l)
);
}
);
width = 472;
},
{
layerId = master01;
shapes = (
{
closed = 1;
nodes = (
(453,0,l),
(453,71,l),
(172,71,l),
(172,75,l),
(212,116,o),
(234,159,o),
(234,229,cs),
(234,319,o),
(192,387,o),
(192,464,cs),
(192,532,o),
(231,581,o),
(303,581,cs),
(350,581,o),
(381,564,o),
(407,530,c),
(452,572,l),
(420,618,o),
(369,650,o),
(297,650,cs),
(186,650,o),
(111,579,o),
(111,466,cs),
(111,388,o),
(160,311,o),
(160,230,cs),
(160,155,o),
(122,87,o),
(54,50,c),
(54,0,l)
);
},
{
closed = 1;
nodes = (
(375,285,l),
(375,341,l),
(120,341,l),
(53,337,l),
(53,285,l)
);
}
);
width = 497.024;
}
);
unicode = 163;
}
{
color = 3;
glyphname = yen;
layers = (
{
layerId = "42B3044F-4D5A-45CA-9EB7-C1889731596B";
shapes = (
{
closed = 1;
nodes = (
(356,0,l),
(356,140,l),
(506,140,l),
(506,224,l),
(356,224,l),
(356,268,l),
(506,268,l),
(506,352,l),
(392,352,l),
(532,634,l),
(360,634,l),
(320,516,ls),
(305,473,o),
(289,429,o),
(274,386,c),
(270,386,l),
(254,428,o),
(239,472,o),
(224,516,cs),
(184,634,l),
(8,634,l),
(148,352,l),
(34,352,l),
(34,268,l),
(184,268,l),
(184,224,l),
(34,224,l),
(34,140,l),
(184,140,l),
(184,0,l)
);
}
);
width = 540;
},
{
layerId = "0CAB57D4-4FC4-49C3-B456-FB7666EAA712";
shapes = (
{
closed = 1;
nodes = (
(250,0,l),
(250,162,l),
(420,162,l),
(420,190,l),
(250,190,l),
(250,270,l),
(420,270,l),
(420,298,l),
(262,298,l),
(440,640,l),
(408,640,l),
(308,438,ls),
(286,393,o),
(264,350,o),
(238,300,c),
(234,300,l),
(210,350,o),
(188,394,o),
(166,438,cs),
(66,640,l),
(32,640,l),
(208,298,l),
(52,298,l),
(52,270,l),
(220,270,l),
(220,190,l),
(52,190,l),
(52,162,l),
(220,162,l),
(220,0,l)
);
}
);
width = 472;
},
{
layerId = master01;
shapes = (
{
closed = 1;
nodes = (
(289.008,0,l),
(289,154,l),
(452,154,l),
(452,203,l),
(289,203,l),
(289,269,l),
(452,269,l),
(452,318,l),
(310,318,l),
(474,638,l),
(390,638,l),
(312,467,ls),
(293,422,o),
(273,379,o),
(251,332,c),
(247,332,l),
(226,379,o),
(207,423,o),
(187,467,cs),
(109,638,l),
(23,638,l),
(186,318,l),
(45,318,l),
(45,269,l),
(207,269,l),
(207,203,l),
(45,203,l),
(45,154,l),
(207,154,l),
(207,0,l)
);
}
);
width = 497.024;
}
);
unicode = 165;
}
{
color = 3;
glyphname = brokenbar;
layers = (
{
layerId = "42B3044F-4D5A-45CA-9EB7-C1889731596B";
shapes = (
{
closed = 1;
nodes = (
(194,-250,l),
(194,200,l),
(84,200,l),
(84,-250,l)
);
},
{
closed = 1;
nodes = (
(194,320,l),
(194,750,l),
(84,750,l),
(84,320,l)
);
}
);
width = 278;
},
{
layerId = "0CAB57D4-4FC4-49C3-B456-FB7666EAA712";
shapes = (
{
closed = 1;
nodes = (
(124,-250,l),
(124,222,l),
(96,222,l),
(96,-250,l)
);
},
{
closed = 1;
nodes = (
(124,274,l),
(124,750,l),
(96,750,l),
(96,274,l)
);
}
);
width = 220;
},
{
layerId = master01;
shapes = (
{
closed = 1;
nodes = (
(150,-250,l),
(150,214,l),
(92,214,l),
(92,-250,l)
);
},
{
closed = 1;
nodes = (
(150,291,l),
(150,750,l),
(92,750,l),
(92,291,l)
);
}
);
width = 241.344;
}
);
unicode = 166;
}
{
color = 3;
glyphname = section;
layers = (
{
layerId = "42B3044F-4D5A-45CA-9EB7-C1889731596B";
shapes = (
{
closed = 1;
nodes = (
(379,-92,o),
(446,-20,o),
(446,74,cs),
(446,248,o),
(178,238,o),
(178,332,cs),
(178,361,o),
(197,384,o),
(238,396,c),
(152,466,l),
(80,442,o),
(34,378,o),
(34,320,cs),
(34,130,o),
(292,130,o),
(292,66,cs),
(292,46,o),
(278,34,o),
(242,34,cs),
(208,34,o),
(170,50,o),
(138,84,c),
(40,-2,l),
(86,-64,o),
(168,-92,o),
(242,-92,cs)
);
},
{
closed = 1;
nodes = (
(470,170,o),
(506,220,o),
(506,284,cs),
(506,464,o),
(238,480,o),
(238,536,cs),
(238,558,o),
(253,566,o),
(282,566,cs),
(313,566,o),
(353,545,o),
(384,518,c),
(462,624,l),
(420,657,o),
(354,692,o),
(272,692,cs),
(155,692,o),
(84,628,o),
(84,530,cs),
(84,354,o),
(362,368,o),
(362,270,cs),
(362,239,o),
(344,218,o),
(302,204,c),
(400,136,l)
);
}
);
width = 540;
},
{
layerId = "0CAB57D4-4FC4-49C3-B456-FB7666EAA712";
shapes = (
{
closed = 1;
nodes = (
(302,-48,o),
(368,2,o),
(368,72,cs),
(368,240,o),
(82,200,o),
(82,358,cs),
(82,414,o),
(118,442,o),
(168,470,c),
(156,494,l),
(100,466,o),
(52,428,o),
(52,356,cs),
(52,174,o),
(338,214,o),
(338,70,cs),
(338,22,o),
(296,-20,o),
(232,-20,cs),
(168,-20,o),
(132,2,o),
(98,34,c),
(76,12,l),
(114,-22,o),
(164,-48,o),
(232,-48,cs)
);
},
{
closed = 1;
nodes = (
(370,174,o),
(420,205,o),
(420,284,cs),
(420,470,o),
(138,431,o),
(138,570,cs),
(138,610,o),
(166,652,o),
(238,652,cs),
(290,652,o),
(322,632,o),
(354,606,c),
(372,628,l),
(336,658,o),
(290,680,o),
(238,680,cs),
(148,680,o),
(108,620,o),
(108,568,cs),
(108,406,o),
(390,444,o),
(390,282,cs),
(390,219,o),
(354,196,o),
(294,170,c),
(308,144,l)
);
}
);
width = 472;
},
{
layerId = master01;
shapes = (
{
closed = 1;
nodes = (
(330,-64,o),
(397,-6,o),
(397,73,cs),
(397,243,o),
(117,214,o),
(117,348,cs),
(117,394,o),
(147,421,o),
(194,443,c),
(155,484,l),
(93,457,o),
(45,410,o),
(45,343,cs),
(45,158,o),
(321,183,o),
(321,69,cs),
(321,31,o),
(289,0,o),
(236,0,cs),
(183,0,o),
(146,20,o),
(113,52,c),
(63,7,l),
(104,-37,o),
(165,-64,o),
(236,-64,cs)
);
},
{
closed = 1;
nodes = (
(407,173,o),
(452,211,o),
(452,284,cs),
(452,468,o),
(175,449,o),
(175,557,cs),
(175,591,o),
(198,620,o),
(254,620,cs),
(298,620,o),
(333,600,o),
(365,574,c),
(405,627,l),
(367,658,o),
(314,684,o),
(251,684,cs),
(151,684,o),
(99,623,o),
(99,554,cs),
(99,387,o),
(380,416,o),
(380,278,cs),
(380,226,o),
(350,204,o),
(297,183,c),
(342,141,l)
);
}
);
width = 497.024;
}
);
unicode = 167;
}
{
color = 3;
glyphname = copyright;
layers = (
{
layerId = "42B3044F-4D5A-45CA-9EB7-C1889731596B";
shapes = (
{
closed = 1;
nodes = (
(554,-8,o),
(708,118,o),
(708,326,cs),
(708,533,o),
(554,656,o),
(376,656,cs),
(198,656,o),
(44,534,o),
(44,326,cs),
(44,118,o),
(198,-8,o),
(376,-8,cs)
);
},
{
closed = 1;
nodes = (
(230,60,o),
(120,166,o),
(120,326,cs),
(120,486,o),
(230,588,o),
(376,588,cs),
(522,588,o),
(632,486,o),
(632,326,cs),
(632,166,o),
(522,60,o),
(376,60,cs)
);
},
{
closed = 1;
nodes = (
(439,128,o),
(482,148,o),
(520,178,c),
(466,256,l),
(442,238,o),
(424,226,o),
(394,226,cs),
(344,226,o),
(313,264,o),
(313,324,cs),
(313,376,o),
(341,420,o),
(400,420,cs),
(424,420,o),
(442,408,o),
(461,388,c),
(524,458,l),
(492,490,o),
(452,518,o),
(388,518,cs),
(286,518,o),
(192,442,o),
(192,324,cs),
(192,204,o),
(274,128,o),
(390,128,cs)
);
}
);
width = 752;
},
{
guides = (
{
pos = (339,322);
}
);
layerId = "0CAB57D4-4FC4-49C3-B456-FB7666EAA712";
shapes = (
{
closed = 1;
nodes = (
(542,-12,o),
(688,120,o),
(688,322,cs),
(688,522,o),
(542,652,o),
(370,652,cs),
(198,652,o),
(52,522,o),
(52,322,cs),
(52,120,o),
(198,-12,o),
(370,-12,cs)
);
},
{
closed = 1;
nodes = (
(216,14,o),
(82,138,o),
(82,322,cs),
(82,504,o),
(216,626,o),
(370,626,cs),
(524,626,o),
(658,504,o),
(658,322,cs),
(658,138,o),
(524,14,o),
(370,14,cs)
);
},
{
closed = 1;
nodes = (
(440,130,o),
(476,154,o),
(510,192,c),
(492,210,l),
(460,178,o),
(432,160,o),
(376,160,cs),
(292,160,o),
(236,220,o),
(236,318,cs),
(236,418,o),
(298,484,o),
(378,484,cs),
(420,484,o),
(454,468,o),
(480,438,c),
(500,456,l),
(472,490,o),
(432,514,o),
(380,514,cs),
(286,514,o),
(202,440,o),
(202,318,cs),
(202,198,o),
(280,130,o),
(374,130,cs)
);
}
);
width = 740;
},
{
layerId = master01;
shapes = (
{
closed = 1;
nodes = (
(546,-11,o),
(695,119,o),
(695,323,cs),
(695,526,o),
(546,653,o),
(372,653,cs),
(198,653,o),
(49,526,o),
(49,323,cs),
(49,119,o),
(198,-11,o),
(372,-11,cs)
);
},
{
closed = 1;
nodes = (
(221,31,o),
(96,148,o),
(96,323,cs),
(96,497,o),
(221,612,o),
(372,612,cs),
(523,612,o),
(648,497,o),
(648,323,cs),
(648,148,o),
(523,31,o),
(372,31,cs)
);
},
{
closed = 1;
nodes = (
(440,129,o),
(478,152,o),
(514,187,c),
(482,227,l),
(453,200,o),
(429,184,o),
(383,184,cs),
(311,184,o),
(264,236,o),
(264,320,cs),
(264,403,o),
(314,460,o),
(386,460,cs),
(421,460,o),
(450,446,o),
(473,420,c),
(509,457,l),
(479,490,o),
(439,515,o),
(383,515,cs),
(286,515,o),
(198,441,o),
(198,320,cs),
(198,200,o),
(278,129,o),
(380,129,cs)
);
}
);
width = 744.416;
}
);
unicode = 169;
}
{
color = 3;
glyphname = ordfeminine;
kernLeft = LAT_ORDFEMININE_RIGHT;
kernRight = LAT_ORDFEMININE_LEFT;
layers = (
{
layerId = "42B3044F-4D5A-45CA-9EB7-C1889731596B";
shapes = (
{
closed = 1;
nodes = (
(164,360,o),
(194,376,o),
(218,400,c),
(222,400,l),
(232,368,l),
(328,368,l),
(328,554,ls),
(328,660,o),
(272,708,o),
(186,708,cs),
(134,708,o),
(84,692,o),
(36,664,c),
(78,586,l),
(113,604,o),
(140,614,o),
(164,614,cs),
(191,614,o),
(205,605,o),
(208,582,c),
(80,570,o),
(26,532,o),
(26,462,cs),
(26,408,o),
(64,360,o),
(128,360,cs)
);
},
{
closed = 1;
nodes = (
(150,450,o),
(140,458,o),
(140,472,cs),
(140,490,o),
(156,508,o),
(208,514,c),
(208,470,l),
(196,458,o),
(186,450,o),
(169,450,cs)
);
}
);
width = 364;
},
{
layerId = "0CAB57D4-4FC4-49C3-B456-FB7666EAA712";
shapes = (
{
closed = 1;
nodes = (
(184,402,o),
(220,426,o),
(248,450,c),
(252,450,l),
(258,410,l),
(280,410,l),
(280,612,ls),
(280,684,o),
(258,734,o),
(182,734,cs),
(130,734,o),
(82,708,o),
(58,692,c),
(70,670,l),
(92,686,o),
(138,708,o),
(180,708,cs),
(238,708,o),
(252,664,o),
(252,610,c),
(108,596,o),
(44,562,o),
(44,492,cs),
(44,434,o),
(84,402,o),
(140,402,cs)
);
},
{
closed = 1;
nodes = (
(102,428,o),
(74,448,o),
(74,494,cs),
(74,542,o),
(120,574,o),
(252,588,c),
(252,480,l),
(214,444,o),
(178,428,o),
(146,428,cs)
);
}
);
width = 334;
},
{
layerId = master01;
shapes = (
{
closed = 1;
nodes = (
(177,387,o),
(210,408,o),
(237,432,c),
(241,432,l),
(248,395,l),
(298,395,l),
(298,591,ls),
(298,675,o),
(263,724,o),
(183,724,cs),
(131,724,o),
(83,702,o),
(50,682,c),
(73,639,l),
(100,656,o),
(139,673,o),
(174,673,cs),
(221,673,o),
(235,642,o),
(236,600,c),
(98,586,o),
(37,551,o),
(37,481,cs),
(37,424,o),
(77,387,o),
(136,387,cs)
);
},
{
closed = 1;
nodes = (
(120,436,o),
(98,452,o),
(98,486,cs),
(98,523,o),
(133,550,o),
(236,561,c),
(236,476,l),
(207,449,o),
(181,436,o),
(154,436,cs)
);
}
);
width = 345;
}
);
unicode = 170;
}
{
color = 3;
glyphname = registered;
layers = (
{
layerId = "42B3044F-4D5A-45CA-9EB7-C1889731596B";
shapes = (
{
closed = 1;
nodes = (
(350,308,o),
(440,394,o),
(440,512,cs),
(440,630,o),
(350,716,o),
(238,716,cs),
(126,716,o),
(36,630,o),
(36,512,cs),
(36,394,o),
(126,308,o),
(238,308,cs)
);
},
{
closed = 1;
nodes = (
(154,362,o),
(96,420,o),
(96,512,cs),
(96,604,o),
(154,662,o),
(238,662,cs),
(322,662,o),
(380,604,o),
(380,512,cs),
(380,420,o),
(322,362,o),
(238,362,cs)
);
},
{
closed = 1;
nodes = (
(218,416,l),
(218,472,l),
(242,472,l),
(270,416,l),
(336,416,l),
(296,490,l),
(320,502,o),
(330,522,o),
(330,544,cs),
(330,588,o),
(296,610,o),
(248,610,cs),
(154,610,l),
(154,416,l)
);
},
{
closed = 1;
nodes = (
(218,563,l),
(236,563,ls),
(252,563,o),
(262,553,o),
(262,540,cs),
(262,528,o),
(254,515,o),
(236,515,cs),
(218,515,l)
);
}
);
width = 477;
},
{
layerId = "0CAB57D4-4FC4-49C3-B456-FB7666EAA712";
shapes = (
{
closed = 1;
nodes = (
(294,326,o),
(376,402,o),
(376,518,cs),
(376,634,o),
(294,712,o),
(196,712,cs),
(98,712,o),
(16,634,o),
(16,518,cs),
(16,402,o),
(98,326,o),
(196,326,cs)
);
},
{
closed = 1;
nodes = (
(112,352,o),
(44,422,o),
(44,518,cs),
(44,614,o),
(112,686,o),
(196,686,cs),
(280,686,o),
(348,614,o),
(348,518,cs),
(348,422,o),
(280,352,o),
(196,352,cs)
);
},
{
closed = 1;
nodes = (
(158,418,l),
(158,496,l),
(208,496,l),
(248,418,l),
(282,418,l),
(232,506,l),
(254,512,o),
(272,536,o),
(272,562,cs),
(272,612,o),
(234,626,o),
(196,626,cs),
(130,626,l),
(130,418,l)
);
},
{
closed = 1;
nodes = (
(158,600,l),
(192,600,ls),
(230,600,o),
(242,584,o),
(242,560,cs),
(242,532,o),
(220,522,o),
(188,522,cs),
(158,522,l)
);
}
);
width = 392;
},
{
layerId = master01;
shapes = (
{
closed = 1;
nodes = (
(315,319,o),
(400,399,o),
(400,516,cs),
(400,633,o),
(315,713,o),
(211,713,cs),
(108,713,o),
(23,633,o),
(23,516,cs),
(23,399,o),
(108,319,o),
(211,319,cs)
);
},
{
closed = 1;
nodes = (
(127,356,o),
(63,421,o),
(63,516,cs),
(63,610,o),
(127,677,o),
(211,677,cs),
(295,677,o),
(360,610,o),
(360,516,cs),
(360,421,o),
(295,356,o),
(211,356,cs)
);
},
{
closed = 1;
nodes = (
(180,417,l),
(180,487,l),
(221,487,l),
(256,417,l),
(302,417,l),
(256,500,l),
(278,508,o),
(293,531,o),
(293,555,cs),
(293,603,o),
(257,620,o),
(215,620,cs),
(139,620,l),
(139,417,l)
);
},
{
closed = 1;
nodes = (
(180,586,l),
(208,586,ls),
(238,586,o),
(249,573,o),
(249,553,cs),
(249,531,o),
(233,519,o),
(206,519,cs),
(180,519,l)
);
}
);
width = 423.28;
}
);
unicode = 174;
}
{
color = 3;
glyphname = degree;
layers = (
{
layerId = "42B3044F-4D5A-45CA-9EB7-C1889731596B";
shapes = (
{
closed = 1;
nodes = (
(276,386,o),
(342,450,o),
(342,536,cs),
(342,622,o),
(276,686,o),
(190,686,cs),
(104,686,o),
(38,622,o),
(38,536,cs),
(38,450,o),
(104,386,o),
(190,386,cs)
);
},
{
closed = 1;
nodes = (
(152,466,o),
(126,494,o),
(126,536,cs),
(126,578,o),
(152,606,o),
(190,606,cs),
(228,606,o),
(254,578,o),
(254,536,cs),
(254,494,o),
(228,466,o),
(190,466,cs)
);
}
);
width = 378;
},
{
layerId = "0CAB57D4-4FC4-49C3-B456-FB7666EAA712";
shapes = (
{
closed = 1;
nodes = (
(208,454,o),
(262,496,o),
(262,568,cs),
(262,642,o),
(208,684,o),
(152,684,cs),
(96,684,o),
(42,642,o),
(42,568,cs),
(42,496,o),
(96,454,o),
(152,454,cs)
);
},
{
closed = 1;
nodes = (
(104,480,o),
(70,518,o),
(70,568,cs),
(70,620,o),
(104,658,o),
(152,658,cs),
(200,658,o),
(234,620,o),
(234,568,cs),
(234,518,o),
(200,480,o),
(152,480,cs)
);
}
);
width = 304;
},
{
layerId = master01;
shapes = (
{
closed = 1;
nodes = (
(233,429,o),
(291,479,o),
(291,556,cs),
(291,635,o),
(233,685,o),
(166,685,cs),
(99,685,o),
(41,635,o),
(41,556,cs),
(41,479,o),
(99,429,o),
(166,429,cs)
);
},
{
closed = 1;
nodes = (
(122,475,o),
(91,509,o),
(91,556,cs),
(91,605,o),
(122,639,o),
(166,639,cs),
(210,639,o),
(241,605,o),
(241,556,cs),
(241,509,o),
(210,475,o),
(166,475,cs)
);
}
);
width = 331.232;
}
);
unicode = 176;
}
{
color = 3;
glyphname = plusminus;
layers = (
{
layerId = "42B3044F-4D5A-45CA-9EB7-C1889731596B";
shapes = (
{
closed = 1;
nodes = (
(332,170,l),
(332,290,l),
(506,290,l),
(506,410,l),
(332,410,l),
(332,570,l),
(208,570,l),
(208,410,l),
(34,410,l),
(34,290,l),
(208,290,l),
(208,170,l)
);
},
{
closed = 1;
nodes = (
(506,0,l),
(506,120,l),
(34,120,l),
(34,0,l)
);
}
);
width = 540;
},
{
layerId = "0CAB57D4-4FC4-49C3-B456-FB7666EAA712";
shapes = (
{
closed = 1;
nodes = (
(252,112,l),
(252,316,l),
(438,316,l),
(438,344,l),
(252,344,l),
(252,548,l),
(220,548,l),
(220,344,l),
(34,344,l),
(34,316,l),
(220,316,l),
(220,112,l)
);
},
{
closed = 1;
nodes = (
(438,0,l),
(438,28,l),
(34,28,l),
(34,0,l)
);
}
);
width = 472;
},
{
layerId = master01;
shapes = (
{
closed = 1;
nodes = (
(281,133,l),
(281,306,l),
(463,306,l),
(463,368,l),
(281,368,l),
(281,556,l),
(216,556,l),
(216,368,l),
(34,368,l),
(34,306,l),
(216,306,l),
(216,133,l)
);
},
{
closed = 1;
nodes = (
(463,0,l),
(463,62,l),
(34,62,l),
(34,0,l)
);
}
);
width = 497.024;
}
);
unicode = 177;
}
{
color = 3;
glyphname = paragraph;
layers = (
{
layerId = "42B3044F-4D5A-45CA-9EB7-C1889731596B";
shapes = (
{
closed = 1;
nodes = (
(570,-80,l),
(570,650,l),
(398,650,l),
(398,-80,l)
);
},
{
closed = 1;
nodes = (
(342,186,l),
(342,650,l),
(298,650,ls),
(158,650,o),
(38,596,o),
(38,424,cs),
(38,269,o),
(158,186,o),
(298,186,cs)
);
}
);
width = 666;
},
{
layerId = "0CAB57D4-4FC4-49C3-B456-FB7666EAA712";
shapes = (
{
closed = 1;
nodes = (
(402,-80,l),
(402,660,l),
(370,660,l),
(370,-80,l)
);
},
{
closed = 1;
nodes = (
(316,250,l),
(316,660,l),
(272,660,ls),
(136,660,o),
(42,602,o),
(42,454,cs),
(42,306,o),
(142,250,o),
(290,250,cs)
);
}
);
width = 498;
},
{
layerId = master01;
shapes = (
{
closed = 1;
nodes = (
(464,-80,l),
(464,656,l),
(380,656,l),
(380,-80,l)
);
},
{
closed = 1;
nodes = (
(326,226,l),
(326,656,l),
(282,656,ls),
(144,656,o),
(41,600,o),
(41,443,cs),
(41,292,o),
(148,226,o),
(293,226,cs)
);
}
);
width = 559.824;
}
);
unicode = 182;
}
{
color = 3;
glyphname = ordmasculine;
kernLeft = LAT_ORDFEMININE_RIGHT;
kernRight = LAT_ORDFEMININE_LEFT;
layers = (
{
layerId = "42B3044F-4D5A-45CA-9EB7-C1889731596B";
shapes = (
{
closed = 1;
nodes = (
(274,360,o),
(354,424,o),
(354,533,cs),
(354,643,o),
(274,708,o),
(188,708,cs),
(102,708,o),
(22,643,o),
(22,533,cs),
(22,424,o),
(102,360,o),
(188,360,cs)
);
},
{
closed = 1;
nodes = (
(155,454,o),
(144,485,o),
(144,533,cs),
(144,582,o),
(155,614,o),
(188,614,cs),
(221,614,o),
(232,582,o),
(232,533,cs),
(232,485,o),
(221,454,o),
(188,454,cs)
);
}
);
width = 376;
},
{
layerId = "0CAB57D4-4FC4-49C3-B456-FB7666EAA712";
shapes = (
{
closed = 1;
nodes = (
(258,402,o),
(322,464,o),
(322,568,cs),
(322,674,o),
(258,734,o),
(178,734,cs),
(98,734,o),
(34,674,o),
(34,568,cs),
(34,464,o),
(98,402,o),
(178,402,cs)
);
},
{
closed = 1;
nodes = (
(110,428,o),
(64,486,o),
(64,568,cs),
(64,652,o),
(110,708,o),
(178,708,cs),
(246,708,o),
(292,652,o),
(292,568,cs),
(292,486,o),
(246,428,o),
(178,428,cs)
);
}
);
width = 358;
},
{
layerId = master01;
shapes = (
{
closed = 1;
nodes = (
(264,387,o),
(334,449,o),
(334,555,cs),
(334,663,o),
(264,724,o),
(182,724,cs),
(99,724,o),
(30,663,o),
(30,555,cs),
(30,449,o),
(99,387,o),
(182,387,cs)
);
},
{
closed = 1;
nodes = (
(127,438,o),
(93,486,o),
(93,555,cs),
(93,626,o),
(127,673,o),
(182,673,cs),
(237,673,o),
(270,626,o),
(270,555,cs),
(270,486,o),
(237,438,o),
(182,438,cs)
);
}
);
width = 365;
}
);
unicode = 186;
}
{
color = 3;
glyphname = questiondown;
layers = (
{
layerId = "42B3044F-4D5A-45CA-9EB7-C1889731596B";
shapes = (
{
closed = 1;
nodes = (
(318,-182,o),
(386,-144,o),
(436,-88,c),
(342,-2,l),
(316,-26,o),
(294,-44,o),
(260,-44,cs),
(230,-44,o),
(204,-30,o),
(204,6,cs),
(204,70,o),
(346,126,o),
(326,256,c),
(176,256,l),
(186,146,o),
(40,114,o),
(40,-6,cs),
(40,-132,o),
(128,-182,o),
(238,-182,cs)
);
},
{
closed = 1;
nodes = (
(310,304,o),
(352,350,o),
(352,408,cs),
(352,466,o),
(310,512,o),
(252,512,cs),
(194,512,o),
(152,466,o),
(152,408,cs),
(152,350,o),
(194,304,o),
(252,304,cs)
);
}
);
width = 478;
},
{
layerId = "0CAB57D4-4FC4-49C3-B456-FB7666EAA712";
shapes = (
{
closed = 1;
nodes = (
(270,-204,o),
(320,-170,o),
(358,-128,c),
(338,-110,l),
(304,-152,o),
(254,-176,o),
(204,-176,cs),
(120,-176,o),
(84,-116,o),
(84,-52,cs),
(84,78,o),
(252,136,o),
(230,306,c),
(202,306,l),
(222,149,o),
(52,84,o),
(52,-54,cs),
(52,-136,o),
(106,-204,o),
(202,-204,cs)
);
},
{
closed = 1;
nodes = (
(230,412,o),
(248,426,o),
(248,452,cs),
(248,476,o),
(230,490,o),
(212,490,cs),
(194,490,o),
(176,476,o),
(176,452,cs),
(176,426,o),
(194,412,o),
(212,412,cs)
);
}
);
width = 394;
},
{
layerId = master01;
shapes = (
{
closed = 1;
nodes = (
(288,-196,o),
(344,-160,o),
(387,-113,c),
(339,-70,l),
(308,-106,o),
(269,-127,o),
(225,-127,cs),
(160,-127,o),
(128,-84,o),
(128,-31,cs),
(128,75,o),
(287,132,o),
(265,288,c),
(192,288,l),
(209,148,o),
(48,95,o),
(48,-36,cs),
(48,-135,o),
(114,-196,o),
(215,-196,cs)
);
},
{
closed = 1;
nodes = (
(259,372,o),
(286,398,o),
(286,436,cs),
(286,472,o),
(259,498,o),
(227,498,cs),
(194,498,o),
(167,472,o),
(167,436,cs),
(167,398,o),
(194,372,o),
(227,372,cs)
);
}
);
width = 424.912;
}
);
unicode = 191;
}
{
color = 3;
glyphname = AE;
kernLeft = AE;
kernRight = E;
layers = (
{
anchors = (
{
name = aboveUC;
pos = (530,672);
}
);
layerId = "42B3044F-4D5A-45CA-9EB7-C1889731596B";
shapes = (
{
closed = 1;
nodes = (
(158,0,l),
(308,348,l),
(330,400,o),
(352,460,o),
(376,522,c),
(380,522,l),
(380,0,l),
(800,0,l),
(800,144,l),
(552,144,l),
(552,260,l),
(754,260,l),
(754,404,l),
(552,404,l),
(552,506,l),
(790,506,l),
(790,650,l),
(274,650,l),
(-22,0,l)
);
},
{
closed = 1;
nodes = (
(468,132,l),
(468,265,l),
(130,265,l),
(130,132,l)
);
}
);
width = 854;
},
{
anchors = (
{
name = aboveUC;
pos = (580,682);
}
);
layerId = "0CAB57D4-4FC4-49C3-B456-FB7666EAA712";
shapes = (
{
closed = 1;
nodes = (
(60,0,l),
(280,392,l),
(324,474,o),
(368,554,o),
(410,630,c),
(414,630,l),
(414,0,l),
(758,0,l),
(758,28,l),
(446,28,l),
(446,338,l),
(696,338,l),
(696,366,l),
(446,366,l),
(446,632,l),
(748,632,l),
(748,660,l),
(398,660,l),
(26,0,l)
);
},
{
closed = 1;
nodes = (
(442,226,l),
(442,254,l),
(174,254,l),
(174,226,l)
);
}
);
width = 804;
},
{
anchors = (
{
name = aboveUC;
pos = (562,678);
}
);
layerId = master01;
shapes = (
{
closed = 1;
nodes = (
(96,0,l),
(290,376,l),
(326,447,o),
(362,519,o),
(397,590,c),
(401,590,l),
(401,0,l),
(773,0,l),
(773,71,l),
(485,71,l),
(485,309,l),
(717,309,l),
(717,380,l),
(485,380,l),
(485,586,l),
(763,586,l),
(763,656,l),
(352,656,l),
(8,0,l)
);
},
{
closed = 1;
nodes = (
(452,191,l),
(452,258,l),
(158,258,l),
(158,191,l)
);
}
);
width = 822.4;
}
);
unicode = 198;
}
{
color = 3;
glyphname = Eth;
kernLeft = DCROAT;
kernRight = O;
layers = (
{
anchors = (
{
name = aboveUC;
pos = (350,672);
},
{
name = belowLC;
pos = (340,-22);
}
);
layerId = "42B3044F-4D5A-45CA-9EB7-C1889731596B";
shapes = (
{
closed = 1;
nodes = (
(380,278,l),
(380,390,l),
(94,390,l),
(22,384,l),
(22,278,l)
);
},
{
pos = (20,0);
ref = D;
}
);
width = 662;
},
{
anchors = (
{
name = aboveUC;
pos = (320,682);
},
{
name = belowLC;
pos = (310,-22);
}
);
layerId = "0CAB57D4-4FC4-49C3-B456-FB7666EAA712";
shapes = (
{
closed = 1;
nodes = (
(320,338,l),
(320,366,l),
(122,366,l),
(22,362,l),
(22,338,l)
);
},
{
pos = (20,0);
ref = D;
}
);
width = 620;
},
{
anchors = (
{
name = aboveUC;
pos = (331,678);
},
{
name = belowLC;
pos = (321,-22);
}
);
layerId = master01;
shapes = (
{
closed = 1;
nodes = (
(342,316,l),
(342,375,l),
(112,375,l),
(22,370,l),
(22,316,l)
);
},
{
alignment = -1;
pos = (20,0);
ref = D;
}
);
width = 635.456;
}
);
unicode = 208;
}
{
color = 3;
glyphname = multiply;
layers = (
{
layerId = "42B3044F-4D5A-45CA-9EB7-C1889731596B";
shapes = (
{
closed = 1;
nodes = (
(270,244,l),
(408,106,l),
(493,191,l),
(355,329,l),
(493,467,l),
(408,552,l),
(270,414,l),
(132,552,l),
(47,467,l),
(185,329,l),
(47,191,l),
(132,106,l)
);
}
);
width = 540;
},
{
layerId = "0CAB57D4-4FC4-49C3-B456-FB7666EAA712";
shapes = (
{
closed = 1;
nodes = (
(236,310,l),
(400,138,l),
(420,160,l),
(256,330,l),
(420,500,l),
(400,522,l),
(236,350,l),
(72,522,l),
(52,500,l),
(216,330,l),
(52,160,l),
(72,138,l)
);
}
);
width = 472;
},
{
layerId = master01;
shapes = (
{
closed = 1;
nodes = (
(249,286,l),
(403,126,l),
(447,171,l),
(292,330,l),
(447,488,l),
(403,533,l),
(249,374,l),
(94,533,l),
(50,488,l),
(205,330,l),
(50,171,l),
(94,126,l)
);
}
);
width = 497.024;
}
);
unicode = 215;
}
{
color = 3;
glyphname = Oslash;
kernLeft = O;
kernRight = O;
layers = (
{
anchors = (
{
name = aboveUC;
pos = (346,672);
},
{
name = belowLC;
pos = (346,-22);
}
);
guides = (
{
angle = 90;
pos = (346,604);
}
);
layerId = "42B3044F-4D5A-45CA-9EB7-C1889731596B";
shapes = (
{
closed = 1;
nodes = (
(676,628,l),
(588,696,l),
(36,22,l),
(124,-46,l)
);
},
{
ref = O;
}
);
width = 692;
},
{
anchors = (
{
name = aboveUC;
pos = (320,682);
},
{
name = belowLC;
pos = (320,-22);
}
);
layerId = "0CAB57D4-4FC4-49C3-B456-FB7666EAA712";
shapes = (
{
closed = 1;
nodes = (
(586,664,l),
(564,680,l),
(58,-4,l),
(80,-20,l)
);
},
{
pos = (4,0);
ref = O;
}
);
width = 648;
},
{
anchors = (
{
name = aboveUC;
pos = (330,678);
},
{
name = belowLC;
pos = (330,-22);
}
);
layerId = master01;
shapes = (
{
closed = 1;
nodes = (
(619,651,l),
(573,686,l),
(50,6,l),
(96,-30,l)
);
},
{
alignment = -1;
pos = (3,0);
ref = O;
}
);
width = 664.192;
}
);
unicode = 216;
}
{
color = 3;
glyphname = Thorn;
kernLeft = H;
kernRight = THORN;
layers = (
{
layerId = "42B3044F-4D5A-45CA-9EB7-C1889731596B";
shapes = (
{
closed = 1;
nodes = (
(244,0,l),
(244,112,l),
(324,112,ls),
(460,112,o),
(584,181,o),
(584,340,cs),
(584,504,o),
(464,556,o),
(324,556,cs),
(244,556,l),
(244,650,l),
(72,650,l),
(72,0,l)
);
},
{
closed = 1;
nodes = (
(244,420,l),
(316,420,ls),
(380,420,o),
(416,398,o),
(416,340,cs),
(416,282,o),
(384,248,o),
(316,248,cs),
(244,248,l)
);
}
);
width = 630;
},
{
layerId = "0CAB57D4-4FC4-49C3-B456-FB7666EAA712";
shapes = (
{
closed = 1;
nodes = (
(132,0,l),
(132,172,l),
(272,172,ls),
(420,172,o),
(504,234,o),
(504,360,cs),
(504,492,o),
(420,540,o),
(272,540,cs),
(132,540,l),
(132,660,l),
(100,660,l),
(100,0,l)
);
},
{
closed = 1;
nodes = (
(132,512,l),
(260,512,ls),
(402,512,o),
(470,476,o),
(470,360,cs),
(470,246,o),
(402,200,o),
(260,200,cs),
(132,200,l)
);
}
);
width = 556;
},
{
layerId = master01;
shapes = (
{
closed = 1;
nodes = (
(173,0,l),
(173,150,l),
(291,150,ls),
(435,150,o),
(533,214,o),
(533,353,cs),
(533,496,o),
(436,546,o),
(291,546,cs),
(173,546,l),
(173,656,l),
(90,656,l),
(90,0,l)
);
},
{
closed = 1;
nodes = (
(173,478,l),
(281,478,ls),
(394,478,o),
(450,447,o),
(450,353,cs),
(450,259,o),
(395,218,o),
(281,218,cs),
(173,218,l)
);
}
);
width = 583.232;
}
);
unicode = 222;
}
{
color = 3;
glyphname = germandbls;
kernLeft = l;
kernRight = germandbls;
layers = (
{
layerId = "42B3044F-4D5A-45CA-9EB7-C1889731596B";
shapes = (
{
closed = 1;
nodes = (
(564,-12,o),
(628,64,o),
(628,158,cs),
(628,308,o),
(474,312,o),
(474,366,cs),
(474,410,o),
(552,438,o),
(552,532,cs),
(552,620,o),
(470,706,o),
(322,706,cs),
(146,706,o),
(58,604,o),
(58,472,cs),
(58,0,l),
(228,0,l),
(228,454,ls),
(228,526,o),
(264,574,o),
(322,574,cs),
(358,574,o),
(388,548,o),
(388,512,cs),
(388,442,o),
(318,416,o),
(318,344,cs),
(318,216,o),
(472,210,o),
(472,150,cs),
(472,128,o),
(454,114,o),
(428,114,cs),
(400,114,o),
(368,120,o),
(336,140,c),
(282,36,l),
(332,0,o),
(379,-12,o),
(434,-12,cs)
);
}
);
width = 654;
},
{
layerId = "0CAB57D4-4FC4-49C3-B456-FB7666EAA712";
shapes = (
{
closed = 1;
nodes = (
(440,-12,o),
(500,46,o),
(500,124,cs),
(500,294,o),
(296,256,o),
(296,378,cs),
(296,462,o),
(408,498,o),
(408,602,cs),
(408,676,o),
(354,732,o),
(268,732,cs),
(166,732,o),
(96,660,o),
(96,538,cs),
(96,0,l),
(126,0,l),
(126,524,ls),
(126,648,o),
(182,704,o),
(266,704,cs),
(338,704,o),
(376,660,o),
(376,600,cs),
(376,508,o),
(264,476,o),
(264,376,cs),
(264,230,o),
(468,270,o),
(468,122,cs),
(468,68,o),
(432,16,o),
(360,16,cs),
(316,16,o),
(280,28,o),
(244,60,c),
(226,40,l),
(262,4,o),
(308,-12,o),
(360,-12,cs)
);
}
);
width = 530;
},
{
layerId = master01;
shapes = (
{
closed = 1;
nodes = (
(486,-12,o),
(547,53,o),
(547,137,cs),
(547,299,o),
(362,277,o),
(362,374,cs),
(362,443,o),
(461,476,o),
(461,576,cs),
(461,655,o),
(397,722,o),
(288,722,cs),
(159,722,o),
(82,639,o),
(82,514,cs),
(82,0,l),
(164,0,l),
(164,498,ls),
(164,603,o),
(212,656,o),
(287,656,cs),
(345,656,o),
(380,619,o),
(380,568,cs),
(380,484,o),
(284,454,o),
(284,364,cs),
(284,225,o),
(469,248,o),
(469,132,cs),
(469,90,o),
(440,52,o),
(385,52,cs),
(347,52,o),
(312,62,o),
(278,89,c),
(247,39,l),
(288,3,o),
(334,-12,o),
(387,-12,cs)
);
}
);
width = 575.632;
}
);
unicode = 223;
}
{
color = 3;
glyphname = ae;
kernLeft = a;
kernRight = e;
layers = (
{
anchors = (
{
name = aboveLC;
pos = (406,522);
},
{
name = belowLC;
pos = (400,-22);
}
);
layerId = "42B3044F-4D5A-45CA-9EB7-C1889731596B";
shapes = (
{
closed = 1;
nodes = (
(255,-12,o),
(304,5,o),
(376,60,c),
(419,15,o),
(476,-12,o),
(546,-12,c),
(602,-12,o),
(674,8,o),
(728,46,c),
(674,148,l),
(638,128,o),
(604,118,o),
(570,118,cs),
(518,118,o),
(476,144,o),
(464,200,c),
(740,200,l),
(742,212,o),
(746,236,o),
(746,266,cs),
(746,400,o),
(680,512,o),
(544,512,c),
(488,512,o),
(446,490,o),
(402,448,c),
(370,488,o),
(322,512,o),
(264,512,cs),
(192,512,o),
(124,488,o),
(54,446,c),
(114,336,l),
(166,364,o),
(204,376,o),
(240,376,cs),
(285,376,o),
(304,359,o),
(308,324,c),
(118,304,o),
(38,246,o),
(38,142,cs),
(38,60,o),
(94,-12,o),
(188,-12,cs)
);
},
{
closed = 1;
nodes = (
(218,120,o),
(202,133,o),
(202,156,cs),
(202,185,o),
(231,210,o),
(306,222,c),
(308,203,ls),
(310,186,o),
(314,168,o),
(320,150,c),
(300,132,o),
(277,120,o),
(248,120,cs)
);
},
{
closed = 1;
nodes = (
(474,358,o),
(500,382,o),
(538,382,cs),
(576,382,o),
(600,354,o),
(600,308,c),
(464,308,l)
);
}
);
width = 782;
},
{
anchors = (
{
name = aboveLC;
pos = (406,502);
},
{
name = belowLC;
pos = (420,-22);
}
);
layerId = "0CAB57D4-4FC4-49C3-B456-FB7666EAA712";
shapes = (
{
closed = 1;
nodes = (
(258,-12,o),
(340,28,o),
(402,90,c),
(436,40,o),
(486,-12,o),
(574,-12,cs),
(646,-12,o),
(682,8,o),
(718,34,c),
(704,56,l),
(670,30,o),
(630,16,o),
(576,16,cs),
(474,16,o),
(396,110,o),
(398,238,c),
(736,238,l),
(738,250,o),
(738,260,o),
(738,270,cs),
(738,412,o),
(672,490,o),
(562,490,cs),
(490,490,o),
(426,440,o),
(392,364,c),
(378,440,o),
(332,490,o),
(252,490,cs),
(180,490,o),
(114,452,o),
(84,428,c),
(100,406,l),
(130,428,o),
(188,462,o),
(250,462,cs),
(350,462,o),
(370,376,o),
(368,298,c),
(160,274,o),
(60,224,o),
(60,116,cs),
(60,26,o),
(124,-12,o),
(198,-12,cs)
);
},
{
closed = 1;
nodes = (
(142,16,o),
(92,44,o),
(92,118,cs),
(92,200,o),
(168,248,o),
(368,272,c),
(368,244,ls),
(368,196,o),
(376,146,o),
(390,116,c),
(332,52,o),
(254,16,o),
(200,16,cs)
);
},
{
closed = 1;
nodes = (
(408,380,o),
(478,462,o),
(562,462,cs),
(652,462,o),
(708,396,o),
(708,264,c),
(398,264,l)
);
}
);
width = 776;
},
{
anchors = (
{
name = aboveLC;
pos = (406,509);
},
{
name = belowLC;
pos = (413,-22);
}
);
layerId = master01;
shapes = (
{
closed = 1;
nodes = (
(257,-12,o),
(327,20,o),
(392,79,c),
(430,31,o),
(482,-12,o),
(564,-12,cs),
(630,-12,o),
(679,8,o),
(722,38,c),
(693,90,l),
(658,66,o),
(620,54,o),
(574,54,cs),
(490,54,o),
(425,123,o),
(422,224,c),
(737,224,l),
(739,236,o),
(741,251,o),
(741,269,cs),
(741,408,o),
(675,498,o),
(555,498,cs),
(489,498,o),
(433,458,o),
(396,395,c),
(375,458,o),
(328,498,o),
(256,498,cs),
(184,498,o),
(118,465,o),
(73,435,c),
(105,380,l),
(143,404,o),
(194,430,o),
(246,430,cs),
(326,430,o),
(346,370,o),
(346,308,c),
(145,285,o),
(52,232,o),
(52,126,cs),
(52,39,o),
(113,-12,o),
(194,-12,cs)
);
},
{
closed = 1;
nodes = (
(170,54,o),
(132,77,o),
(132,132,cs),
(132,194,o),
(191,234,o),
(345,254,c),
(346,229,ls),
(347,192,o),
(353,154,o),
(364,129,c),
(320,81,o),
(262,54,o),
(218,54,cs)
);
},
{
closed = 1;
nodes = (
(432,372,o),
(486,433,o),
(553,433,cs),
(624,433,o),
(668,381,o),
(668,280,c),
(422,280,l)
);
}
);
width = 778;
}
);
unicode = 230;
}
{
color = 3;
glyphname = eth;
kernLeft = eth;
kernRight = eth;
layers = (
{
anchors = (
{
name = aboveUC;
pos = (300,722);
},
{
name = belowLC;
pos = (270,-22);
}
);
layerId = "42B3044F-4D5A-45CA-9EB7-C1889731596B";
shapes = (
{
closed = 1;
nodes = (
(428,-12,o),
(520,108,o),
(520,270,cs),
(520,536,o),
(336,664,o),
(157,744,c),
(83,640,l),
(274,554,o),
(360,452,o),
(360,260,cs),
(360,162,o),
(324,126,o),
(280,126,cs),
(234,126,o),
(194,160,o),
(194,230,cs),
(194,305,o),
(231,332,o),
(276,332,cs),
(310,332,o),
(340,321,o),
(366,292,c),
(364,378,l),
(344,438,o),
(292,458,o),
(244,458,cs),
(142,458,o),
(38,376,o),
(38,230,cs),
(38,82,o),
(146,-12,o),
(274,-12,cs)
);
},
{
closed = 1;
nodes = (
(492,658,l),
(450,734,l),
(64,542,l),
(106,466,l)
);
}
);
width = 562;
},
{
anchors = (
{
name = aboveUC;
pos = (280,732);
},
{
name = belowLC;
pos = (270,-22);
}
);
layerId = "0CAB57D4-4FC4-49C3-B456-FB7666EAA712";
shapes = (
{
closed = 1;
nodes = (
(382,-12,o),
(464,90,o),
(464,250,cs),
(464,520,o),
(318,650,o),
(132,724,c),
(118,702,l),
(296,626,o),
(432,512,o),
(432,250,cs),
(432,122,o),
(382,16,o),
(266,16,cs),
(172,16,o),
(94,100,o),
(94,218,cs),
(94,320,o),
(153,412,o),
(268,412,cs),
(322,412,o),
(378,394,o),
(434,308,c),
(434,346,l),
(392,408,o),
(334,440,o),
(270,440,cs),
(144,440,o),
(62,348,o),
(62,218,cs),
(62,74,o),
(162,-12,o),
(266,-12,cs)
);
},
{
closed = 1;
nodes = (
(444,678,l),
(432,700,l),
(130,542,l),
(142,520,l)
);
}
);
width = 532;
},
{
anchors = (
{
name = aboveUC;
pos = (287,728);
},
{
name = belowLC;
pos = (270,-22);
}
);
layerId = master01;
shapes = (
{
closed = 1;
nodes = (
(399,-12,o),
(485,97,o),
(485,257,cs),
(485,526,o),
(325,655,o),
(141,731,c),
(105,679,l),
(288,600,o),
(406,490,o),
(406,254,cs),
(406,137,o),
(361,56,o),
(271,56,cs),
(195,56,o),
(131,122,o),
(131,222,cs),
(131,314,o),
(182,383,o),
(271,383,cs),
(318,383,o),
(364,367,o),
(409,302,c),
(408,358,l),
(374,419,o),
(319,447,o),
(260,447,cs),
(143,447,o),
(53,358,o),
(53,222,cs),
(53,77,o),
(156,-12,o),
(269,-12,cs)
);
},
{
closed = 1;
nodes = (
(462,671,l),
(439,713,l),
(106,542,l),
(129,500,l)
);
}
);
width = 543;
}
);
unicode = 240;
}
{
color = 3;
glyphname = divide;
layers = (
{
layerId = "42B3044F-4D5A-45CA-9EB7-C1889731596B";
shapes = (
{
closed = 1;
nodes = (
(506,270,l),
(506,390,l),
(34,390,l),
(34,270,l)
);
},
{
closed = 1;
nodes = (
(322,64,o),
(362,100,o),
(362,150,cs),
(362,200,o),
(322,236,o),
(270,236,cs),
(218,236,o),
(178,200,o),
(178,150,cs),
(178,100,o),
(218,64,o),
(270,64,cs)
);
},
{
closed = 1;
nodes = (
(322,424,o),
(362,460,o),
(362,510,cs),
(362,560,o),
(322,596,o),
(270,596,cs),
(218,596,o),
(178,560,o),
(178,510,cs),
(178,460,o),
(218,424,o),
(270,424,cs)
);
}
);
width = 540;
},
{
layerId = "0CAB57D4-4FC4-49C3-B456-FB7666EAA712";
shapes = (
{
closed = 1;
nodes = (
(438,316,l),
(438,344,l),
(34,344,l),
(34,316,l)
);
},
{
closed = 1;
nodes = (
(254,114,o),
(268,128,o),
(268,150,cs),
(268,170,o),
(254,184,o),
(236,184,cs),
(218,184,o),
(204,170,o),
(204,150,cs),
(204,128,o),
(218,114,o),
(236,114,cs)
);
},
{
closed = 1;
nodes = (
(254,474,o),
(268,488,o),
(268,510,cs),
(268,530,o),
(254,544,o),
(236,544,cs),
(218,544,o),
(204,530,o),
(204,510,cs),
(204,488,o),
(218,474,o),
(236,474,cs)
);
}
);
width = 472;
},
{
layerId = master01;
shapes = (
{
closed = 1;
nodes = (
(463,299,l),
(463,361,l),
(34,361,l),
(34,299,l)
);
},
{
closed = 1;
nodes = (
(279,96,o),
(303,118,o),
(303,150,cs),
(303,181,o),
(279,203,o),
(249,203,cs),
(218,203,o),
(194,181,o),
(194,150,cs),
(194,118,o),
(218,96,o),
(249,96,cs)
);
},
{
closed = 1;
nodes = (
(279,456,o),
(303,478,o),
(303,510,cs),
(303,541,o),
(279,563,o),
(249,563,cs),
(218,563,o),
(194,541,o),
(194,510,cs),
(194,478,o),
(218,456,o),
(249,456,cs)
);
}
);
width = 497.024;
}
);
unicode = 247;
}
{
color = 3;
glyphname = oslash;
kernLeft = o;
kernRight = o;
layers = (
{
anchors = (
{
name = aboveLC;
pos = (280,522);
},
{
name = belowLC;
pos = (280,-22);
}
);
layerId = "42B3044F-4D5A-45CA-9EB7-C1889731596B";
shapes = (
{
closed = 1;
nodes = (
(408,-12,o),
(528,84,o),
(528,250,cs),
(528,416,o),
(408,512,o),
(280,512,cs),
(152,512,o),
(32,416,o),
(32,250,cs),
(32,84,o),
(152,-12,o),
(280,-12,cs)
);
},
{
closed = 1;
nodes = (
(226,120,o),
(198,162,o),
(198,260,cs),
(198,332,o),
(228,380,o),
(280,380,cs),
(334,380,o),
(362,338,o),
(362,240,cs),
(362,168,o),
(332,120,o),
(280,120,cs)
);
},
{
closed = 1;
nodes = (
(514,480,l),
(452,528,l),
(46,22,l),
(108,-26,l)
);
}
);
width = 560;
},
{
anchors = (
{
name = aboveLC;
pos = (266,502);
},
{
name = belowLC;
pos = (266,-22);
}
);
layerId = "0CAB57D4-4FC4-49C3-B456-FB7666EAA712";
shapes = (
{
closed = 1;
nodes = (
(380,-12,o),
(478,80,o),
(478,238,cs),
(478,398,o),
(380,490,o),
(266,490,cs),
(152,490,o),
(54,398,o),
(54,238,cs),
(54,80,o),
(152,-12,o),
(266,-12,cs)
);
},
{
closed = 1;
nodes = (
(164,16,o),
(86,106,o),
(86,238,cs),
(86,370,o),
(164,462,o),
(266,462,cs),
(368,462,o),
(446,370,o),
(446,238,cs),
(446,106,o),
(368,16,o),
(266,16,cs)
);
},
{
closed = 1;
nodes = (
(486,480,l),
(464,498,l),
(46,-4,l),
(68,-22,l)
);
}
);
width = 532;
},
{
anchors = (
{
name = aboveLC;
pos = (271,509);
},
{
name = belowLC;
pos = (271,-22);
}
);
layerId = master01;
shapes = (
{
closed = 1;
nodes = (
(390,-12,o),
(496,81,o),
(496,242,cs),
(496,405,o),
(390,498,o),
(271,498,cs),
(152,498,o),
(46,405,o),
(46,242,cs),
(46,81,o),
(152,-12,o),
(271,-12,cs)
);
},
{
closed = 1;
nodes = (
(187,54,o),
(127,127,o),
(127,246,cs),
(127,356,o),
(188,432,o),
(271,432,cs),
(355,432,o),
(415,358,o),
(415,239,cs),
(415,129,o),
(355,54,o),
(271,54,cs)
);
},
{
closed = 1;
nodes = (
(496,480,l),
(460,509,l),
(46,6,l),
(83,-23,l)
);
}
);
width = 542;
}
);
unicode = 248;
}
{
color = 3;
glyphname = thorn;
kernLeft = l;
kernRight = o;
layers = (
{
anchors = (
{
name = aboveUC;
pos = (150,722);
},
{
name = belowLC;
pos = (150,-182);
}
);
layerId = "42B3044F-4D5A-45CA-9EB7-C1889731596B";
shapes = (
{
closed = 1;
nodes = (
(230,-176,l),
(230,-38,l),
(226,32,l),
(256,4,o),
(288,-12,o),
(336,-12,cs),
(442,-12,o),
(544,86,o),
(544,258,cs),
(544,412,o),
(464,512,o),
(340,512,cs),
(298,512,o),
(257,496,o),
(226,468,c),
(230,534,l),
(230,696,l),
(58,696,l),
(58,-176,l)
);
},
{
closed = 1;
nodes = (
(272,128,o),
(250,134,o),
(230,152,c),
(230,336,l),
(252,362,o),
(272,372,o),
(298,372,cs),
(344,372,o),
(368,338,o),
(368,256,cs),
(368,160,o),
(334,128,o),
(294,128,cs)
);
}
);
width = 580;
},
{
anchors = (
{
name = aboveUC;
pos = (280,732);
},
{
name = belowLC;
pos = (120,-222);
}
);
layerId = "0CAB57D4-4FC4-49C3-B456-FB7666EAA712";
shapes = (
{
closed = 1;
nodes = (
(126,-222,l),
(126,-42,l),
(126,48,l),
(178,10,o),
(228,-12,o),
(274,-12,cs),
(388,-12,o),
(486,84,o),
(486,246,cs),
(486,394,o),
(424,490,o),
(294,490,cs),
(234,490,o),
(176,454,o),
(126,416,c),
(126,510,l),
(126,722,l),
(96,722,l),
(96,-222,l)
);
},
{
closed = 1;
nodes = (
(238,16,o),
(184,34,o),
(126,82,c),
(126,378,l),
(188,432,o),
(242,462,o),
(292,462,cs),
(410,462,o),
(454,368,o),
(454,246,cs),
(454,112,o),
(380,16,o),
(276,16,cs)
);
}
);
width = 540;
},
{
anchors = (
{
name = aboveUC;
pos = (232,728);
},
{
name = belowLC;
pos = (131,-207);
}
);
layerId = master01;
shapes = (
{
closed = 1;
nodes = (
(164,-205,l),
(164,-41,l),
(163,42,l),
(207,8,o),
(250,-12,o),
(297,-12,cs),
(408,-12,o),
(507,85,o),
(507,250,cs),
(507,401,o),
(439,498,o),
(311,498,cs),
(258,498,o),
(206,469,o),
(163,435,c),
(164,519,l),
(164,712,l),
(82,712,l),
(82,-205,l)
);
},
{
closed = 1;
nodes = (
(251,57,o),
(208,71,o),
(164,108,c),
(164,363,l),
(212,406,o),
(253,429,o),
(294,429,cs),
(386,429,o),
(422,357,o),
(422,250,cs),
(422,130,o),
(363,57,o),
(283,57,cs)
);
}
);
width = 555;
}
);
unicode = 254;
}
{
color = 3;
glyphname = Aogonek;
kernLeft = A;
kernRight = A;
layers = (
{
anchors = (
{
name = aboveUC;
pos = (290,672);
}
);
layerId = "42B3044F-4D5A-45CA-9EB7-C1889731596B";
shapes = (
{
closed = 1;
nodes = (
(544,-228,o),
(594,-212,o),
(624,-190,c),
(586,-94,l),
(576,-100,o),
(560,-108,o),
(544,-108,cs),
(518,-108,o),
(502,-98,o),
(502,-74,cs),
(502,-39,o),
(538,0,o),
(594,0,c),
(396,650,l),
(188,650,l),
(-10,0,l),
(166,0,l),
(240,316,ls),
(256,378,o),
(272,456,o),
(286,522,c),
(290,522,l),
(306,457,o),
(322,378,o),
(338,316,cs),
(412,0,l),
(450,0,l),
(418,-16,o),
(368,-62,o),
(368,-126,cs),
(368,-191,o),
(428,-228,o),
(504,-228,cs)
);
},
{
closed = 1;
nodes = (
(450,138,l),
(450,271,l),
(132,271,l),
(132,138,l)
);
}
);
width = 584;
},
{
anchors = (
{
name = aboveUC;
pos = (260,682);
}
);
layerId = "0CAB57D4-4FC4-49C3-B456-FB7666EAA712";
shapes = (
{
closed = 1;
nodes = (
(518,-214,o),
(544,-200,o),
(560,-186,c),
(546,-166,l),
(528,-180,o),
(512,-186,o),
(490,-186,cs),
(460,-186,o),
(430,-168,o),
(430,-126,cs),
(430,-82,o),
(467,-33,o),
(510,0,c),
(274,660,l),
(246,660,l),
(10,0,l),
(42,0,l),
(182,396,ls),
(210,476,o),
(234,544,o),
(258,626,c),
(262,626,l),
(286,544,o),
(310,476,o),
(338,396,cs),
(476,0,l),
(478,0,l),
(439,-28,o),
(400,-77,o),
(400,-128,cs),
(400,-188,o),
(440,-214,o),
(488,-214,cs)
);
},
{
closed = 1;
nodes = (
(406,236,l),
(406,264,l),
(112,264,l),
(112,236,l)
);
}
);
width = 520;
},
{
anchors = (
{
name = aboveUC;
pos = (271,678);
}
);
layerId = master01;
shapes = (
{
closed = 1;
nodes = (
(528,-219,o),
(562,-204,o),
(584,-187,c),
(561,-140,l),
(546,-151,o),
(530,-157,o),
(510,-157,cs),
(481,-157,o),
(456,-142,o),
(456,-107,cs),
(456,-66,o),
(493,-21,o),
(541,0,c),
(319,656,l),
(225,656,l),
(3,0,l),
(88,0,l),
(203,367,ls),
(227,440,o),
(248,512,o),
(268,588,c),
(272,588,l),
(293,512,o),
(314,440,o),
(338,367,cs),
(452,0,l),
(468,0,l),
(431,-24,o),
(388,-71,o),
(388,-127,cs),
(388,-189,o),
(436,-219,o),
(494,-219,cs)
);
},
{
closed = 1;
nodes = (
(422,200,l),
(422,267,l),
(119,267,l),
(119,200,l)
);
}
);
width = 543.552;
}
);
unicode = 260;
}
{
color = 3;
glyphname = aogonek;
kernLeft = a;
kernRight = a;
layers = (
{
anchors = (
{
name = aboveLC;
pos = (280,522);
}
);
layerId = "42B3044F-4D5A-45CA-9EB7-C1889731596B";
shapes = (
{
closed = 1;
nodes = (
(444,-220,o),
(492,-206,o),
(522,-184,c),
(488,-96,l),
(476,-102,o),
(460,-108,o),
(442,-108,cs),
(424,-108,o),
(404,-98,o),
(404,-76,cs),
(404,-49,o),
(422,-14,o),
(482,0,c),
(482,278,ls),
(482,442,o),
(404,512,o),
(274,512,cs),
(196,512,o),
(124,488,o),
(54,446,c),
(114,336,l),
(166,364,o),
(204,376,o),
(240,376,cs),
(284,376,o),
(306,360,o),
(310,324,c),
(118,304,o),
(38,246,o),
(38,142,cs),
(38,60,o),
(94,-12,o),
(188,-12,cs),
(242,-12,o),
(286,12,o),
(326,48,c),
(330,48,l),
(344,-4,l),
(320,-18,o),
(280,-58,o),
(280,-116,cs),
(280,-186,o),
(336,-220,o),
(406,-220,cs)
);
},
{
closed = 1;
nodes = (
(218,120,o),
(202,133,o),
(202,156,cs),
(202,184,o),
(228,210,o),
(310,222,c),
(310,154,l),
(292,134,o),
(276,120,o),
(248,120,cs)
);
}
);
width = 536;
},
{
anchors = (
{
name = aboveLC;
pos = (260,502);
}
);
layerId = "0CAB57D4-4FC4-49C3-B456-FB7666EAA712";
shapes = (
{
closed = 1;
nodes = (
(408,-212,o),
(432,-198,o),
(448,-184,c),
(434,-164,l),
(416,-178,o),
(402,-184,o),
(380,-184,cs),
(350,-184,o),
(322,-166,o),
(322,-124,cs),
(322,-80,o),
(360,-28,o),
(404,0,c),
(404,310,ls),
(404,406,o),
(370,490,o),
(258,490,cs),
(180,490,o),
(114,452,o),
(84,428,c),
(100,406,l),
(130,428,o),
(188,462,o),
(256,462,cs),
(356,462,o),
(376,376,o),
(374,298,c),
(158,274,o),
(60,224,o),
(60,116,cs),
(60,26,o),
(124,-12,o),
(198,-12,cs),
(262,-12,o),
(322,24,o),
(372,64,c),
(374,64,l),
(378,8,l),
(332,-24,o),
(292,-76,o),
(292,-126,cs),
(292,-186,o),
(330,-212,o),
(378,-212,cs)
);
},
{
closed = 1;
nodes = (
(142,16,o),
(92,44,o),
(92,118,cs),
(92,200,o),
(164,248,o),
(374,272,c),
(374,98,l),
(310,44,o),
(258,16,o),
(200,16,cs)
);
}
);
width = 486;
},
{
anchors = (
{
name = aboveLC;
pos = (267,509);
}
);
layerId = master01;
shapes = (
{
closed = 1;
nodes = (
(421,-215,o),
(454,-201,o),
(475,-184,c),
(454,-139,l),
(438,-150,o),
(423,-156,o),
(403,-156,cs),
(377,-156,o),
(352,-141,o),
(352,-106,cs),
(352,-69,o),
(383,-23,o),
(433,0,c),
(433,298,ls),
(433,419,o),
(383,498,o),
(264,498,cs),
(186,498,o),
(118,465,o),
(73,435,c),
(105,380,l),
(143,404,o),
(194,430,o),
(250,430,cs),
(330,430,o),
(350,370,o),
(350,308,c),
(143,285,o),
(52,232,o),
(52,126,cs),
(52,39,o),
(113,-12,o),
(194,-12,cs),
(255,-12,o),
(309,20,o),
(355,58,c),
(358,58,l),
(365,4,l),
(328,-22,o),
(288,-69,o),
(288,-122,cs),
(288,-186,o),
(332,-215,o),
(388,-215,cs)
);
},
{
closed = 1;
nodes = (
(170,54,o),
(132,77,o),
(132,132,cs),
(132,194,o),
(188,234,o),
(350,254,c),
(350,119,l),
(303,77,o),
(265,54,o),
(218,54,cs)
);
}
);
width = 504;
}
);
unicode = 261;
}
{
color = 3;
glyphname = dcroat;
kernLeft = o;
kernRight = dcroat;
layers = (
{
anchors = (
{
name = aboveUC;
pos = (280,722);
},
{
name = belowLC;
pos = (280,-22);
}
);
layerId = "42B3044F-4D5A-45CA-9EB7-C1889731596B";
shapes = (
{
closed = 1;
nodes = (
(286,-12,o),
(331,8,o),
(364,40,c),
(368,40,l),
(378,0,l),
(522,0,l),
(522,696,l),
(350,696,l),
(350,484,l),
(356,412,l),
(326,442,o),
(294,462,o),
(240,462,cs),
(138,462,o),
(36,368,o),
(36,226,cs),
(36,84,o),
(116,-12,o),
(240,-12,cs)
);
},
{
closed = 1;
nodes = (
(240,128,o),
(212,160,o),
(212,228,cs),
(212,294,o),
(246,322,o),
(282,322,cs),
(304,322,o),
(329,315,o),
(350,296,c),
(350,164,l),
(332,136,o),
(312,128,o),
(286,128,cs)
);
},
{
closed = 1;
nodes = (
(512,518,l),
(588,524,l),
(588,630,l),
(186,630,l),
(186,518,l)
);
}
);
width = 580;
},
{
anchors = (
{
name = aboveUC;
pos = (260,732);
},
{
name = belowLC;
pos = (270,-22);
}
);
layerId = "0CAB57D4-4FC4-49C3-B456-FB7666EAA712";
shapes = (
{
closed = 1;
nodes = (
(318,-12,o),
(372,24,o),
(412,64,c),
(414,64,l),
(418,0,l),
(444,0,l),
(444,722,l),
(414,722,l),
(414,488,l),
(416,398,l),
(366,436,o),
(326,458,o),
(268,458,cs),
(152,458,o),
(54,366,o),
(54,222,cs),
(54,70,o),
(132,-12,o),
(252,-12,cs)
);
},
{
closed = 1;
nodes = (
(146,16,o),
(86,100,o),
(86,222,cs),
(86,336,o),
(164,430,o),
(266,430,cs),
(316,430,o),
(360,412,o),
(414,364,c),
(414,100,l),
(360,46,o),
(310,16,o),
(254,16,cs)
);
},
{
closed = 1;
nodes = (
(444,584,l),
(538,588,l),
(538,612,l),
(222,612,l),
(222,584,l)
);
}
);
width = 560;
},
{
anchors = (
{
name = aboveUC;
pos = (267,728);
},
{
name = belowLC;
pos = (274,-22);
}
);
layerId = master01;
shapes = (
{
closed = 1;
nodes = (
(306,-12,o),
(357,18,o),
(394,55,c),
(397,55,l),
(403,0,l),
(473,0,l),
(473,712,l),
(390,712,l),
(390,487,l),
(394,403,l),
(351,438,o),
(314,459,o),
(258,459,cs),
(147,459,o),
(47,367,o),
(47,223,cs),
(47,75,o),
(126,-12,o),
(248,-12,cs)
);
},
{
closed = 1;
nodes = (
(181,57,o),
(132,122,o),
(132,224,cs),
(132,321,o),
(194,390,o),
(272,390,cs),
(312,390,o),
(349,376,o),
(390,339,c),
(390,124,l),
(350,79,o),
(311,57,o),
(266,57,cs)
);
},
{
closed = 1;
nodes = (
(469,560,l),
(556,564,l),
(556,619,l),
(209,619,l),
(209,560,l)
);
}
);
width = 567;
}
);
unicode = 273;
}
{
color = 3;
glyphname = Eogonek;
kernLeft = H;
kernRight = E;
layers = (
{
anchors = (
{
name = aboveUC;
pos = (290,672);
},
{
name = belowLC;
pos = (300,-222);
}
);
guides = (
{
pos = (502,0);
}
);
layerId = "42B3044F-4D5A-45CA-9EB7-C1889731596B";
shapes = (
{
closed = 1;
nodes = (
(446,-228,o),
(496,-212,o),
(526,-190,c),
(488,-94,l),
(478,-100,o),
(462,-108,o),
(446,-108,cs),
(420,-108,o),
(404,-98,o),
(404,-74,cs),
(404,-41,o),
(442,0,o),
(488,0,cs),
(502,0,l),
(502,144,l),
(244,144,l),
(244,260,l),
(456,260,l),
(456,404,l),
(244,404,l),
(244,506,l),
(492,506,l),
(492,650,l),
(72,650,l),
(72,0,l),
(350,0,l),
(314,-20,o),
(270,-66,o),
(270,-126,cs),
(270,-190,o),
(330,-228,o),
(406,-228,cs)
);
}
);
userData = {
com.typemytype.robofont.guideline.magnetic.yIkjezyuWv = 5;
};
width = 556;
},
{
anchors = (
{
name = aboveUC;
pos = (290,682);
},
{
name = belowLC;
pos = (300,-222);
}
);
layerId = "0CAB57D4-4FC4-49C3-B456-FB7666EAA712";
shapes = (
{
closed = 1;
nodes = (
(446,-214,o),
(472,-200,o),
(488,-186,c),
(474,-166,l),
(456,-180,o),
(440,-186,o),
(418,-186,cs),
(388,-186,o),
(358,-168,o),
(358,-126,cs),
(358,-64,o),
(426,0,o),
(462,0,cs),
(464,0,l),
(464,28,l),
(132,28,l),
(132,338,l),
(402,338,l),
(402,366,l),
(132,366,l),
(132,632,l),
(454,632,l),
(454,660,l),
(100,660,l),
(100,0,l),
(408,0,l),
(364,-28,o),
(328,-74,o),
(328,-128,cs),
(328,-188,o),
(368,-214,o),
(416,-214,cs)
);
}
);
width = 510;
},
{
anchors = (
{
name = aboveUC;
pos = (290,678);
},
{
name = belowLC;
pos = (300,-222);
}
);
layerId = master01;
shapes = (
{
closed = 1;
nodes = (
(446,-219,o),
(481,-204,o),
(502,-187,c),
(479,-140,l),
(464,-151,o),
(448,-157,o),
(428,-157,cs),
(400,-157,o),
(375,-142,o),
(375,-107,cs),
(375,-56,o),
(432,0,o),
(472,0,cs),
(478,0,l),
(478,71,l),
(173,71,l),
(173,309,l),
(422,309,l),
(422,380,l),
(173,380,l),
(173,586,l),
(468,586,l),
(468,656,l),
(90,656,l),
(90,0,l),
(387,0,l),
(346,-25,o),
(307,-71,o),
(307,-127,cs),
(307,-189,o),
(354,-219,o),
(412,-219,cs)
);
}
);
width = 526.928;
}
);
unicode = 280;
}
{
color = 3;
glyphname = eogonek;
kernLeft = o;
kernRight = e;
layers = (
{
anchors = (
{
name = aboveLC;
pos = (270,522);
},
{
name = belowLC;
pos = (280,-222);
}
);
layerId = "42B3044F-4D5A-45CA-9EB7-C1889731596B";
shapes = (
{
closed = 1;
nodes = (
(406,-220,o),
(454,-206,o),
(484,-184,c),
(450,-96,l),
(438,-102,o),
(422,-108,o),
(404,-108,cs),
(386,-108,o),
(366,-98,o),
(366,-76,cs),
(366,-40,o),
(384,-14,o),
(472,46,c),
(418,148,l),
(382,128,o),
(348,118,o),
(314,118,cs),
(256,118,o),
(194,140,o),
(190,250,cs),
(186,352,o),
(234,382,o),
(276,382,cs),
(328,382,o),
(344,348,o),
(344,310,c),
(166,310,l),
(168,198,l),
(483,198,l),
(486,210,o),
(490,240,o),
(490,270,cs),
(490,404,o),
(420,512,o),
(272,512,cs),
(150,512,o),
(32,412,o),
(32,250,cs),
(32,84,o),
(144,-12,o),
(290,-12,cs),
(300,-12,o),
(314,-8,o),
(320,-6,c),
(318,-2,l),
(266,-36,o),
(242,-70,o),
(242,-116,cs),
(242,-186,o),
(298,-220,o),
(368,-220,cs)
);
}
);
width = 526;
},
{
anchors = (
{
name = aboveLC;
pos = (260,502);
},
{
name = belowLC;
pos = (260,-222);
}
);
layerId = "0CAB57D4-4FC4-49C3-B456-FB7666EAA712";
shapes = (
{
closed = 1;
nodes = (
(386,-212,o),
(410,-198,o),
(426,-184,c),
(412,-164,l),
(394,-178,o),
(380,-184,o),
(358,-184,cs),
(328,-184,o),
(300,-166,o),
(300,-124,cs),
(300,-74,o),
(346,-10,o),
(420,34,c),
(406,56,l),
(372,32,o),
(328,16,o),
(274,16,cs),
(167,16,o),
(86,104,o),
(86,240,cs),
(86,388,o),
(176,462,o),
(260,462,cs),
(350,462,o),
(410,398,o),
(410,266,c),
(70,266,l),
(70,238,l),
(438,238,l),
(440,250,o),
(440,260,o),
(440,270,cs),
(440,412,o),
(370,490,o),
(260,490,cs),
(154,490,o),
(54,394,o),
(54,238,cs),
(54,82,o),
(152,-12,o),
(272,-12,cs),
(304,-12,o),
(340,-6,o),
(368,8,c),
(362,16,l),
(310,-24,o),
(270,-72,o),
(270,-126,cs),
(270,-186,o),
(308,-212,o),
(356,-212,cs)
);
}
);
width = 478;
},
{
anchors = (
{
name = aboveLC;
pos = (264,509);
},
{
name = belowLC;
pos = (267,-222);
}
);
layerId = master01;
shapes = (
{
closed = 1;
nodes = (
(393,-215,o),
(426,-201,o),
(447,-184,c),
(426,-139,l),
(410,-150,o),
(395,-156,o),
(375,-156,cs),
(349,-156,o),
(324,-141,o),
(324,-106,cs),
(324,-61,o),
(360,-11,o),
(439,38,c),
(410,90,l),
(376,67,o),
(335,54,o),
(289,54,cs),
(200,54,o),
(126,117,o),
(124,244,cs),
(123,375,o),
(197,433,o),
(266,433,cs),
(342,433,o),
(386,380,o),
(386,282,c),
(105,282,l),
(106,223,l),
(455,223,l),
(457,235,o),
(458,253,o),
(458,270,cs),
(458,409,o),
(388,498,o),
(264,498,cs),
(153,498,o),
(46,401,o),
(46,242,cs),
(46,83,o),
(149,-12,o),
(279,-12,cs),
(303,-12,o),
(330,-7,o),
(350,3,c),
(346,9,l),
(294,-28,o),
(260,-71,o),
(260,-122,cs),
(260,-186,o),
(304,-215,o),
(360,-215,cs)
);
}
);
width = 496;
}
);
unicode = 281;
}
{
color = 3;
glyphname = gcommaaccent;
kernLeft = g;
kernRight = g;
layers = (
{
anchors = (
{
name = _aboveLC;
pos = (276,522);
}
);
layerId = "42B3044F-4D5A-45CA-9EB7-C1889731596B";
shapes = (
{
ref = g;
},
{
closed = 1;
nodes = (
(356,626,l),
(312,630,o),
(296,642,o),
(296,658,cs),
(296,680,o),
(320,690,o),
(396,694,c),
(384,760,l),
(252,756,o),
(174,724,o),
(174,652,cs),
(174,602,o),
(210,574,o),
(324,566,c)
);
}
);
width = 546;
},
{
anchors = (
{
name = _aboveLC;
pos = (250,502);
}
);
layerId = "0CAB57D4-4FC4-49C3-B456-FB7666EAA712";
shapes = (
{
ref = g;
},
{
closed = 1;
nodes = (
(294,606,l),
(246,610,o),
(216,622,o),
(216,654,cs),
(216,684,o),
(242,702,o),
(330,708,c),
(324,734,l),
(234,728,o),
(186,702,o),
(186,652,cs),
(186,610,o),
(212,592,o),
(284,580,c)
);
}
);
width = 480;
},
{
anchors = (
{
name = _aboveLC;
pos = (260,509);
}
);
layerId = master01;
shapes = (
{
alignment = -1;
ref = g;
},
{
closed = 1;
nodes = (
(317,613,l),
(270,617,o),
(245,629,o),
(245,655,cs),
(245,683,o),
(271,698,o),
(354,703,c),
(346,744,l),
(241,738,o),
(182,710,o),
(182,652,cs),
(182,607,o),
(211,585,o),
(299,575,c)
);
}
);
width = 504.288;
}
);
unicode = 291;
}
{
color = 3;
glyphname = Hbar;
kernLeft = HBAR;
kernRight = HBAR;
layers = (
{
layerId = "42B3044F-4D5A-45CA-9EB7-C1889731596B";
shapes = (
{
closed = 1;
nodes = (
(700,470,l),
(700,582,l),
(98,582,l),
(22,576,l),
(22,470,l)
);
},
{
pos = (20,0);
ref = H;
}
);
width = 722;
},
{
layerId = "0CAB57D4-4FC4-49C3-B456-FB7666EAA712";
shapes = (
{
closed = 1;
nodes = (
(648,496,l),
(648,524,l),
(122,524,l),
(22,520,l),
(22,496,l)
);
},
{
pos = (20,0);
ref = H;
}
);
width = 674;
},
{
layerId = master01;
shapes = (
{
closed = 1;
nodes = (
(667,486,l),
(667,545,l),
(113,545,l),
(22,541,l),
(22,486,l)
);
},
{
alignment = -1;
pos = (20,0);
ref = H;
}
);
width = 691.664;
}
);
unicode = 294;
}
{
color = 3;
glyphname = hbar;
kernLeft = hbar;
kernRight = n;
layers = (
{
layerId = "42B3044F-4D5A-45CA-9EB7-C1889731596B";
shapes = (
{
closed = 1;
nodes = (
(230,0,l),
(230,278,l),
(256,302,o),
(274,316,o),
(306,316,cs),
(340,316,o),
(356,300,o),
(356,236,cs),
(356,0,l),
(528,0,l),
(528,258,ls),
(528,382,o),
(482,462,o),
(372,462,cs),
(304,462,o),
(256,428,o),
(222,398,c),
(230,484,l),
(230,696,l),
(58,696,l),
(58,0,l)
);
},
{
closed = 1;
nodes = (
(394,518,l),
(394,630,l),
(68,630,l),
(-8,624,l),
(-8,518,l)
);
}
);
width = 582;
},
{
layerId = "0CAB57D4-4FC4-49C3-B456-FB7666EAA712";
shapes = (
{
closed = 1;
nodes = (
(146,0,l),
(146,334,l),
(208,398,o),
(252,430,o),
(312,430,cs),
(394,430,o),
(428,378,o),
(428,272,cs),
(428,0,l),
(458,0,l),
(458,276,ls),
(458,400,o),
(412,458,o),
(314,458,cs),
(248,458,o),
(198,420,o),
(146,368,c),
(146,476,l),
(146,722,l),
(116,722,l),
(116,0,l)
);
},
{
closed = 1;
nodes = (
(338,584,l),
(338,612,l),
(116,612,l),
(22,608,l),
(22,584,l)
);
}
);
width = 542;
},
{
layerId = master01;
shapes = (
{
closed = 1;
nodes = (
(177,0,l),
(177,313,l),
(226,363,o),
(260,388,o),
(310,388,cs),
(374,388,o),
(402,349,o),
(402,259,cs),
(402,0,l),
(484,0,l),
(484,269,ls),
(484,393,o),
(438,459,o),
(335,459,cs),
(269,459,o),
(219,423,o),
(174,379,c),
(177,479,l),
(177,712,l),
(95,712,l),
(95,0,l)
);
},
{
closed = 1;
nodes = (
(359,560,l),
(359,619,l),
(98,619,l),
(11,614,l),
(11,560,l)
);
}
);
width = 556.72;
}
);
unicode = 295;
}
{
color = 3;
glyphname = Iogonek;
kernLeft = I;
kernRight = I;
layers = (
{
anchors = (
{
name = aboveUC;
pos = (160,672);
}
);
layerId = "42B3044F-4D5A-45CA-9EB7-C1889731596B";
shapes = (
{
closed = 1;
nodes = (
(208,-228,o),
(258,-212,o),
(288,-190,c),
(250,-94,l),
(240,-100,o),
(224,-108,o),
(208,-108,cs),
(182,-108,o),
(166,-98,o),
(166,-74,cs),
(166,-46,o),
(187,-18,o),
(244,0,c),
(244,650,l),
(72,650,l),
(72,0,l),
(112,0,l),
(76,-20,o),
(32,-66,o),
(32,-126,cs),
(32,-190,o),
(92,-228,o),
(168,-228,cs)
);
}
);
width = 316;
},
{
anchors = (
{
name = aboveUC;
pos = (116,682);
}
);
layerId = "0CAB57D4-4FC4-49C3-B456-FB7666EAA712";
shapes = (
{
closed = 1;
nodes = (
(152,-214,o),
(178,-200,o),
(194,-186,c),
(180,-166,l),
(162,-180,o),
(146,-186,o),
(124,-186,cs),
(94,-186,o),
(64,-168,o),
(64,-126,cs),
(64,-82,o),
(98,-38,o),
(132,0,c),
(132,660,l),
(100,660,l),
(100,0,l),
(104,0,l),
(68,-36,o),
(34,-78,o),
(34,-128,cs),
(34,-188,o),
(74,-214,o),
(122,-214,cs)
);
}
);
width = 232;
},
{
anchors = (
{
name = aboveUC;
pos = (132,678);
}
);
layerId = master01;
shapes = (
{
closed = 1;
nodes = (
(173,-219,o),
(207,-204,o),
(229,-187,c),
(206,-140,l),
(191,-151,o),
(175,-157,o),
(155,-157,cs),
(126,-157,o),
(102,-142,o),
(102,-107,cs),
(102,-69,o),
(131,-31,o),
(173,0,c),
(173,656,l),
(90,656,l),
(90,0,l),
(107,0,l),
(71,-30,o),
(33,-74,o),
(33,-127,cs),
(33,-189,o),
(81,-219,o),
(139,-219,cs)
);
}
);
width = 262.912;
}
);
unicode = 302;
}
{
color = 3;
glyphname = iogonek;
kernLeft = i;
kernRight = i;
layers = (
{
anchors = (
{
name = aboveLC;
pos = (144,522);
}
);
layerId = "42B3044F-4D5A-45CA-9EB7-C1889731596B";
shapes = (
{
closed = 1;
nodes = (
(196,-220,o),
(244,-206,o),
(274,-184,c),
(240,-96,l),
(228,-102,o),
(212,-108,o),
(194,-108,cs),
(176,-108,o),
(156,-98,o),
(156,-76,cs),
(156,-48,o),
(172,-16,o),
(230,0,c),
(230,500,l),
(58,500,l),
(58,0,l),
(98,0,l),
(74,-16,o),
(32,-58,o),
(32,-116,cs),
(32,-186,o),
(88,-220,o),
(158,-220,cs)
);
},
{
pos = (144,0);
ref = dotaccentcmb;
}
);
width = 288;
},
{
anchors = (
{
name = aboveLC;
pos = (110,502);
}
);
layerId = "0CAB57D4-4FC4-49C3-B456-FB7666EAA712";
shapes = (
{
closed = 1;
nodes = (
(146,-212,o),
(170,-198,o),
(186,-184,c),
(172,-164,l),
(154,-178,o),
(140,-184,o),
(118,-184,cs),
(88,-184,o),
(60,-166,o),
(60,-124,cs),
(60,-80,o),
(92,-38,o),
(126,0,c),
(126,478,l),
(96,478,l),
(96,0,l),
(98,0,l),
(62,-36,o),
(30,-76,o),
(30,-126,cs),
(30,-186,o),
(68,-212,o),
(116,-212,cs)
);
},
{
pos = (112,0);
ref = dotaccentcmb;
}
);
width = 222;
},
{
anchors = (
{
name = aboveLC;
pos = (123,509);
}
);
layerId = master01;
shapes = (
{
closed = 1;
nodes = (
(164,-215,o),
(197,-201,o),
(218,-184,c),
(197,-139,l),
(181,-150,o),
(166,-156,o),
(146,-156,cs),
(120,-156,o),
(95,-141,o),
(95,-106,cs),
(95,-68,o),
(121,-30,o),
(164,0,c),
(164,486,l),
(82,486,l),
(82,0,l),
(98,0,l),
(66,-29,o),
(31,-69,o),
(31,-122,cs),
(31,-186,o),
(75,-215,o),
(131,-215,cs)
);
},
{
alignment = -1;
pos = (124,0);
ref = dotaccentcmb;
}
);
width = 246;
}
);
unicode = 303;
}
{
color = 3;
glyphname = dotlessi;
kernLeft = n;
kernRight = u;
layers = (
{
anchors = (
{
name = aboveLC;
pos = (144,522);
},
{
name = belowLC;
pos = (144,-22);
},
{
name = ogonekLC;
pos = (140,0);
}
);
layerId = "42B3044F-4D5A-45CA-9EB7-C1889731596B";
shapes = (
{
closed = 1;
nodes = (
(230,0,l),
(230,500,l),
(58,500,l),
(58,0,l)
);
}
);
width = 288;
},
{
anchors = (
{
name = aboveLC;
pos = (110,502);
},
{
name = belowLC;
pos = (110,-22);
},
{
name = ogonekLC;
pos = (100,0);
}
);
layerId = "0CAB57D4-4FC4-49C3-B456-FB7666EAA712";
shapes = (
{
closed = 1;
nodes = (
(126,0,l),
(126,478,l),
(96,478,l),
(96,0,l)
);
}
);
width = 222;
},
{
anchors = (
{
name = aboveLC;
pos = (123,509);
},
{
name = belowLC;
pos = (123,-22);
},
{
name = ogonekLC;
pos = (115,0);
}
);
layerId = master01;
shapes = (
{
closed = 1;
nodes = (
(164,0,l),
(164,486,l),
(82,486,l),
(82,0,l)
);
}
);
width = 246;
}
);
unicode = 305;
}
{
color = 3;
glyphname = IJ;
kernLeft = I;
kernRight = I;
layers = (
{
layerId = "42B3044F-4D5A-45CA-9EB7-C1889731596B";
shapes = (
{
closed = 1;
nodes = (
(516,-188,o),
(560,-86,o),
(560,26,cs),
(560,650,l),
(388,650,l),
(388,20,ls),
(388,-34,o),
(374,-54,o),
(338,-54,cs),
(326,-54,o),
(316,-52,o),
(302,-48,c),
(272,-174,l),
(294,-182,o),
(320,-188,o),
(366,-188,cs)
);
},
{
closed = 1;
nodes = (
(244,0,l),
(244,650,l),
(72,650,l),
(72,0,l)
);
}
);
width = 632;
},
{
layerId = "0CAB57D4-4FC4-49C3-B456-FB7666EAA712";
shapes = (
{
closed = 1;
nodes = (
(330,-152,o),
(364,-112,o),
(364,-20,cs),
(364,660,l),
(332,660,l),
(332,-12,ls),
(332,-74,o),
(322,-120,o),
(266,-120,cs),
(246,-120,o),
(226,-114,o),
(214,-110,c),
(206,-140,l),
(220,-146,o),
(244,-152,o),
(264,-152,cs)
);
},
{
closed = 1;
nodes = (
(132,0,l),
(132,660,l),
(100,660,l),
(100,0,l)
);
}
);
width = 464;
},
{
layerId = master01;
shapes = (
{
closed = 1;
nodes = (
(398,-165,o),
(436,-102,o),
(436,-3,cs),
(436,656,l),
(353,656,l),
(353,0,ls),
(353,-59,o),
(341,-96,o),
(292,-96,cs),
(275,-96,o),
(259,-91,o),
(246,-87,c),
(230,-153,l),
(247,-159,o),
(272,-165,o),
(302,-165,cs)
);
},
{
closed = 1;
nodes = (
(173,0,l),
(173,656,l),
(90,656,l),
(90,0,l)
);
}
);
width = 525.824;
}
);
unicode = 306;
}
{
color = 3;
glyphname = Lslash;
kernLeft = LSLASH;
kernRight = L;
layers = (
{
anchors = (
{
name = aboveUC;
pos = (190,672);
},
{
name = belowLC;
pos = (320,-22);
}
);
layerId = "42B3044F-4D5A-45CA-9EB7-C1889731596B";
shapes = (
{
closed = 1;
nodes = (
(122,218,l),
(256,278,l),
(482,382,l),
(434,494,l),
(256,412,l),
(122,352,l),
(-18,288,l),
(30,176,l)
);
},
{
pos = (30,0);
ref = L;
}
);
width = 560;
},
{
anchors = (
{
name = aboveUC;
pos = (130,682);
},
{
name = belowLC;
pos = (290,-22);
}
);
layerId = "0CAB57D4-4FC4-49C3-B456-FB7666EAA712";
shapes = (
{
closed = 1;
nodes = (
(116,276,l),
(128,278,l),
(356,376,l),
(344,402,l),
(128,310,l),
(116,308,l),
(4,260,l),
(16,234,l)
);
},
{
pos = (10,0);
ref = L;
}
);
width = 466;
},
{
anchors = (
{
name = aboveUC;
pos = (152,678);
},
{
name = belowLC;
pos = (301,-22);
}
);
layerId = master01;
shapes = (
{
closed = 1;
nodes = (
(118,255,l),
(175,278,l),
(402,378,l),
(377,436,l),
(175,348,l),
(118,324,l),
(-4,270,l),
(21,213,l)
);
},
{
alignment = -1;
pos = (17,0);
ref = L;
}
);
width = 500.592;
}
);
unicode = 321;
}
{
color = 3;
glyphname = lslash;
kernLeft = lslash;
kernRight = lslash;
layers = (
{
anchors = (
{
name = aboveUC;
pos = (190,722);
},
{
name = belowLC;
pos = (210,-22);
}
);
layerId = "42B3044F-4D5A-45CA-9EB7-C1889731596B";
shapes = (
{
closed = 1;
nodes = (
(106,282,l),
(252,350,l),
(398,412,l),
(342,518,l),
(252,480,l),
(106,412,l),
(-16,360,l),
(40,254,l)
);
},
{
pos = (40,0);
ref = l;
}
);
width = 382;
},
{
anchors = (
{
name = aboveUC;
pos = (120,732);
},
{
name = belowLC;
pos = (140,-22);
}
);
layerId = "0CAB57D4-4FC4-49C3-B456-FB7666EAA712";
shapes = (
{
closed = 1;
nodes = (
(116,406,l),
(128,410,l),
(236,466,l),
(224,490,l),
(128,440,l),
(116,436,l),
(0,376,l),
(12,352,l)
);
},
{
pos = (10,0);
ref = l;
}
);
width = 250;
},
{
anchors = (
{
name = aboveUC;
pos = (146,728);
},
{
name = belowLC;
pos = (166,-22);
}
);
layerId = master01;
shapes = (
{
closed = 1;
nodes = (
(112,360,l),
(174,388,l),
(296,446,l),
(267,500,l),
(174,455,l),
(112,427,l),
(-6,370,l),
(22,316,l)
);
},
{
alignment = -1;
pos = (21,0);
ref = l;
}
);
width = 299;
}
);
unicode = 322;
}
{
color = 3;
glyphname = napostrophe;
kernLeft = napostrophe;
kernRight = n;
layers = (
{
layerId = "42B3044F-4D5A-45CA-9EB7-C1889731596B";
shapes = (
{
closed = 1;
nodes = (
(240,384,o),
(284,472,o),
(284,570,cs),
(284,654,o),
(230,708,o),
(148,708,cs),
(93,708,o),
(46,670,o),
(46,612,cs),
(46,560,o),
(90,530,o),
(134,530,cs),
(158,530,o),
(186,542,o),
(200,556,c),
(174,556,l),
(174,550,o),
(174,546,o),
(174,540,cs),
(174,504,o),
(138,446,o),
(72,426,c),
(112,344,l)
);
},
{
pos = (300,0);
ref = n;
}
);
width = 882;
},
{
layerId = "0CAB57D4-4FC4-49C3-B456-FB7666EAA712";
shapes = (
{
closed = 1;
nodes = (
(146,524,o),
(172,580,o),
(172,642,cs),
(172,704,o),
(132,734,o),
(98,734,cs),
(72,734,o),
(54,718,o),
(54,696,cs),
(54,670,o),
(74,660,o),
(90,660,cs),
(106,660,o),
(118,666,o),
(124,682,c),
(120,682,l),
(134,670,o),
(140,654,o),
(140,632,cs),
(140,586,o),
(126,548,o),
(58,508,c),
(72,488,l)
);
},
{
pos = (177,0);
ref = n;
}
);
width = 703;
},
{
layerId = master01;
shapes = (
{
closed = 1;
nodes = (
(181,472,o),
(213,540,o),
(213,616,cs),
(213,686,o),
(168,724,o),
(116,724,cs),
(80,724,o),
(51,700,o),
(51,665,cs),
(51,630,o),
(80,612,o),
(106,612,cs),
(125,612,o),
(143,620,o),
(152,636,c),
(140,636,l),
(149,626,o),
(153,614,o),
(153,598,cs),
(153,556,o),
(130,510,o),
(63,478,c),
(87,435,l)
);
},
{
alignment = -1;
pos = (222,0);
ref = n;
}
);
width = 769;
}
);
unicode = 329;
}
{
color = 3;
glyphname = Eng;
kernLeft = H;
kernRight = O;
layers = (
{
anchors = (
{
name = aboveUC;
pos = (370,672);
},
{
name = belowLC;
pos = (330,-22);
}
);
layerId = "42B3044F-4D5A-45CA-9EB7-C1889731596B";
shapes = (
{
closed = 1;
nodes = (
(569,-12,o),
(634,105,o),
(634,330,cs),
(634,572,o),
(538,662,o),
(411,662,cs),
(346,662,o),
(288,638,o),
(238,584,c),
(238,650,l),
(72,650,l),
(72,0,l),
(244,0,l),
(244,438,l),
(274,491,o),
(322,514,o),
(358,514,cs),
(422,514,o),
(458,461,o),
(458,330,cs),
(458,176,o),
(429,148,o),
(394,148,cs),
(378,148,o),
(366,150,o),
(356,154,c),
(320,8,l),
(340,-4,o),
(384,-12,o),
(414,-12,cs)
);
}
);
width = 678;
},
{
anchors = (
{
name = aboveUC;
pos = (330,682);
},
{
name = belowLC;
pos = (310,-22);
}
);
layerId = "0CAB57D4-4FC4-49C3-B456-FB7666EAA712";
shapes = (
{
closed = 1;
nodes = (
(481,-12,o),
(554,70,o),
(554,338,cs),
(554,584,o),
(456,672,o),
(324,672,cs),
(252,672,o),
(178,622,o),
(132,570,c),
(132,660,l),
(100,660,l),
(100,0,l),
(132,0,l),
(132,532,l),
(177,590,o),
(260,642,o),
(322,642,cs),
(438,642,o),
(520,574,o),
(520,338,cs),
(520,98,o),
(465,20,o),
(400,20,cs),
(376,20,o),
(360,24,o),
(344,32,c),
(332,0,l),
(350,-8,o),
(379,-12,o),
(402,-12,cs)
);
}
);
width = 610;
},
{
anchors = (
{
name = aboveUC;
pos = (345,678);
},
{
name = belowLC;
pos = (317,-22);
}
);
layerId = master01;
shapes = (
{
closed = 1;
nodes = (
(513,-12,o),
(583,83,o),
(583,335,cs),
(583,580,o),
(486,668,o),
(356,668,cs),
(287,668,o),
(218,628,o),
(171,575,c),
(171,656,l),
(90,656,l),
(90,0,l),
(173,0,l),
(173,497,l),
(213,554,o),
(283,595,o),
(335,595,cs),
(432,595,o),
(497,532,o),
(497,335,cs),
(497,127,o),
(452,67,o),
(398,67,cs),
(377,67,o),
(362,70,o),
(348,77,c),
(328,3,l),
(346,-7,o),
(381,-12,o),
(406,-12,cs)
);
}
);
width = 635.024;
}
);
unicode = 330;
}
{
color = 3;
glyphname = eng;
kernLeft = n;
kernRight = n;
layers = (
{
anchors = (
{
name = aboveLC;
pos = (320,522);
},
{
name = belowLC;
pos = (290,-182);
}
);
layerId = "42B3044F-4D5A-45CA-9EB7-C1889731596B";
shapes = (
{
closed = 1;
nodes = (
(484,-188,o),
(528,-86,o),
(528,26,cs),
(528,308,ls),
(528,432,o),
(482,512,o),
(372,512,cs),
(304,512,o),
(254,478,o),
(214,440,c),
(210,440,l),
(198,500,l),
(58,500,l),
(58,0,l),
(230,0,l),
(230,328,l),
(256,352,o),
(274,366,o),
(306,366,cs),
(340,366,o),
(356,350,o),
(356,286,cs),
(356,20,ls),
(356,-34,o),
(342,-54,o),
(306,-54,cs),
(294,-54,o),
(284,-52,o),
(270,-48,c),
(240,-174,l),
(262,-182,o),
(288,-188,o),
(334,-188,cs)
);
}
);
width = 582;
},
{
anchors = (
{
name = aboveLC;
pos = (280,502);
},
{
name = belowLC;
pos = (270,-222);
}
);
layerId = "0CAB57D4-4FC4-49C3-B456-FB7666EAA712";
shapes = (
{
closed = 1;
nodes = (
(406,-234,o),
(438,-194,o),
(438,-102,cs),
(438,308,ls),
(438,432,o),
(392,490,o),
(294,490,cs),
(228,490,o),
(178,452,o),
(128,402,c),
(126,402,l),
(122,478,l),
(96,478,l),
(96,0,l),
(126,0,l),
(126,366,l),
(188,430,o),
(232,462,o),
(292,462,cs),
(374,462,o),
(408,410,o),
(408,304,cs),
(408,-98,ls),
(408,-160,o),
(398,-206,o),
(342,-206,cs),
(324,-206,o),
(302,-200,o),
(290,-196,c),
(282,-220,l),
(296,-228,o),
(322,-234,o),
(340,-234,cs)
);
}
);
width = 526;
},
{
anchors = (
{
name = aboveLC;
pos = (295,509);
},
{
name = belowLC;
pos = (277,-207);
}
);
layerId = master01;
shapes = (
{
closed = 1;
nodes = (
(435,-217,o),
(471,-154,o),
(471,-55,cs),
(471,308,ls),
(471,432,o),
(425,498,o),
(323,498,cs),
(256,498,o),
(206,462,o),
(160,416,c),
(157,416,l),
(150,486,l),
(82,486,l),
(82,0,l),
(164,0,l),
(164,352,l),
(213,401,o),
(247,427,o),
(297,427,cs),
(361,427,o),
(389,388,o),
(389,297,cs),
(389,-55,ls),
(389,-114,o),
(377,-150,o),
(329,-150,cs),
(313,-150,o),
(295,-146,o),
(283,-142,c),
(267,-203,l),
(283,-211,o),
(309,-217,o),
(338,-217,cs)
);
}
);
width = 547;
}
);
unicode = 331;
}
